<?xml version="1.0" encoding="UTF-8"?>
<svg version="1.1" xmlns="http://www.w3.org/2000/svg" width="1024" height="1024">
<path d="M0 0 C0.78958099 0.00459229 1.57916199 0.00918457 2.39266968 0.01391602 C15.65636664 0.11968686 27.81006938 1.52678993 40.5 5.5625 C41.38236328 5.82530762 42.26472656 6.08811523 43.17382812 6.35888672 C60.45647356 11.54552285 76.48741965 19.36623853 92.5 27.5625 C93.31049805 27.97612793 94.12099609 28.38975586 94.95605469 28.81591797 C114.37857063 38.87061736 132.44914913 51.93520752 149.5 65.5625 C150.98113281 66.74199219 150.98113281 66.74199219 152.4921875 67.9453125 C163.09280474 76.51798557 173.41181779 85.43527353 183.40722656 94.70532227 C185.32626205 96.48294779 187.25554055 98.24598329 189.19555664 100.00097656 C196.66875607 106.76791759 203.86778337 113.77506173 210.98364258 120.91577148 C212.82454708 122.76208246 214.67080272 124.60292273 216.51757812 126.44335938 C221.83144608 131.7542367 227.09033984 137.05508796 231.96264648 142.7800293 C234.8149897 146.08715298 237.86498455 149.21204534 240.875 152.375 C245.95735538 157.751515 250.78394154 163.2012559 255.39453125 168.98828125 C257.67200846 171.77280348 260.06312008 174.41663803 262.5 177.0625 C266.91881919 181.87440433 271.07233762 186.84519633 275.171875 191.9296875 C276.67431738 193.77680784 278.19516863 195.60777845 279.71875 197.4375 C286.75464416 205.89657264 293.577367 214.47819151 300.21875 223.25 C303.01850641 226.94487084 305.86815298 230.59806175 308.73071289 234.24438477 C315.69897569 243.12803042 322.37420917 252.18785066 328.93066406 261.37841797 C330.41422522 263.4431252 331.91703413 265.49170276 333.4296875 267.53515625 C344.26679633 282.23032567 354.24840007 297.51320081 364.30218506 312.74884033 C365.3617809 314.35321691 366.42409554 315.95579716 367.48681641 317.55810547 C382.54016535 340.2599059 396.45966894 363.65105482 409.5 387.5625 C409.9856543 388.45259766 410.47130859 389.34269531 410.97167969 390.25976562 C412.28073468 392.6690131 413.58100168 395.08263762 414.875 397.5 C415.25076172 398.19826904 415.62652344 398.89653809 416.01367188 399.6159668 C418.5 404.32231663 418.5 404.32231663 418.5 406.5625 C419.16 406.5625 419.82 406.5625 420.5 406.5625 C420.77062256 405.69061035 421.04124512 404.8187207 421.32006836 403.92041016 C423.29582857 398.29769013 426.24204044 393.17344912 429.0625 387.9375 C429.38891479 387.32867981 429.71532959 386.71985962 430.05163574 386.09259033 C437.00310021 373.15721987 444.5521702 360.6227591 452.29077148 348.14526367 C453.88010925 345.57729651 455.44863668 342.99761725 457.00805664 340.41137695 C463.34297006 329.92302738 469.95861892 319.65469658 476.77905273 309.47583008 C478.43718521 307.00046994 480.08908538 304.521038 481.74023438 302.04101562 C488.82378555 291.42507305 496.08791648 280.95129885 503.5 270.5625 C504.12704834 269.67941162 504.75409668 268.79632324 505.40014648 267.88647461 C513.59626263 256.36346459 522.10908536 245.09214642 530.72265625 233.87890625 C532.24730648 231.89183463 533.76622262 229.90065918 535.28125 227.90625 C541.36070246 219.93190326 547.65571003 212.14556754 554.00732422 204.38720703 C555.32186202 202.78026304 556.63198302 201.16970809 557.94140625 199.55859375 C563.22888417 193.06038743 568.61389228 186.64930489 574.04541016 180.27148438 C575.02539302 179.12011142 576.00421145 177.96774646 576.98193359 176.81445312 C583.12626421 169.56698593 589.36327576 162.43674283 595.83203125 155.4765625 C597.88842855 153.23048288 599.90377846 150.96468248 601.90234375 148.66796875 C612.57536433 136.43237533 624.03573595 124.92521033 635.5 113.4375 C636.08390503 112.85100677 636.66781006 112.26451355 637.26940918 111.6602478 C642.97384406 105.93587365 648.66093668 100.25097302 654.81396484 95.00341797 C657.384806 92.80632783 659.83797298 90.49244405 662.3125 88.1875 C666.90424681 83.95063583 671.60954114 79.90844117 676.48046875 75.9921875 C678.7066716 74.20085739 680.91488116 72.39511697 683.11328125 70.5703125 C698.74882807 57.63604084 715.13086884 46.05523274 732.5 35.5625 C733.14549805 35.17143066 733.79099609 34.78036133 734.45605469 34.37744141 C739.05858192 31.61908581 743.74617316 29.05012425 748.5 26.5625 C749.90620605 25.82580078 749.90620605 25.82580078 751.34082031 25.07421875 C764.33354444 18.35511259 777.38596435 12.55378519 791.25 7.9375 C792.44963379 7.5360376 793.64926758 7.1345752 794.88525391 6.72094727 C808.74607915 2.27258495 821.7565462 0.03536904 836.2434082 0.11645508 C838.56485682 0.12500868 840.88386734 0.09598932 843.20507812 0.06445312 C861.06383314 -0.01947026 876.12509443 4.85202184 889.2890625 17.3515625 C907.43909779 35.50159779 914.38177722 62.25693132 914.7734375 87.4375 C914.78605621 88.20376709 914.79867493 88.97003418 914.81167603 89.75952148 C915.98612934 180.52431336 905.01523257 274.1620378 892.875 364 C892.78239899 364.69754395 892.68979797 365.39508789 892.59439087 366.11376953 C890.70492508 380.16865346 887.84479782 394.06572104 882.875 407.375 C882.53581543 408.29095947 882.19663086 409.20691895 881.84716797 410.15063477 C872.6533497 434.3056801 859.07758354 454.71246513 841.5 473.5625 C840.77554688 474.35269531 840.05109375 475.14289063 839.3046875 475.95703125 C828.3885781 487.40969518 815.23747759 496.792943 801.5 504.5625 C800.89317383 504.91231934 800.28634766 505.26213867 799.66113281 505.62255859 C777.06078353 518.56556529 752.37389009 526.4825667 726.875 531.3125 C725.82795898 531.51133789 724.78091797 531.71017578 723.70214844 531.91503906 C704.53789348 535.34753081 685.75088117 535.82409055 666.3125 535.6875 C663.79752964 535.67744207 661.28255535 535.66832123 658.76757812 535.66015625 C652.67829795 535.6383844 646.58916804 535.60513331 640.5 535.5625 C641.25692139 535.75247559 642.01384277 535.94245117 642.79370117 536.13818359 C699.17144255 550.41371056 761.5274486 572.7016879 793.46484375 624.9921875 C807.21705998 648.49224156 810.60499543 677.76448344 803.81640625 704.05859375 C796.36734749 730.30466341 782.95183264 752.73817437 765.5 773.5625 C764.67886719 774.56796875 763.85773437 775.5734375 763.01171875 776.609375 C756.95002995 783.93588744 750.47004235 790.77344409 743.75 797.5 C742.95811279 798.29269287 742.16622559 799.08538574 741.3503418 799.90209961 C737.14569367 804.06717665 732.8616448 808.08567818 728.37646484 811.94702148 C726.59977549 813.47660169 724.84987728 815.03146192 723.10546875 816.59765625 C696.90142115 839.9211306 654.92438514 872.53220448 617.5 870.5625 C617.5 871.2225 617.5 871.8825 617.5 872.5625 C607.6 872.5625 597.7 872.5625 587.5 872.5625 C587.5 871.9025 587.5 871.2425 587.5 870.5625 C586.62214844 870.55863281 586.62214844 870.55863281 585.7265625 870.5546875 C559.67191546 869.38105475 535.16435137 852.60715967 517.01074219 835.02197266 C515.46074983 833.52458185 513.89097837 832.04988082 512.3203125 830.57421875 C464.75074299 785.20203983 440.82109508 716.52578525 420.5 655.5625 C419.84 655.5625 419.18 655.5625 418.5 655.5625 C418.13874023 656.61711426 417.77748047 657.67172852 417.40527344 658.75830078 C398.10975348 714.97407562 376.90116564 772.94390272 337.5 818.5625 C336.80777344 819.36558594 336.11554688 820.16867187 335.40234375 820.99609375 C333.14243793 823.55950779 330.83642901 826.06860007 328.5 828.5625 C328.03110352 829.06539551 327.56220703 829.56829102 327.07910156 830.08642578 C307.75433568 850.64322367 280.48282245 869.40086383 251.5 870.5625 C251.5 871.2225 251.5 871.8825 251.5 872.5625 C241.6 872.5625 231.7 872.5625 221.5 872.5625 C221.5 871.9025 221.5 871.2425 221.5 870.5625 C220.49646484 870.54123047 220.49646484 870.54123047 219.47265625 870.51953125 C166.92618984 867.90984097 116.34397732 820.83719596 82.5 784.5625 C80.12748165 781.82926962 77.84202911 779.05391432 75.59765625 776.21484375 C74.22032255 774.4732989 72.81194792 772.75577472 71.37109375 771.06640625 C45.0959672 740.18490689 29.4828136 703.44343336 32.5 662.5625 C33.20418663 656.67234084 34.63212185 651.18359127 36.5 645.5625 C36.70898926 644.92989258 36.91797852 644.29728516 37.13330078 643.64550781 C42.66694612 627.35545076 51.93789627 614.1380825 63.5 601.5625 C64.14195312 600.83804688 64.78390625 600.11359375 65.4453125 599.3671875 C90.60052868 572.40711276 128.86479808 556.41274056 163.125 545.3125 C164.02766602 545.01964111 164.93033203 544.72678223 165.86035156 544.42504883 C176.62040896 541.05480096 187.58129571 538.36364905 198.5 535.5625 C197.87899918 535.56916183 197.25799835 535.57582367 196.61817932 535.58268738 C190.01284092 535.65030727 183.40760427 535.69481048 176.80200195 535.72729492 C174.353719 535.74216012 171.90546156 535.76245812 169.45727539 535.78881836 C148.25965353 536.01094261 127.46821254 534.62284324 106.6875 530.25 C105.66019775 530.03690186 104.63289551 529.82380371 103.57446289 529.60424805 C64.54515578 521.25313091 29.68583837 503.77817973 0.5 476.5625 C-0.29019531 475.83804687 -1.08039063 475.11359375 -1.89453125 474.3671875 C-33.48953267 444.25240424 -48.9752626 401.9292265 -54.5 359.5625 C-54.66471802 358.30194794 -54.66471802 358.30194794 -54.83276367 357.01593018 C-61.95494552 302.01811938 -66.50622539 246.65337031 -70.8125 191.375 C-70.87458649 190.58007771 -70.93667297 189.78515541 -71.00064087 188.96614456 C-71.86936043 177.83414287 -72.70880741 166.70029321 -73.5 155.5625 C-73.55032001 154.8546423 -73.60064003 154.14678459 -73.65248489 153.41747665 C-74.83060946 136.75105577 -75.8573526 120.10958443 -75.81567383 103.39331055 C-75.81243837 100.69866976 -75.836475 98.0050602 -75.86132812 95.31054688 C-75.95573175 69.19029805 -71.44259795 40.7381287 -53.5 20.5625 C-52.93023437 19.88832031 -52.36046875 19.21414062 -51.7734375 18.51953125 C-38.13801827 3.52057009 -19.35068552 -0.22639835 0 0 Z " fill="#1085FE" transform="translate(92.5,75.4375)"/>
</svg>
