<?xml version="1.0" encoding="UTF-8"?>
<svg version="1.1" xmlns="http://www.w3.org/2000/svg" width="1024" height="1024">
<path d="M0 0 C1.51400391 0.01740234 1.51400391 0.01740234 3.05859375 0.03515625 C4.07050781 0.04417969 5.08242188 0.05320313 6.125 0.0625 C6.90746094 0.07410156 7.68992187 0.08570313 8.49609375 0.09765625 C9.50378895 1.86412195 10.50201089 3.63599448 11.49609375 5.41015625 C12.33140625 6.88935547 12.33140625 6.88935547 13.18359375 8.3984375 C14.49609375 11.09765625 14.49609375 11.09765625 14.49609375 14.09765625 C15.15609375 14.09765625 15.81609375 14.09765625 16.49609375 14.09765625 C16.73207275 14.59990723 16.96805176 15.1021582 17.21118164 15.61962891 C18.32524572 17.9881286 19.44150044 20.35558371 20.55859375 22.72265625 C20.964729 23.58334717 21.37086426 24.44403809 21.78930664 25.33081055 C24.78243787 31.64964314 27.88372501 37.90201857 31.0859375 44.1171875 C32.47943316 47.06244288 33.53381513 49.98768332 34.49609375 53.09765625 C36.12152455 52.95670561 37.74643426 52.80973538 39.37109375 52.66015625 C40.27601563 52.57894531 41.1809375 52.49773437 42.11328125 52.4140625 C44.50720236 52.2277634 44.50720236 52.2277634 46.49609375 51.09765625 C48.35628462 50.8875641 50.22245935 50.72927806 52.08984375 50.59765625 C53.20230469 50.51515625 54.31476563 50.43265625 55.4609375 50.34765625 C58.99609375 50.09765625 58.99609375 50.09765625 62.53125 49.84765625 C63.64371094 49.76515625 64.75617188 49.68265625 65.90234375 49.59765625 C67.43858398 49.489375 67.43858398 49.489375 69.00585938 49.37890625 C71.49283504 49.24262263 71.49283504 49.24262263 73.49609375 48.09765625 C76.41622638 47.88824435 79.32226566 47.72256663 82.24609375 47.59765625 C88.36443953 47.35233962 88.36443953 47.35233962 94.43359375 46.6015625 C126.26666714 41.36372262 170.3299088 40.21580895 201.98632812 46.59985352 C204.38707219 47.07603223 206.62810515 47.28118677 209.0703125 47.37890625 C209.90240234 47.41628906 210.73449219 47.45367187 211.59179688 47.4921875 C213.3313609 47.56297609 215.07094462 47.63328223 216.81054688 47.703125 C217.63876953 47.74050781 218.46699219 47.77789062 219.3203125 47.81640625 C220.07401123 47.84669922 220.82770996 47.87699219 221.60424805 47.90820312 C223.49609375 48.09765625 223.49609375 48.09765625 225.49609375 49.09765625 C227.35628462 49.3077484 229.22245935 49.46603444 231.08984375 49.59765625 C232.20230469 49.68015625 233.31476562 49.76265625 234.4609375 49.84765625 C235.62753906 49.93015625 236.79414062 50.01265625 237.99609375 50.09765625 C240.29845243 50.26047499 242.600556 50.42695588 244.90234375 50.59765625 C245.92650391 50.66984375 246.95066406 50.74203125 248.00585938 50.81640625 C250.49609375 51.09765625 250.49609375 51.09765625 252.49609375 52.09765625 C254.3698898 52.16799394 256.24610477 52.18195845 258.12109375 52.16015625 C259.12398437 52.15113281 260.126875 52.14210937 261.16015625 52.1328125 C261.93101562 52.12121094 262.701875 52.10960937 263.49609375 52.09765625 C264.15609375 49.78765625 264.81609375 47.47765625 265.49609375 45.09765625 C266.15609375 45.09765625 266.81609375 45.09765625 267.49609375 45.09765625 C267.58761719 44.24945313 267.67914062 43.40125 267.7734375 42.52734375 C268.5881086 38.66095876 270.13174468 35.61915905 272.05859375 32.22265625 C272.78574651 30.90208189 273.51094206 29.5804283 274.234375 28.2578125 C274.60771973 27.57734863 274.98106445 26.89688477 275.36572266 26.19580078 C277.23683558 22.72272422 278.99334567 19.19407761 280.74609375 15.66015625 C281.06263916 15.02287598 281.37918457 14.3855957 281.70532227 13.72900391 C282.3191538 12.49168687 282.93236862 11.25406365 283.54492188 10.01611328 C285.18633866 6.70547337 286.84208294 3.40201856 288.49609375 0.09765625 C290.30851427 0.07078346 292.12104608 0.0513191 293.93359375 0.03515625 C294.94292969 0.02355469 295.95226562 0.01195312 296.9921875 0 C299.49609375 0.09765625 299.49609375 0.09765625 300.49609375 1.09765625 C303.18161156 1.61695527 305.86027913 2.09262358 308.55859375 2.53515625 C313.01817505 3.26999571 317.42734618 4.04010373 321.80859375 5.16015625 C325.51080653 6.17131693 325.51080653 6.17131693 329.43359375 6.66015625 C332.49609375 7.09765625 332.49609375 7.09765625 333.49609375 8.09765625 C334.89556631 8.43943979 336.30732991 8.7313166 337.72265625 9 C339.02396484 9.25233398 339.02396484 9.25233398 340.3515625 9.50976562 C341.72248047 9.76983398 341.72248047 9.76983398 343.12109375 10.03515625 C349.00705766 11.15527818 354.7480594 12.38089146 360.49609375 14.09765625 C363.50351443 14.85614822 366.51654615 15.58748968 369.53125 16.31640625 C372.57357346 17.11807251 375.51508073 18.0928204 378.49609375 19.09765625 C381.16014127 19.90014597 383.82552209 20.69264685 386.49609375 21.47265625 C387.23649902 21.69034668 387.9769043 21.90803711 388.73974609 22.13232422 C392.31139651 23.17956976 395.88601782 24.21225004 399.47265625 25.20703125 C405.36900194 26.84841228 410.88158061 28.64768688 416.49609375 31.09765625 C418.44862319 31.72032437 420.40791395 32.32192852 422.37109375 32.91015625 C432.78421836 36.0485229 443.21643554 39.42685879 453.078125 44.04296875 C456.41373488 45.49791975 459.83010196 46.72242639 463.24609375 47.97265625 C469.4905591 50.26761201 475.51221725 52.86229866 481.5234375 55.72265625 C484.29542098 57.00483521 487.08104539 58.13435166 489.93359375 59.22265625 C495.45025213 61.3899149 500.35733007 63.86638345 503.49609375 69.09765625 C503.49609375 69.75765625 503.49609375 70.41765625 503.49609375 71.09765625 C504.15609375 71.09765625 504.81609375 71.09765625 505.49609375 71.09765625 C506.0271875 72.05027344 506.55828125 73.00289063 507.10546875 73.984375 C510.3281065 79.6268329 513.90034265 85.05353449 517.42578125 90.50976562 C517.94914063 91.32896484 518.4725 92.14816406 519.01171875 92.9921875 C519.72763184 94.10364136 519.72763184 94.10364136 520.45800781 95.23754883 C521.49609375 97.09765625 521.49609375 97.09765625 521.49609375 99.09765625 C522.15609375 99.09765625 522.81609375 99.09765625 523.49609375 99.09765625 C526.49609375 104.84765625 526.49609375 104.84765625 526.49609375 107.09765625 C527.15609375 107.09765625 527.81609375 107.09765625 528.49609375 107.09765625 C528.99109375 108.14953125 529.48609375 109.20140625 529.99609375 110.28515625 C533.08076112 116.46542952 536.84572645 122.24156508 540.49609375 128.09765625 C541.58491241 129.86512216 542.66880577 131.63563874 543.74609375 133.41015625 C544.184375 134.12816406 544.62265625 134.84617187 545.07421875 135.5859375 C546.63262683 138.33883969 548.03587987 141.14610596 549.43847656 143.98071289 C551.14917441 147.40487287 552.94881104 150.78086757 554.74609375 154.16015625 C555.13450439 154.89331055 555.52291504 155.62646484 555.9230957 156.38183594 C557.81774409 159.95484338 559.72201888 163.52213987 561.6484375 167.078125 C565.27609552 173.7864064 568.71824836 180.53314509 571.84765625 187.4921875 C573.14169504 190.32251404 574.47046344 193.12406572 575.83203125 195.921875 C576.24074463 196.7665332 576.64945801 197.61119141 577.07055664 198.48144531 C577.878991 200.14901056 578.69304174 201.81386791 579.51342773 203.47558594 C581.54930879 207.69639025 583.03297515 211.36777285 583.49609375 216.09765625 C584.15609375 216.09765625 584.81609375 216.09765625 585.49609375 216.09765625 C588.49609375 222.59765625 588.49609375 222.59765625 588.49609375 227.09765625 C589.15609375 227.09765625 589.81609375 227.09765625 590.49609375 227.09765625 C590.76164063 227.90589844 591.0271875 228.71414063 591.30078125 229.546875 C591.65398438 230.61550781 592.0071875 231.68414062 592.37109375 232.78515625 C592.71914063 233.84089844 593.0671875 234.89664063 593.42578125 235.984375 C594.10020926 237.94612363 594.82810365 239.89104542 595.62890625 241.8046875 C596.49609375 244.09765625 596.49609375 244.09765625 596.49609375 247.09765625 C597.15609375 247.09765625 597.81609375 247.09765625 598.49609375 247.09765625 C598.82609375 249.73765625 599.15609375 252.37765625 599.49609375 255.09765625 C600.15609375 255.09765625 600.81609375 255.09765625 601.49609375 255.09765625 C601.7384375 255.92007813 601.98078125 256.7425 602.23046875 257.58984375 C604.52919698 265.2519592 604.52919698 265.2519592 607.37109375 272.72265625 C609.77285868 278.48879824 611.55559844 284.44577436 613.39013672 290.41064453 C614.61564156 294.381993 615.90053817 298.25572636 617.49609375 302.09765625 C618.82461666 306.23083864 619.75983223 309.74597132 619.49609375 314.09765625 C620.15609375 314.09765625 620.81609375 314.09765625 621.49609375 314.09765625 C621.60566406 314.72671875 621.71523438 315.35578125 621.828125 316.00390625 C622.59816559 320.16087336 623.39023343 324.11424857 624.99609375 328.03515625 C626.63275118 332.09801439 627.31141796 336.18118708 628.03125 340.48828125 C628.80460199 344.82945041 630.08891963 348.94798816 631.55859375 353.09765625 C632.59517802 356.41472592 633.02436348 359.6607643 633.49609375 363.09765625 C633.82609375 363.42765625 634.15609375 363.75765625 634.49609375 364.09765625 C634.82449734 366.05016488 635.10790615 368.01029258 635.37109375 369.97265625 C635.99493893 374.25577239 636.75958571 378.32598284 637.99609375 382.47265625 C639.62845812 388.09159894 640.32114924 393.7213531 641.03125 399.51953125 C641.73404732 404.92929888 642.86583911 410.21780656 644.03125 415.54296875 C645.13604744 420.7641596 645.79651618 425.87267003 646.21484375 431.19140625 C646.51507309 434.29377607 646.98856815 437.3351482 647.49609375 440.41015625 C648.46610032 446.39545602 648.92341216 452.34265866 649.25 458.39453125 C649.19758 461.01250394 649.19758 461.01250394 650.49609375 462.09765625 C650.70892066 465.01811437 650.87310247 467.92319702 650.99609375 470.84765625 C651.06551997 472.46760128 651.13834673 474.08740472 651.21484375 475.70703125 C651.24513672 476.42858398 651.27542969 477.15013672 651.30664062 477.89355469 C651.45050434 480.12752045 651.45050434 480.12752045 651.99999809 482.39147949 C652.51351752 485.19270206 652.62194488 487.7542987 652.62307739 490.60058594 C652.62589722 491.69407349 652.62871704 492.78756104 652.63162231 493.91418457 C652.62959808 495.10394897 652.62757385 496.29371338 652.62548828 497.51953125 C652.6272406 498.78019409 652.62899292 500.04085693 652.63079834 501.33972168 C652.63534973 504.79007431 652.63359255 508.24039698 652.63041925 511.69075012 C652.62788381 515.30522745 652.6302365 518.91970225 652.63180542 522.53417969 C652.63362365 528.6035203 652.63122988 534.67284874 652.62646484 540.7421875 C652.62102289 547.7546219 652.62278579 554.76702722 652.62829125 561.77946091 C652.63283223 567.80507023 652.63346809 573.8306708 652.63085258 579.85628128 C652.62929524 583.4529798 652.62908118 587.04966467 652.63238907 590.6463623 C652.63581944 594.65618608 652.63106193 598.66595989 652.62548828 602.67578125 C652.62751251 603.86554565 652.62953674 605.05531006 652.63162231 606.28112793 C652.62880249 607.37461548 652.62598267 608.46810303 652.62307739 609.59472656 C652.62270037 610.54228821 652.62232334 611.48984985 652.62193489 612.46612549 C652.49569908 615.10590942 652.05844281 617.51970402 651.49609375 620.09765625 C651.41267722 621.53610644 651.36529485 622.97713541 651.35546875 624.41796875 C651.33613281 625.20042969 651.31679688 625.98289062 651.296875 626.7890625 C651.26286309 628.41901793 651.2447794 630.04937931 651.2421875 631.6796875 C651.17170757 633.92391699 651.06158771 635.92382421 650.49609375 638.09765625 C648.05846736 640.16570703 646.70120352 641.09765625 643.49609375 641.09765625 C643.49609375 641.75765625 643.49609375 642.41765625 643.49609375 643.09765625 C642.10668945 644.30273437 642.10668945 644.30273437 640.171875 645.62890625 C639.47255859 646.10972656 638.77324219 646.59054687 638.05273438 647.0859375 C637.31216797 647.58480469 636.57160156 648.08367188 635.80859375 648.59765625 C635.08736328 649.09652344 634.36613281 649.59539063 633.62304688 650.109375 C630.02610621 652.55989348 626.66273459 654.7169942 622.49609375 656.09765625 C622.49609375 656.75765625 622.49609375 657.41765625 622.49609375 658.09765625 C620.31781192 659.60809809 618.14217864 660.98786576 615.87109375 662.34765625 C614.39894275 663.24609147 612.92763487 664.14590919 611.45703125 665.046875 C610.6587793 665.53462402 609.86052734 666.02237305 609.03808594 666.52490234 C605.43357438 668.75504674 601.87477942 671.05421827 598.3112793 673.34912109 C588.55101886 679.62798779 578.67291013 685.52547042 568.49609375 691.09765625 C565.03945999 693.04804469 561.60436053 695.03480808 558.171875 697.02734375 C551.78250796 700.72293583 545.37110971 704.23052311 538.73828125 707.4765625 C535.61630826 709.037549 532.54027807 710.66469175 529.46533203 712.31542969 C516.76038373 719.1324384 503.78839323 725.19472253 490.50390625 730.79296875 C488.0475047 731.8584728 485.67992016 732.98419023 483.30859375 734.22265625 C479.41084785 736.23815734 475.3490368 737.64387408 471.21484375 739.09765625 C468.76530562 739.99863579 466.42490572 741.00023621 464.05859375 742.09765625 C459.60841721 744.13566196 455.03169332 745.60118421 450.37890625 747.10546875 C447.94623351 747.9427301 445.69096104 748.87185648 443.37109375 749.97265625 C436.0337577 753.37782878 428.17774446 755.60339657 420.49609375 758.09765625 C416.7680012 759.31187216 413.12329001 760.60957573 409.49609375 762.09765625 C397.0398305 767.08760924 397.0398305 767.08760924 391.49609375 766.09765625 C389.00560133 763.75964296 387.31870174 760.96907957 385.49609375 758.09765625 C384.35620157 756.4684832 383.21017394 754.84358873 382.05859375 753.22265625 C381.47980469 752.38734375 380.90101563 751.55203125 380.3046875 750.69140625 C379.06232353 748.90970068 377.80353791 747.13936825 376.53125 745.37890625 C375.58572266 744.0640625 375.58572266 744.0640625 374.62109375 742.72265625 C373.75871094 741.53542969 373.75871094 741.53542969 372.87890625 740.32421875 C371.5563361 738.19465665 370.93233435 736.54731499 370.49609375 734.09765625 C369.83609375 734.09765625 369.17609375 734.09765625 368.49609375 734.09765625 C367.62984375 732.55078125 367.62984375 732.55078125 366.74609375 730.97265625 C365.33880619 728.48979891 363.87760211 726.20427943 362.24609375 723.84765625 C360.49609375 721.09765625 360.49609375 721.09765625 360.49609375 718.09765625 C359.83609375 718.09765625 359.17609375 718.09765625 358.49609375 718.09765625 C358.16609375 716.44765625 357.83609375 714.79765625 357.49609375 713.09765625 C356.83609375 713.09765625 356.17609375 713.09765625 355.49609375 713.09765625 C355.14417969 712.4428125 354.79226563 711.78796875 354.4296875 711.11328125 C351.68187783 706.03377931 348.87364902 701.00617075 345.93359375 696.03515625 C343.7381259 692.27846681 341.58201358 688.51265615 339.55859375 684.66015625 C339.15769531 683.89832031 338.75679687 683.13648438 338.34375 682.3515625 C337.38322758 679.79754665 337.33855858 677.80439689 337.49609375 675.09765625 C338.64464844 674.66195312 339.79320312 674.22625 340.9765625 673.77734375 C350.3292079 670.20201588 359.45029091 666.39593035 368.49609375 662.09765625 C370.16125025 661.34430932 371.82791622 660.5942897 373.49609375 659.84765625 C391.36780752 651.92150011 391.36780752 651.92150011 408.41015625 642.4140625 C412.0098084 640.14237191 415.76115445 638.13653616 419.49609375 636.09765625 C419.49609375 635.10765625 419.49609375 634.11765625 419.49609375 633.09765625 C418.17609375 632.76765625 416.85609375 632.43765625 415.49609375 632.09765625 C415.49609375 631.43765625 415.49609375 630.77765625 415.49609375 630.09765625 C414.98046875 629.87078125 414.46484375 629.64390625 413.93359375 629.41015625 C411.15437737 627.91365512 408.88356366 626.05157051 406.47265625 624.0234375 C403.4807378 622.62208439 401.66572978 623.27013451 398.49609375 624.09765625 C395.83694783 625.08741016 393.26346821 626.23093403 390.68359375 627.41015625 C389.97364258 627.72702393 389.26369141 628.0438916 388.53222656 628.37036133 C385.63762389 629.66432158 382.7533211 630.97881798 379.875 632.30859375 C374.82458476 634.62529799 369.70066996 636.38515063 364.4140625 638.09375 C361.04693055 639.25218763 357.8676995 640.67251044 354.63671875 642.16015625 C348.59861369 644.80458182 342.17677301 646.52334215 335.85546875 648.3515625 C333.47714847 649.06772806 333.47714847 649.06772806 331.16455078 650.05444336 C328.60696826 651.05431071 326.09225592 651.82438118 323.44140625 652.53515625 C322.49652344 652.79039062 321.55164063 653.045625 320.578125 653.30859375 C319.60230469 653.56898438 318.62648438 653.829375 317.62109375 654.09765625 C315.68609873 654.61812096 313.75120067 655.13894632 311.81640625 655.66015625 C310.89674072 655.90765625 309.9770752 656.15515625 309.02954102 656.41015625 C304.72495332 657.57828952 300.44296109 658.81281719 296.171875 660.09765625 C289.60693631 662.04960086 283.1891977 663.58946082 276.41796875 664.6015625 C273.42616534 665.10952912 270.55309233 665.81811694 267.62109375 666.59765625 C261.87426548 668.10477148 256.12524215 668.93402465 250.234375 669.66796875 C247.58989937 669.80753672 247.58989937 669.80753672 246.49609375 671.09765625 C245.04661841 671.31200742 243.58841106 671.46815374 242.12890625 671.59765625 C240.80052734 671.72140625 240.80052734 671.72140625 239.4453125 671.84765625 C238.04732422 671.97140625 238.04732422 671.97140625 236.62109375 672.09765625 C234.79007355 672.26109459 232.95932662 672.42763172 231.12890625 672.59765625 C230.31309082 672.66984375 229.49727539 672.74203125 228.65673828 672.81640625 C226.31796671 673.05085098 226.31796671 673.05085098 223.49609375 674.09765625 C220.43647075 674.40361855 217.37614197 674.60588823 214.30859375 674.81640625 C211.41857635 675.00112823 211.41857635 675.00112823 208.49609375 676.09765625 C196.59324522 677.29598864 184.63243174 677.24597953 172.68359375 677.23046875 C170.81665026 677.2311449 168.94970686 677.23211749 167.08276367 677.23336792 C163.1967687 677.2348303 159.31079693 677.23273784 155.42480469 677.22802734 C150.48992565 677.22233098 145.55510105 677.22561789 140.620224 677.23159981 C136.77306726 677.23524517 132.92592303 677.23404875 129.07876587 677.23147202 C127.26103712 677.23081369 125.44330717 677.23159198 123.62557983 677.23395157 C93.99509937 677.26399146 93.99509937 677.26399146 87.49609375 675.09765625 C84.14330203 674.79013905 80.78990078 674.58868545 77.4296875 674.37890625 C74.49609375 674.09765625 74.49609375 674.09765625 72.49609375 673.09765625 C70.9893689 672.89065004 69.47597161 672.73085913 67.9609375 672.59765625 C67.06955078 672.51515625 66.17816406 672.43265625 65.25976562 672.34765625 C63.37177509 672.18064672 61.48375407 672.01398145 59.59570312 671.84765625 C58.70560547 671.76515625 57.81550781 671.68265625 56.8984375 671.59765625 C56.07851318 671.52546875 55.25858887 671.45328125 54.41381836 671.37890625 C52.49609375 671.09765625 52.49609375 671.09765625 51.49609375 670.09765625 C49.37778602 669.74261594 47.25068807 669.43963663 45.12109375 669.16015625 C27.0848393 666.6864018 27.0848393 666.6864018 25.49609375 665.09765625 C23.50148399 664.77115763 21.49988217 664.487045 19.49609375 664.22265625 C14.76174929 663.52582633 10.54740546 662.56137488 6.0703125 660.9296875 C2.78011094 659.86623844 -0.56844821 659.15316163 -3.94140625 658.41015625 C-11.82921858 656.64157218 -19.53203933 654.35698019 -27.25390625 651.97265625 C-28.38497803 651.62372314 -29.5160498 651.27479004 -30.68139648 650.9152832 C-35.36553892 649.45283253 -39.95502194 647.94117181 -44.50390625 646.09765625 C-46.08214997 645.62209274 -47.66570431 645.16382345 -49.25390625 644.72265625 C-53.39821923 643.5062576 -57.19056689 641.94349824 -61.1015625 640.12890625 C-63.79901279 638.97097637 -66.52282288 638.06107781 -69.31640625 637.16015625 C-78.50436899 634.17523435 -87.27260372 630.26660026 -96.03125 626.2109375 C-102.25257157 623.40986855 -104.97793983 622.92233411 -111.50390625 625.09765625 C-111.50390625 625.75765625 -111.50390625 626.41765625 -111.50390625 627.09765625 C-112.82390625 627.42765625 -114.14390625 627.75765625 -115.50390625 628.09765625 C-115.50390625 628.75765625 -115.50390625 629.41765625 -115.50390625 630.09765625 C-117.03515625 631.38671875 -117.03515625 631.38671875 -119.00390625 632.72265625 C-119.9784375 633.39167969 -119.9784375 633.39167969 -120.97265625 634.07421875 C-121.47796875 634.41195312 -121.98328125 634.7496875 -122.50390625 635.09765625 C-116.57693248 639.67759053 -110.23489146 642.85188473 -103.50390625 646.09765625 C-101.50251672 647.09487235 -99.50212161 648.0940949 -97.50390625 649.09765625 C-97.50390625 649.75765625 -97.50390625 650.41765625 -97.50390625 651.09765625 C-96.50037109 651.22914063 -96.50037109 651.22914063 -95.4765625 651.36328125 C-91.6633937 652.3052993 -88.3967559 654.03641421 -84.94140625 655.84765625 C-75.13425049 660.86571237 -65.06401546 664.90849736 -54.7734375 668.828125 C-49.6427897 670.82031202 -44.57183758 672.95177542 -39.50390625 675.09765625 C-40.28615368 679.49495005 -41.67544884 683.0432507 -43.50390625 687.09765625 C-44.16390625 687.09765625 -44.82390625 687.09765625 -45.50390625 687.09765625 C-45.66826172 688.19207031 -45.66826172 688.19207031 -45.8359375 689.30859375 C-46.5440573 692.2653045 -47.56399945 694.16835371 -49.19140625 696.72265625 C-51.29857848 700.10900597 -53.27759713 703.50283648 -55.12890625 707.03515625 C-58.50573105 713.31281724 -62.34753341 719.28573178 -66.18994141 725.28491211 C-69.09351208 729.82438324 -71.8750281 734.39334799 -74.50390625 739.09765625 C-75.16390625 739.09765625 -75.82390625 739.09765625 -76.50390625 739.09765625 C-76.87708984 740.165 -76.87708984 740.165 -77.2578125 741.25390625 C-78.64117099 744.41091246 -80.36764608 746.84808969 -82.44140625 749.59765625 C-85.78129279 754.0425146 -88.66683255 758.45451158 -91.19140625 763.41015625 C-93.50390625 766.09765625 -93.50390625 766.09765625 -97.37890625 766.66015625 C-101.27537191 766.54184252 -104.06241098 764.82265264 -107.50390625 763.09765625 C-109.73876985 762.40124733 -111.99035763 761.75677031 -114.25390625 761.16015625 C-119.32474486 759.76368447 -124.10071543 758.13584186 -128.94140625 756.09765625 C-131.9419856 754.92669845 -134.97842439 754.01261384 -138.06640625 753.09765625 C-142.54851588 751.75302336 -146.71171367 750.2092309 -150.94140625 748.2265625 C-154.34638875 746.72650161 -157.8271556 745.44751188 -161.31640625 744.16015625 C-167.22772255 741.97570409 -173.0590653 739.65728835 -178.86328125 737.19921875 C-182.37686126 735.73349454 -185.92840261 734.40409027 -189.50390625 733.09765625 C-189.50390625 732.43765625 -189.50390625 731.77765625 -189.50390625 731.09765625 C-190.20902344 730.98035156 -190.91414062 730.86304688 -191.640625 730.7421875 C-199.66911395 728.93495602 -207.20702159 724.81243389 -214.50390625 721.09765625 C-215.49390625 720.76765625 -216.48390625 720.43765625 -217.50390625 720.09765625 C-217.50390625 719.43765625 -217.50390625 718.77765625 -217.50390625 718.09765625 C-218.19097656 717.9996875 -218.87804687 717.90171875 -219.5859375 717.80078125 C-223.11334033 716.95080466 -225.9662431 715.50899449 -229.19140625 713.84765625 C-230.4426279 713.20687416 -231.69393036 712.56624986 -232.9453125 711.92578125 C-233.55391113 711.61189453 -234.16250977 711.29800781 -234.78955078 710.97460938 C-237.05363772 709.81644927 -239.34186857 708.70966809 -241.62890625 707.59765625 C-246.38233927 705.22482962 -250.93571085 702.55014691 -255.5078125 699.84765625 C-258.2732278 698.23239412 -261.06158308 696.68258639 -263.87890625 695.16015625 C-277.10303212 687.98295973 -289.83493073 680.20723055 -302.50390625 672.09765625 C-303.80463497 671.26814679 -305.10541243 670.43871375 -306.40625 669.609375 C-312.92140927 665.44627472 -319.37839316 661.2032294 -325.79296875 656.88671875 C-328.24680803 655.26732626 -330.73333171 653.73500098 -333.25390625 652.22265625 C-334.32640625 651.52140625 -335.39890625 650.82015625 -336.50390625 650.09765625 C-336.50390625 649.43765625 -336.50390625 648.77765625 -336.50390625 648.09765625 C-337.28765625 647.78828125 -338.07140625 647.47890625 -338.87890625 647.16015625 C-341.50390625 646.09765625 -341.50390625 646.09765625 -343.50390625 645.09765625 C-343.50390625 644.43765625 -343.50390625 643.77765625 -343.50390625 643.09765625 C-344.26703125 642.80890625 -345.03015625 642.52015625 -345.81640625 642.22265625 C-348.50390625 641.09765625 -348.50390625 641.09765625 -351.50390625 639.09765625 C-351.69140625 635.97265625 -351.69140625 635.97265625 -351.50390625 633.09765625 C-352.16390625 633.09765625 -352.82390625 633.09765625 -353.50390625 633.09765625 C-353.56449219 631.80730469 -353.62507813 630.51695312 -353.6875 629.1875 C-353.77196506 627.4700437 -353.85661002 625.75259623 -353.94140625 624.03515625 C-354.00038086 622.76381836 -354.00038086 622.76381836 -354.06054688 621.46679688 C-354.10244141 620.63212891 -354.14433594 619.79746094 -354.1875 618.9375 C-354.22415771 618.17816162 -354.26081543 617.41882324 -354.29858398 616.63647461 C-354.47246334 614.01915413 -354.47246334 614.01915413 -355.00865173 611.1492157 C-355.74595659 606.02709171 -355.64324199 600.89871772 -355.63330078 595.73388672 C-355.6350531 594.60948181 -355.63680542 593.4850769 -355.63861084 592.32659912 C-355.64299987 588.62266481 -355.64010212 584.91877852 -355.63671875 581.21484375 C-355.63739254 578.63607779 -355.6383632 576.05731189 -355.63961792 573.47854614 C-355.64109082 568.08025447 -355.6390489 562.68198075 -355.63427734 557.28369141 C-355.62883039 551.04942506 -355.630603 544.81519139 -355.63610375 538.58092582 C-355.64119309 532.5714745 -355.64064882 526.56203913 -355.63772202 520.5525856 C-355.63705474 518.00008261 -355.63787423 515.44757877 -355.64020157 512.89507675 C-355.64273869 509.33090752 -355.63887269 505.76680126 -355.63330078 502.20263672 C-355.63532501 501.14692474 -355.63734924 500.09121277 -355.63943481 499.00350952 C-355.63661499 498.03071045 -355.63379517 497.05791138 -355.63088989 496.05563354 C-355.63051287 495.21391035 -355.63013584 494.37218716 -355.62974739 493.5049572 C-355.49632986 490.95272236 -355.04290819 488.5927551 -354.50390625 486.09765625 C-354.37740865 484.57528369 -354.28373165 483.04983511 -354.22265625 481.5234375 C-354.18527344 480.69134766 -354.14789063 479.85925781 -354.109375 479.00195312 C-354.03858641 477.2623891 -353.96828027 475.52280538 -353.8984375 473.78320312 C-353.86105469 472.95498047 -353.82367188 472.12675781 -353.78515625 471.2734375 C-353.75486328 470.51973877 -353.72457031 469.76604004 -353.69335938 468.98950195 C-353.50390625 467.09765625 -353.50390625 467.09765625 -352.50390625 465.09765625 C-352.30600975 463.46296195 -352.15923347 461.82192604 -352.0390625 460.1796875 C-351.96244385 459.18026123 -351.8858252 458.18083496 -351.80688477 457.15112305 C-351.72752686 456.081604 -351.64816895 455.01208496 -351.56640625 453.91015625 C-350.82862912 444.57896008 -349.91375944 435.35407169 -348.50390625 426.09765625 C-348.38901855 425.33582031 -348.27413086 424.57398438 -348.15576172 423.7890625 C-345.70341926 407.59784712 -345.70341926 407.59784712 -344.03515625 399.6875 C-343.45070903 396.83831982 -342.92343666 393.98003359 -342.3984375 391.11938477 C-341.41709012 385.77966479 -340.43482799 380.46361276 -339.03515625 375.21484375 C-338.27680555 372.19259318 -337.64839462 369.14608624 -337.00390625 366.09765625 C-336.18914593 362.24606203 -335.36132486 358.41002698 -334.37890625 354.59765625 C-333.58894691 351.43781887 -332.98680664 348.31699219 -332.50390625 345.09765625 C-331.84390625 345.09765625 -331.18390625 345.09765625 -330.50390625 345.09765625 C-330.478125 344.45441406 -330.45234375 343.81117188 -330.42578125 343.1484375 C-330.00778056 336.48892645 -328.62827985 330.64284899 -326.55078125 324.3125 C-325.2940961 320.4533512 -324.24594307 316.55705519 -323.21484375 312.6328125 C-322.40674736 309.75119405 -321.45545072 306.93529779 -320.50390625 304.09765625 C-320.04486069 302.63515139 -319.58941394 301.17151421 -319.13671875 299.70703125 C-316.81064913 292.19996055 -314.50751456 284.76692131 -311.44921875 277.51953125 C-309.48536066 272.48815929 -308.0296434 267.2754238 -306.50390625 262.09765625 C-305.84390625 262.09765625 -305.18390625 262.09765625 -304.50390625 262.09765625 C-304.55160156 261.39253906 -304.59929687 260.68742187 -304.6484375 259.9609375 C-304.47895538 256.60335936 -303.55376303 254.35146369 -302.19140625 251.28515625 C-299.99129962 246.23395744 -299.99129962 246.23395744 -298.00390625 241.09765625 C-294.73303295 232.23523417 -290.88697547 223.63509488 -286.8359375 215.10546875 C-285.52520513 212.1457505 -284.47568548 209.18340072 -283.50390625 206.09765625 C-282.84390625 206.09765625 -282.18390625 206.09765625 -281.50390625 206.09765625 C-281.42140625 205.27265625 -281.33890625 204.44765625 -281.25390625 203.59765625 C-280.4820833 199.99581582 -279.2618542 197.35906131 -277.55859375 194.1328125 C-276.03289534 191.18877965 -274.77883804 188.15749255 -273.50390625 185.09765625 C-272.84390625 185.09765625 -272.18390625 185.09765625 -271.50390625 185.09765625 C-271.41109375 183.92203125 -271.41109375 183.92203125 -271.31640625 182.72265625 C-270.20067275 177.74476832 -267.90084398 173.57311931 -265.50390625 169.09765625 C-264.84390625 169.09765625 -264.18390625 169.09765625 -263.50390625 169.09765625 C-263.42140625 168.25203125 -263.33890625 167.40640625 -263.25390625 166.53515625 C-262.5447888 163.28503459 -261.47988393 161.05723415 -259.7578125 158.2421875 C-257.08358748 153.66851293 -254.8442104 148.84847367 -252.50390625 144.09765625 C-251.84390625 144.09765625 -251.18390625 144.09765625 -250.50390625 144.09765625 C-250.33568359 143.27007812 -250.33568359 143.27007812 -250.1640625 142.42578125 C-249.39029852 139.69700414 -248.23572931 137.36992682 -246.94140625 134.84765625 C-246.48636719 133.955625 -246.03132813 133.06359375 -245.5625 132.14453125 C-245.03849609 131.13132812 -245.03849609 131.13132812 -244.50390625 130.09765625 C-243.84390625 130.09765625 -243.18390625 130.09765625 -242.50390625 130.09765625 C-242.36662109 129.31648438 -242.36662109 129.31648438 -242.2265625 128.51953125 C-241.24264373 125.22207374 -239.60250459 122.34092257 -237.94140625 119.34765625 C-237.61205078 118.74566406 -237.28269531 118.14367187 -236.94335938 117.5234375 C-236.13425975 116.04595122 -235.31962963 114.57149589 -234.50390625 113.09765625 C-233.84390625 113.09765625 -233.18390625 113.09765625 -232.50390625 113.09765625 C-232.39175781 112.535625 -232.27960938 111.97359375 -232.1640625 111.39453125 C-231.41333286 108.78252517 -230.29223249 106.70294303 -228.94140625 104.34765625 C-228.48636719 103.5484375 -228.03132813 102.74921875 -227.5625 101.92578125 C-227.21316406 101.3225 -226.86382812 100.71921875 -226.50390625 100.09765625 C-225.84390625 100.09765625 -225.18390625 100.09765625 -224.50390625 100.09765625 C-224.31828125 99.23140625 -224.31828125 99.23140625 -224.12890625 98.34765625 C-223.49741801 96.07429858 -222.61532434 94.17230335 -221.50390625 92.09765625 C-220.84390625 92.09765625 -220.18390625 92.09765625 -219.50390625 92.09765625 C-219.31828125 91.23140625 -219.31828125 91.23140625 -219.12890625 90.34765625 C-218.49741801 88.07429858 -217.61532434 86.17230335 -216.50390625 84.09765625 C-215.84390625 84.09765625 -215.18390625 84.09765625 -214.50390625 84.09765625 C-214.24222656 83.38609375 -213.98054687 82.67453125 -213.7109375 81.94140625 C-209.24693496 71.42427404 -202.9421313 63.67402093 -192.50390625 59.09765625 C-191.52292969 58.66066406 -190.54195312 58.22367188 -189.53125 57.7734375 C-184.48704215 55.5919895 -179.98025416 53.83704447 -174.50390625 53.09765625 C-174.50390625 52.43765625 -174.50390625 51.77765625 -174.50390625 51.09765625 C-173.776875 50.86691406 -173.04984375 50.63617188 -172.30078125 50.3984375 C-167.04628314 48.69409388 -161.89518666 46.89927642 -156.81640625 44.72265625 C-151.14605547 42.29891792 -145.38495795 40.23744985 -139.55395508 38.24072266 C-136.32939724 37.1292259 -133.2056269 35.96788095 -130.07421875 34.60546875 C-125.84972325 32.82138203 -121.56996416 31.4476898 -117.19140625 30.09765625 C-116.34400879 29.833479 -115.49661133 29.56930176 -114.62353516 29.29711914 C-108.92825213 27.52563078 -103.22613718 25.78016296 -97.50390625 24.09765625 C-96.26898438 23.73027344 -95.0340625 23.36289063 -93.76171875 22.984375 C-89.34692005 21.67333552 -84.92616427 20.38327464 -80.50390625 19.09765625 C-79.80797363 18.89382324 -79.11204102 18.68999023 -78.39501953 18.47998047 C-67.32892342 15.25312872 -56.17410318 12.56800027 -44.92211914 10.06469727 C-43.84438232 9.82291748 -42.76664551 9.5811377 -41.65625 9.33203125 C-40.68679443 9.11772461 -39.71733887 8.90341797 -38.71850586 8.68261719 C-36.54596389 8.30740684 -36.54596389 8.30740684 -35.50390625 7.09765625 C-33.53173597 6.74367697 -31.5504144 6.44027875 -29.56640625 6.16015625 C-19.94608334 5.55239501 -19.94608334 5.55239501 -11.50390625 2.09765625 C-9.44661455 1.77842133 -7.38777104 1.58604273 -5.31640625 1.37890625 C-2.79202071 0.98719125 -2.78618917 0.10866572 0 0 Z M-71.50390625 340.09765625 C-71.50390625 340.75765625 -71.50390625 341.41765625 -71.50390625 342.09765625 C-72.37982422 342.49017578 -72.37982422 342.49017578 -73.2734375 342.890625 C-87.456102 350.5656571 -98.40396835 372.64874887 -102.921875 387.6015625 C-103.93229313 391.93483221 -104.74231248 396.30789196 -105.50317383 400.69140625 C-106.40998538 405.90981451 -106.40998538 405.90981451 -107.50390625 408.09765625 C-107.60089647 410.04496376 -107.63466811 411.99559215 -107.63671875 413.9453125 C-107.63800781 415.10740234 -107.63929688 416.26949219 -107.640625 417.46679688 C-107.63675781 418.68560547 -107.63289062 419.90441406 -107.62890625 421.16015625 C-107.63277344 422.38283203 -107.63664063 423.60550781 -107.640625 424.86523438 C-107.63933594 426.02603516 -107.63804687 427.18683594 -107.63671875 428.3828125 C-107.63559082 429.454104 -107.63446289 430.52539551 -107.63330078 431.62915039 C-107.78288371 434.04171976 -107.78288371 434.04171976 -106.50390625 435.09765625 C-106.31828125 437.01578125 -106.31828125 437.01578125 -106.12890625 438.97265625 C-103.48691507 464.31175352 -87.89327726 487.20338351 -68.88671875 503.31640625 C-59.35482813 510.67038714 -48.39864936 516.04683847 -36.50390625 518.09765625 C-36.17390625 518.42765625 -35.84390625 518.75765625 -35.50390625 519.09765625 C-14.10179252 522.87449985 8.11583395 519.28681023 26.296875 507.2421875 C35.63069999 500.56779259 43.94219865 493.63217918 50.49609375 484.09765625 C50.49609375 483.43765625 50.49609375 482.77765625 50.49609375 482.09765625 C51.15609375 482.09765625 51.81609375 482.09765625 52.49609375 482.09765625 C57.46657656 475.5092157 60.58043337 467.75388675 63.49609375 460.09765625 C63.77195312 459.38351562 64.0478125 458.669375 64.33203125 457.93359375 C65.14296227 455.67519447 65.82495365 453.40167329 66.49609375 451.09765625 C66.84929687 449.99164062 67.2025 448.885625 67.56640625 447.74609375 C70.29943833 438.43455135 70.89101662 429.41054186 70.93359375 419.72265625 C70.94350342 418.54662842 70.95341309 417.37060059 70.96362305 416.15893555 C70.89906729 409.57749946 70.1964255 403.78679447 68.21630859 397.50097656 C67.49024786 395.0781488 67.05616561 392.72180305 66.68359375 390.22265625 C65.44818071 383.70299751 62.41234709 378.00650465 59.49609375 372.09765625 C59.18929687 371.38867188 58.8825 370.6796875 58.56640625 369.94921875 C50.1234401 350.89223801 31.30230516 334.99385399 12.49609375 327.09765625 C9.19693722 325.94093978 5.88023197 324.97147104 2.49609375 324.09765625 C1.33722656 323.74703125 0.17835938 323.39640625 -1.015625 323.03515625 C-25.39083336 317.00690956 -52.2852867 324.52950074 -71.50390625 340.09765625 Z M301.49609375 323.09765625 C299.91596158 323.34794436 298.33167069 323.57206571 296.74609375 323.78515625 C285.67110963 325.73366575 274.66425765 331.68820113 265.49609375 338.09765625 C265.49609375 338.75765625 265.49609375 339.41765625 265.49609375 340.09765625 C264.95984375 340.32453125 264.42359375 340.55140625 263.87109375 340.78515625 C258.13076879 343.9574411 253.28532286 348.76317414 249.49609375 354.09765625 C249.49609375 354.75765625 249.49609375 355.41765625 249.49609375 356.09765625 C248.83609375 356.09765625 248.17609375 356.09765625 247.49609375 356.09765625 C241.59568822 364.21735845 232.74208792 376.84317703 233.49609375 387.09765625 C232.83609375 387.09765625 232.17609375 387.09765625 231.49609375 387.09765625 C229.64549917 394.41856187 228.16512581 401.50312809 227.70703125 409.05078125 C227.49609375 411.09765625 227.49609375 411.09765625 226.49609375 412.09765625 C225.77405025 426.68965169 228.06876132 439.93134886 231.49609375 454.09765625 C232.15609375 454.09765625 232.81609375 454.09765625 233.49609375 454.09765625 C233.61984375 455.83015625 233.61984375 455.83015625 233.74609375 457.59765625 C234.23902676 461.67885161 235.58526075 464.75927143 237.55859375 468.3359375 C238.49609375 470.09765625 238.49609375 470.09765625 239.49609375 473.09765625 C240.15609375 473.09765625 240.81609375 473.09765625 241.49609375 473.09765625 C241.74359375 473.77828125 241.99109375 474.45890625 242.24609375 475.16015625 C243.73807283 478.66630708 245.56444886 481.81385993 247.49609375 485.09765625 C248.15609375 485.09765625 248.81609375 485.09765625 249.49609375 485.09765625 C249.76421875 485.90203125 250.03234375 486.70640625 250.30859375 487.53515625 C250.70046875 488.38078125 251.09234375 489.22640625 251.49609375 490.09765625 C252.48609375 490.42765625 253.47609375 490.75765625 254.49609375 491.09765625 C255.16276042 492.43098958 255.82942708 493.76432292 256.49609375 495.09765625 C257.48609375 495.42765625 258.47609375 495.75765625 259.49609375 496.09765625 C259.82609375 497.08765625 260.15609375 498.07765625 260.49609375 499.09765625 C263.97368173 502.01907462 267.75134669 504.53125626 271.49609375 507.09765625 C272.27726563 507.63648438 273.0584375 508.1753125 273.86328125 508.73046875 C278.21812754 511.63454706 278.21812754 511.63454706 283.49609375 512.09765625 C283.49609375 512.75765625 283.49609375 513.41765625 283.49609375 514.09765625 C301.21281654 520.12375244 321.32096096 523.61021971 339.49609375 517.09765625 C340.511875 516.741875 341.52765625 516.38609375 342.57421875 516.01953125 C354.10596519 511.7590338 363.1023478 505.96113068 372.49609375 498.09765625 C373.44742188 497.37191406 374.39875 496.64617187 375.37890625 495.8984375 C379.32726316 492.59954758 382.15627219 488.51780247 385.12109375 484.34765625 C385.68054688 483.58710937 386.24 482.8265625 386.81640625 482.04296875 C390.47664951 476.94970573 393.11974015 471.88427247 395.49609375 466.09765625 C396.18600872 464.58335964 396.87872052 463.07033417 397.57421875 461.55859375 C403.79655544 447.45178933 404.95198983 433.65213289 404.87109375 418.41015625 C404.86686401 417.61192444 404.86263428 416.81369263 404.85827637 415.99127197 C404.83962217 413.71000417 404.80882783 411.42943708 404.76953125 409.1484375 C404.75878571 408.45143234 404.74804016 407.75442719 404.73696899 407.03630066 C404.92145961 403.78490515 404.92145961 403.78490515 403.49609375 401.09765625 C403.07603722 399.06083537 402.68605309 397.01779958 402.30859375 394.97265625 C400.65086264 386.91608307 397.75430956 379.62634908 394.49609375 372.09765625 C393.83609375 372.09765625 393.17609375 372.09765625 392.49609375 372.09765625 C392.16609375 370.11765625 391.83609375 368.13765625 391.49609375 366.09765625 C390.83609375 366.09765625 390.17609375 366.09765625 389.49609375 366.09765625 C389.16609375 364.44765625 388.83609375 362.79765625 388.49609375 361.09765625 C387.83609375 361.09765625 387.17609375 361.09765625 386.49609375 361.09765625 C386.25890625 360.38222656 386.02171875 359.66679687 385.77734375 358.9296875 C381.6624484 349.83426334 372.37794255 342.88989863 364.49609375 337.09765625 C363.71020874 336.49896729 363.71020874 336.49896729 362.90844727 335.88818359 C358.75224149 332.79255111 354.56562895 330.50936508 349.80859375 328.47265625 C349.17759766 328.18648438 348.54660156 327.9003125 347.89648438 327.60546875 C337.17545371 322.93954047 326.93570072 321.64489471 315.30859375 321.84765625 C313.47071289 321.85539062 313.47071289 321.85539062 311.59570312 321.86328125 C306.18067126 321.39257545 306.18067126 321.39257545 301.49609375 323.09765625 Z " fill="#5865F2" transform="translate(363.50390625,128.90234375)"/>
</svg>
