<?xml version="1.0" encoding="UTF-8"?>
<svg version="1.1" xmlns="http://www.w3.org/2000/svg" width="1024" height="1024">
<path d="M0 0 C4.21529347 -0.00050124 8.43058479 -0.00280796 12.64587736 -0.00549722 C26.69267867 -0.01427011 40.73947247 -0.01892246 54.78627653 -0.01816674 C55.53741753 -0.01812679 56.28855853 -0.01808683 57.06246138 -0.01804566 C57.81456945 -0.01800478 58.56667752 -0.0179639 59.34157674 -0.01792178 C71.46735068 -0.01751732 83.59309328 -0.02704511 95.7188582 -0.04118403 C108.30730584 -0.05574097 120.89573841 -0.06244369 133.48419464 -0.06159025 C140.49588906 -0.06126459 147.50755041 -0.06377956 154.51923704 -0.0747683 C334.139683 -0.34286336 334.139683 -0.34286336 399.69673872 33.16725707 C400.7858354 33.72098998 400.7858354 33.72098998 401.89693403 34.28590941 C418.63948742 42.92294092 433.61151668 53.70362686 447.69673872 66.16725707 C448.56685591 66.92651488 449.43697309 67.6857727 450.33345747 68.46803832 C460.3375712 77.30997872 469.45867769 86.657619 477.69673872 97.16725707 C478.48693403 98.14049926 479.27712934 99.11374145 480.09126997 100.11647582 C519.3792075 149.42747773 531.49722633 212.75858112 534.69673872 274.16725707 C534.75877505 275.34005579 534.75877505 275.34005579 534.82206464 276.53654742 C536.60838745 310.49044285 537.01185596 344.40060521 536.99910014 378.39525442 C536.99723942 383.48876737 536.99913242 388.58226764 537.00330877 393.6757791 C537.00390396 394.41564213 537.00449915 395.15550516 537.00511238 395.91778828 C537.00632483 397.42353692 537.00753896 398.92928555 537.00875475 400.43503419 C537.0195087 414.40264916 537.01752789 428.37023971 537.01136991 442.33785596 C537.00622519 454.92448975 537.0174135 467.51104556 537.03646813 480.09766397 C537.05617304 493.22122309 537.06404613 506.34474599 537.06034487 519.46831989 C537.0584793 526.75579666 537.06053531 534.04320689 537.07505941 541.33067107 C537.13159793 571.58282286 536.78445086 601.78882459 535.51419793 632.01577646 C535.42643177 634.1299958 535.34287005 636.2443429 535.26031888 638.35877156 C534.65544341 653.60117792 533.58111991 668.71378964 531.73331404 683.85347533 C531.65046206 684.53384649 531.56761008 685.21421764 531.48224743 685.9152061 C526.98245061 722.35404268 517.25443953 757.77848415 499.69673872 790.16725707 C499.38027388 790.76006469 499.06380903 791.3528723 498.73775434 791.96364379 C484.33415402 818.791445 462.84571598 843.61804265 438.69673872 862.16725707 C438.13615767 862.59893188 437.57557661 863.03060668 436.99800825 863.47536254 C428.51815451 869.96483496 419.81246269 875.84965537 410.52779341 881.12624145 C408.7770967 882.12157088 407.03739316 883.13616229 405.29830122 884.15163207 C373.3717883 902.08787528 336.74857272 910.98451501 300.64180708 915.19997191 C299.90072513 915.28669937 299.15964319 915.37342682 298.39610422 915.46278238 C283.83109607 917.15054221 269.29006788 918.27337411 254.63814497 918.89381957 C253.96302594 918.923516 253.28790692 918.95321243 252.59232974 918.98380876 C199.40861785 921.31542283 146.07434276 920.61843237 92.85003324 920.55564371 C81.26724738 920.54223529 69.68455229 920.54456024 58.10176802 920.55837035 C44.40234145 920.57469827 30.7029679 920.58059761 17.00353295 920.57153356 C15.52218966 920.57057866 14.04084638 920.56963553 12.55950308 920.56870437 C11.46833762 920.56801013 11.46833762 920.56801013 10.35512842 920.56730186 C5.41042581 920.56479195 0.46575942 920.56896067 -4.47893763 920.57614303 C-35.37289615 920.61703472 -66.18569762 920.13119423 -97.04715776 918.75954223 C-97.76903531 918.72782572 -98.49091285 918.69610922 -99.23466547 918.66343161 C-128.96451697 917.35363392 -158.32760444 915.38525167 -187.30326128 908.16725707 C-188.30437944 907.9213684 -189.30549761 907.67547973 -190.33695269 907.42213988 C-212.28563716 901.9306624 -233.40013926 893.95658405 -253.30326128 883.16725707 C-253.8960689 882.85079223 -254.48887651 882.53432738 -255.099648 882.2082727 C-269.45932224 874.49869535 -282.09046098 864.90130524 -294.30326128 854.16725707 C-295.63164019 853.00710082 -295.63164019 853.00710082 -296.98685503 851.82350707 C-306.63517228 843.27398414 -315.2915046 834.26586476 -323.30326128 824.16725707 C-323.95939409 823.37835082 -324.61552691 822.58944457 -325.29154253 821.77663207 C-365.53381986 773.06654087 -378.56426259 707.98239407 -381.25370073 646.41701293 C-381.36410155 643.89270666 -381.48237289 641.36887127 -381.60208941 638.84499145 C-381.81213602 634.33434302 -381.99600713 629.82295534 -382.1755147 625.31100249 C-382.25729151 623.29853779 -382.34238648 621.28620348 -382.43174028 619.27406096 C-383.63781695 591.80667193 -383.46792205 564.3187167 -383.47051835 536.83106422 C-383.47101956 532.61376844 -383.47332616 528.39647479 -383.47601557 524.17917991 C-383.48478804 510.12731294 -383.48944082 496.07545348 -383.48868509 482.02358375 C-383.48864514 481.27218003 -383.48860518 480.5207763 -383.48856401 479.74660277 C-383.48852313 478.99423239 -383.48848225 478.24186201 -383.48844013 477.46669253 C-383.48803558 465.33377651 -383.49756587 453.2008918 -383.51170238 441.0679848 C-383.5262549 428.47389192 -383.53296228 415.87981411 -383.5321086 403.28571266 C-383.53178282 396.27013773 -383.53430367 389.25459584 -383.54528666 382.23902869 C-383.80904292 205.34047105 -383.80904292 205.34047105 -350.30326128 138.16725707 C-349.92814409 137.41138305 -349.55302691 136.65550902 -349.16654253 135.87672973 C-334.55361659 106.71945386 -312.97023552 80.31486692 -287.30326128 60.16725707 C-286.51822222 59.51499145 -285.73318316 58.86272582 -284.92435503 58.19069457 C-230.7464331 13.38457133 -159.09472506 3.75124485 -91.27263689 1.38413024 C-87.34921254 1.24536918 -83.42726981 1.08698809 -79.50513506 0.91588378 C-53.01529215 -0.16171563 -26.50673404 0.00250592 0 0 Z M-104.92826128 85.97975707 C-105.73472094 86.01982879 -106.54118059 86.0599005 -107.37207842 86.10118651 C-165.38467739 89.07923735 -215.89531049 102.67431673 -256.30326128 146.16725707 C-287.570357 180.99718495 -295.14486809 231.3957695 -297.25370073 276.41774535 C-297.36217284 278.7162196 -297.48137123 281.0139291 -297.60208941 283.31178832 C-299.41629703 319.38299362 -299.4564675 355.49716064 -299.43758678 391.60359478 C-299.43500067 398.12879846 -299.43741765 404.65400095 -299.43897295 411.1792047 C-299.44108837 422.81724553 -299.43784315 434.45527927 -299.43271361 446.09331887 C-299.42824774 456.54757483 -299.42902662 467.00181967 -299.43363237 477.45607543 C-299.43903908 489.73327795 -299.44094711 502.01047344 -299.43802011 514.28767699 C-299.43648474 520.73651334 -299.43618615 527.18534211 -299.4395566 533.63417792 C-299.45260237 562.49469801 -299.26156872 591.32134239 -298.30326128 620.16725707 C-298.26590302 621.31017526 -298.22854475 622.45309344 -298.19005442 623.63064551 C-297.99627248 629.47839835 -297.77489674 635.32315636 -297.49076128 641.16725707 C-297.45035723 641.99894408 -297.40995317 642.83063109 -297.36832476 643.68752074 C-295.45980895 681.64002688 -289.48308434 718.39013053 -271.30326128 752.16725707 C-270.75025347 753.22428832 -270.19724566 754.28131957 -269.62748003 755.37038207 C-250.14920524 790.88685448 -214.29754928 812.89367427 -176.59378862 824.29591918 C-154.80426747 830.54781674 -131.91803882 833.04434428 -109.33573198 834.11769652 C-107.05689677 834.22659661 -104.77877269 834.34555226 -102.50052691 834.4660852 C-67.43980414 836.25589677 -32.36990825 836.33099735 2.72687912 836.33451414 C6.78729209 836.33501705 10.84770286 836.33732836 14.90811491 836.34001136 C28.45734699 836.34877472 42.0065713 836.35343804 55.55580623 836.35268088 C56.27891063 836.35264093 57.00201503 836.35260097 57.74703169 836.3525598 C58.47107578 836.35251892 59.19511987 836.35247804 59.9411047 836.35243592 C71.61052662 836.35203158 83.27991596 836.3615589 94.9493285 836.37569817 C107.08934373 836.39028493 119.22934332 836.39695629 131.36936748 836.3961044 C138.12125418 836.39577975 144.87309948 836.39840307 151.62498045 836.40928245 C179.35221026 836.45073759 207.04378014 836.22204957 234.75679731 835.27785277 C235.92868203 835.2389689 237.10056675 835.20008503 238.30796313 835.16002285 C271.33214947 834.08139111 271.33214947 834.08139111 304.07173872 829.91725707 C305.31939009 829.7010974 306.56704145 829.48493773 307.85250044 829.26222777 C336.08699019 824.17043507 364.25170974 814.48147634 386.69673872 796.16725707 C387.54582808 795.4784143 387.54582808 795.4784143 388.41207075 794.77565551 C428.29040192 762.22413758 444.01229617 716.38427638 449.29439497 666.39870238 C450.04766436 658.79538946 450.48658048 651.17121891 450.88423872 643.54225707 C450.92116835 642.83826781 450.95809797 642.13427855 450.99614668 641.40895629 C451.28658238 635.6636832 451.49137169 629.91609593 451.69673872 624.16725707 C451.73726834 623.07158731 451.77779797 621.97591754 451.81955576 620.84704566 C452.8491542 592.13513424 452.86114307 563.42764897 452.86399579 534.70032692 C452.86449858 530.60440969 452.86680953 526.50849465 452.86949301 522.41257834 C452.87825634 508.74760556 452.88291964 495.08264048 452.88216253 481.41766486 C452.88212258 480.68832375 452.88208262 479.95898263 452.88204145 479.20754027 C452.88200057 478.47725264 452.88195969 477.74696501 452.88191757 476.99454745 C452.88151312 465.22098567 452.8910434 453.44745617 452.90517982 441.67390368 C452.91975993 429.42880215 452.9264383 417.1837161 452.92558604 404.93860573 C452.9252612 398.12694743 452.92789342 391.31532791 452.9387641 384.50367713 C452.97975025 356.82692279 452.76656011 329.18559179 451.80733442 301.52345824 C451.76845055 300.37176984 451.72956668 299.22008145 451.6895045 298.0334934 C450.96626385 277.15733037 450.12077119 256.08907407 446.94673872 235.41725707 C446.77754927 234.30785766 446.60835981 233.19845824 446.43404341 232.05544066 C440.44024379 194.86300908 425.82424393 161.61657465 398.69673872 135.16725707 C397.81888716 134.22172973 397.81888716 134.22172973 396.92330122 133.25710082 C362.7473343 97.23893494 308.72081643 88.42811775 261.3913188 86.21681762 C259.08187256 86.108174 256.77316383 85.98906069 254.46431684 85.86842895 C218.66217458 84.07308518 182.82814109 84.01436624 146.99086833 84.03293157 C141.08322755 84.03525156 135.17558863 84.03345509 129.26794779 84.03200437 C116.85446632 84.02918312 104.44099236 84.03238295 92.02751213 84.03780474 C81.48259889 84.04226861 70.93769668 84.04149365 60.39278364 84.03688598 C48.01156845 84.03147809 35.63035975 84.02945858 23.24914354 84.03249824 C16.74492803 84.03403337 10.24072002 84.03433297 3.73650503 84.03096175 C-32.49322848 84.01472164 -68.73466141 84.16082617 -104.92826128 85.97975707 Z " fill="#D25487" transform="translate(435.3032612800598,51.83274292945862)"/>
<path d="M0 0 C5.85281712 5.80118014 11.1498841 11.94320258 16.20947266 18.44604492 C16.70592285 19.07140137 17.20237305 19.69675781 17.71386719 20.34106445 C25.35810849 29.9704649 32.24479922 39.69438588 38.20947266 50.44604492 C38.60730957 51.14890625 39.00514648 51.85176758 39.41503906 52.57592773 C70.22195272 107.26631289 76.97156294 172.13668951 60.20947266 232.44604492 C51.72379995 262.75761167 37.23345609 291.13391369 17.20947266 315.44604492 C16.76168457 315.99534668 16.31389648 316.54464844 15.85253906 317.1105957 C4.9245852 330.4467257 -7.04467492 342.99012141 -20.79052734 353.44604492 C-21.3201709 353.85741699 -21.84981445 354.26878906 -22.39550781 354.69262695 C-71.75112317 392.92943645 -134.04904381 410.04594742 -195.9921875 402.80541992 C-256.37644533 395.05061033 -314.07151003 364.79861499 -351.79052734 316.44604492 C-352.57943359 315.46249023 -353.36833984 314.47893555 -354.18115234 313.46557617 C-393.8225656 263.62550128 -409.95607696 200.34905591 -402.79052734 137.44604492 C-394.67482837 75.39138162 -362.21311466 18.32532899 -312.66552734 -20.05395508 C-276.90404909 -47.19816084 -234.55346998 -64.26956575 -189.79052734 -68.55395508 C-188.52853516 -68.67770508 -187.26654297 -68.80145508 -185.96630859 -68.92895508 C-116.72912825 -74.79330642 -49.36112474 -47.92845953 0 0 Z M-271.79052734 55.44604492 C-272.33451172 55.94475098 -272.87849609 56.44345703 -273.43896484 56.95727539 C-303.7211001 85.11575151 -318.63844716 123.96945974 -320.91943359 164.75073242 C-321.91100691 202.95935741 -307.26760854 242.09268547 -281.18115234 269.95776367 C-280.39224609 270.77889648 -279.60333984 271.6000293 -278.79052734 272.44604492 C-277.89849609 273.40124023 -277.00646484 274.35643555 -276.08740234 275.34057617 C-264.96239893 287.04374722 -252.0628323 295.9761303 -237.79052734 303.44604492 C-236.63294922 304.0519043 -235.47537109 304.65776367 -234.28271484 305.28198242 C-199.28271383 322.89876081 -157.04875178 325.14507231 -119.99365234 312.91088867 C-93.52312898 303.7227068 -68.62563534 288.38546647 -50.79052734 266.44604492 C-50.02998047 265.52307617 -49.26943359 264.60010742 -48.48583984 263.64916992 C-28.67063956 239.09130232 -15.8301291 207.17649862 -14.79052734 175.44604492 C-14.75056641 174.25237305 -14.71060547 173.05870117 -14.66943359 171.82885742 C-13.92142981 137.72072986 -24.36670397 103.78702772 -44.79052734 76.44604492 C-45.67417969 75.22594727 -45.67417969 75.22594727 -46.57568359 73.98120117 C-71.03740865 41.67021929 -108.02987381 21.49260747 -147.82421875 15.70727539 C-152.80304185 15.04582261 -157.77447505 14.66324881 -162.79052734 14.44604492 C-163.56783203 14.40479492 -164.34513672 14.36354492 -165.14599609 14.32104492 C-204.49141447 13.23752221 -243.06076149 29.10750653 -271.79052734 55.44604492 Z " fill="#EA4872" transform="translate(679.79052734375,344.553955078125)"/>
<path d="M0 0 C12.40379312 9.14056042 20.34015352 21.86519646 23 37 C24.75010284 52.37492694 21.445587 67.38447872 11.85546875 79.76953125 C9.64950004 82.27614306 7.37948998 84.6582132 5 87 C4.4121875 87.58652344 3.824375 88.17304688 3.21875 88.77734375 C-6.43572732 97.72595127 -19.37398382 101.59024136 -32.3125 101.4375 C-33.22821777 101.42920166 -34.14393555 101.42090332 -35.08740234 101.41235352 C-47.53780715 101.10378377 -56.97673486 97.30728362 -67 90 C-67.63421875 89.56171875 -68.2684375 89.1234375 -68.921875 88.671875 C-78.87777577 81.09077625 -85.94173276 68.1974466 -88 56 C-89.85757486 38.91793567 -86.68943284 24.07444032 -75.96484375 10.40625 C-56.25017574 -12.68112135 -25.20290569 -16.26300707 0 0 Z " fill="#E932B7" transform="translate(790,221)"/>
<path d="M0 0 C1.98 1.32 3.96 2.64 6 4 C6.99 3.34 7.98 2.68 9 2 C9.66 2.33 10.32 2.66 11 3 C11 4.65 11 6.3 11 8 C11.66 8 12.32 8 13 8 C13.33 8.99 13.66 9.98 14 11 C12 11 10 11 8 11 C7.34 12.32 6.68 13.64 6 15 C3.88029925 11.50872818 3.88029925 11.50872818 4.5 8.875 C4.665 8.25625 4.83 7.6375 5 7 C4.34 6.34 3.68 5.68 3 5 C-0.87797662 4.56613908 -0.87797662 4.56613908 -2.75 6.5 C-3.1625 6.995 -3.575 7.49 -4 8 C-4.33 7.01 -4.66 6.02 -5 5 C-3.35 3.35 -1.7 1.7 0 0 Z " fill="#9F21D5" transform="translate(453,110)"/>
<path d="M0 0 C0.99 0.33 1.98 0.66 3 1 C3.33 1.99 3.66 2.98 4 4 C4.99 4 5.98 4 7 4 C6.67 5.32 6.34 6.64 6 8 C6.66 8.33 7.32 8.66 8 9 C7.67 10.98 7.34 12.96 7 15 C4.83125748 14.49396008 3.00032373 14.00016187 1 13 C0.5859375 10.93359375 0.5859375 10.93359375 0.375 8.4375 C0.30023438 7.61121094 0.22546875 6.78492187 0.1484375 5.93359375 C0.09945313 5.29550781 0.05046875 4.65742187 0 4 C-1.98 4.99 -1.98 4.99 -4 6 C-4.33 5.01 -4.66 4.02 -5 3 C-2.6875 1.4375 -2.6875 1.4375 0 0 Z " fill="#871CDC" transform="translate(412,94)"/>
<path d="M0 0 C4.75 0.875 4.75 0.875 7 2 C6.67 3.98 6.34 5.96 6 8 C5.38125 7.79375 4.7625 7.5875 4.125 7.375 C3.42375 7.25125 2.7225 7.1275 2 7 C1.34 7.66 0.68 8.32 0 9 C-1.59440475 5.81119049 -0.90786761 3.29102008 0 0 Z " fill="#BB31E9" transform="translate(132,317)"/>
<path d="M0 0 C1.98 0.99 1.98 0.99 4 2 C5.32940404 5.98821211 4.43803613 8.11730245 3 12 C2.01 12.33 1.02 12.66 0 13 C0 8.71 0 4.42 0 0 Z " fill="#C032F0" transform="translate(55,313)"/>
<path d="M0 0 C0.66 0.33 1.32 0.66 2 1 C1.67 1.66 1.34 2.32 1 3 C1.66 3.66 2.32 4.32 3 5 C1.68 6.32 0.36 7.64 -1 9 C-2.98 8.34 -4.96 7.68 -7 7 C-4.66666667 4.66666667 -2.33333333 2.33333333 0 0 Z " fill="#E936AD" transform="translate(365,326)"/>
<path d="M0 0 C0.66 0 1.32 0 2 0 C3.41687119 4.25061356 2.19320039 6.71851625 1 11 C0.401875 10.835 -0.19625 10.67 -0.8125 10.5 C-3.11344336 9.8885876 -3.11344336 9.8885876 -6 10 C-4.75 7.5 -4.75 7.5 -3 5 C-1.68 5 -0.36 5 1 5 C0.67 3.35 0.34 1.7 0 0 Z " fill="#E9358F" transform="translate(959,765)"/>
<path d="M0 0 C0.82638376 2.89234315 1 4.88742431 1 8 C-0.875 10.25 -0.875 10.25 -3 12 C-3.66 12 -4.32 12 -5 12 C-4.54738642 10.56068883 -4.08767021 9.12361001 -3.625 7.6875 C-3.24214844 6.48673828 -3.24214844 6.48673828 -2.8515625 5.26171875 C-2 3 -2 3 0 0 Z " fill="#E93B8B" transform="translate(300,407)"/>
<path d="M0 0 C0.66 0.33 1.32 0.66 2 1 C2 1.66 2 2.32 2 3 C-0.30276574 5.21747812 -1.52480092 5.96760006 -4.75 6.1875 C-5.86375 6.0946875 -5.86375 6.0946875 -7 6 C-7 4.68 -7 3.36 -7 2 C-5.68 2 -4.36 2 -3 2 C-2.01 1.34 -1.02 0.68 0 0 Z " fill="#EA37A1" transform="translate(351,357)"/>
<path d="M0 0 C0.66 0.33 1.32 0.66 2 1 C2.38218767 2.65614657 2.71395102 4.32457024 3 6 C3.33 6.66 3.66 7.32 4 8 C3.34 8 2.68 8 2 8 C1.67 8.66 1.34 9.32 1 10 C-0.32 9.34 -1.64 8.68 -3 8 C-2.34 7.67 -1.68 7.34 -1 7 C-0.59270772 4.67843403 -0.25561323 2.3431213 0 0 Z M-5 8 C-4.01 8.495 -4.01 8.495 -3 9 C-3.99 9.495 -3.99 9.495 -5 10 C-5 9.34 -5 8.68 -5 8 Z " fill="#901ED9" transform="translate(442,98)"/>
<path d="M0 0 C2 1 2 1 3.1875 3.4375 C4 6 4 6 3 8 C1.35 7.67 -0.3 7.34 -2 7 C-2 5.02 -2 3.04 -2 1 C-1.34 0.67 -0.68 0.34 0 0 Z " fill="#9D21D8" transform="translate(422,122)"/>
<path d="M0 0 C2.31 0 4.62 0 7 0 C6.1875 1.9375 6.1875 1.9375 5 4 C4.01 4.33 3.02 4.66 2 5 C2 5.66 2 6.32 2 7 C0.68 6.34 -0.64 5.68 -2 5 C-1.34 3.35 -0.68 1.7 0 0 Z " fill="#7317DC" transform="translate(473,52)"/>
<path d="M0 0 C0.99 0.66 1.98 1.32 3 2 C2.67 3.65 2.34 5.3 2 7 C0.68 7.33 -0.64 7.66 -2 8 C-2.6875 5.6875 -2.6875 5.6875 -3 3 C-1.5625 1.1875 -1.5625 1.1875 0 0 Z " fill="#A622DC" transform="translate(626,66)"/>
<path d="M0 0 C0.33 0.66 0.66 1.32 1 2 C1.99 2 2.98 2 4 2 C4 2.66 4 3.32 4 4 C3.34 4 2.68 4 2 4 C2 5.98 2 7.96 2 10 C1.01 10.33 0.02 10.66 -1 11 C-1.14285714 3.57142857 -1.14285714 3.57142857 0 0 Z " fill="#B230F5" transform="translate(57,294)"/>
<path d="M0 0 C2.475 0.99 2.475 0.99 5 2 C5 3.32 5 4.64 5 6 C3.02 5.34 1.04 4.68 -1 4 C-0.67 2.68 -0.34 1.36 0 0 Z M-1 5 C-0.34 5 0.32 5 1 5 C0.67 5.99 0.34 6.98 0 8 C-0.33 7.01 -0.66 6.02 -1 5 Z " fill="#E93D8D" transform="translate(102,454)"/>
<path d="M0 0 C0.391875 0.515625 0.78375 1.03125 1.1875 1.5625 C0.1875 2.5625 0.1875 2.5625 -2.09765625 2.66015625 C-3.47244141 2.64275391 -3.47244141 2.64275391 -4.875 2.625 C-5.79410156 2.61597656 -6.71320313 2.60695312 -7.66015625 2.59765625 C-8.37042969 2.58605469 -9.08070313 2.57445312 -9.8125 2.5625 C-6.96566957 -0.49949785 -3.82274683 -3.03183369 0 0 Z " fill="#9E22D8" transform="translate(411.8125,133.4375)"/>
<path d="M0 0 C0.99 0.33 1.98 0.66 3 1 C2.67 2.65 2.34 4.3 2 6 C1.01 6.33 0.02 6.66 -1 7 C-1.625 4.625 -1.625 4.625 -2 2 C-1.34 1.34 -0.68 0.68 0 0 Z " fill="#961FD9" transform="translate(424,113)"/>
<path d="M0 0 C0.99 0.33 1.98 0.66 3 1 C2.67 2.98 2.34 4.96 2 7 C1.01 6.67 0.02 6.34 -1 6 C-1.33 4.35 -1.66 2.7 -2 1 C-1.34 0.67 -0.68 0.34 0 0 Z " fill="#A122D7" transform="translate(436,123)"/>
<path d="M0 0 C0.33 0.66 0.66 1.32 1 2 C1.66 2.33 2.32 2.66 3 3 C-3.625 6 -3.625 6 -7 6 C-6.67 5.01 -6.34 4.02 -6 3 C-4.02 2.67 -2.04 2.34 0 2 C0 1.34 0 0.68 0 0 Z " fill="#EA389B" transform="translate(336,376)"/>
<path d="M0 0 C0.33 0.66 0.66 1.32 1 2 C0.67 2.99 0.34 3.98 0 5 C-0.66 5 -1.32 5 -2 5 C-2 5.66 -2 6.32 -2 7 C-2.66 7 -3.32 7 -4 7 C-4.33 5.35 -4.66 3.7 -5 2 C-3.35 1.34 -1.7 0.68 0 0 Z " fill="#821AD9" transform="translate(486,67)"/>
<path d="M0 0 C0.66 0.33 1.32 0.66 2 1 C1.67 1.763125 1.34 2.52625 1 3.3125 C-0.17436686 5.99069135 -0.17436686 5.99069135 0 9 C-1.32 8.34 -2.64 7.68 -4 7 C-2.68 4.69 -1.36 2.38 0 0 Z " fill="#AB2EF4" transform="translate(124,284)"/>
<path d="M0 0 C0.33 0.99 0.66 1.98 1 3 C-1.17424117 5.50037734 -2.73045798 6.43628586 -6 7 C-5.75 5.125 -5.75 5.125 -5 3 C-3 1.8125 -3 1.8125 -1 1 C-0.67 0.67 -0.34 0.34 0 0 Z " fill="#7918DB" transform="translate(450,68)"/>
<path d="M0 0 C2 1 2 1 2.8125 2.875 C3 5 3 5 1.5625 6.75 C1.046875 7.1625 0.53125 7.575 0 8 C-0.66 7.67 -1.32 7.34 -2 7 C-1.34 4.69 -0.68 2.38 0 0 Z " fill="#E23AAB" transform="translate(122,422)"/>
<path d="M0 0 C0.66 0.33 1.32 0.66 2 1 C2 1.66 2 2.32 2 3 C1.34 3 0.68 3 0 3 C-0.33 4.32 -0.66 5.64 -1 7 C-3 6 -3 6 -5 3 C-2.625 1.4375 -2.625 1.4375 0 0 Z " fill="#9F20D5" transform="translate(518,98)"/>
<path d="M0 0 C0.33 0 0.66 0 1 0 C1 2.31 1 4.62 1 7 C0.01 7.495 0.01 7.495 -1 8 C-1.99 6.35 -2.98 4.7 -4 3 C-2.68 2.67 -1.36 2.34 0 2 C0 1.34 0 0.68 0 0 Z " fill="#E13AAC" transform="translate(135,417)"/>
<path d="M0 0 C2.475 0.99 2.475 0.99 5 2 C4.34 3.32 3.68 4.64 3 6 C2.34 6 1.68 6 1 6 C0.67 4.02 0.34 2.04 0 0 Z " fill="#931ED8" transform="translate(502,81)"/>
<path d="M0 0 C2.33944736 0.28730055 4.6739143 0.61936779 7 1 C5.8125 2.5 5.8125 2.5 4 4 C1.3125 4.1875 1.3125 4.1875 -1 4 C-1 1 -1 1 0 0 Z " fill="#AB23DC" transform="translate(660,68)"/>
<path d="M0 0 C1.9375 0.3125 1.9375 0.3125 4 1 C4.33 1.99 4.66 2.98 5 4 C3.35 3.67 1.7 3.34 0 3 C0 2.01 0 1.02 0 0 Z " fill="#E83584" transform="translate(943,749)"/>
<path d="M0 0 C0.66 0 1.32 0 2 0 C2.33 1.32 2.66 2.64 3 4 C1.35 4.66 -0.3 5.32 -2 6 C-1.49396008 3.83125748 -1.00016187 2.00032373 0 0 Z " fill="#E93C92" transform="translate(96,452)"/>
<path d="M0 0 C-0.33 1.98 -0.66 3.96 -1 6 C-2.32 5.67 -3.64 5.34 -5 5 C-4.625 3.0625 -4.625 3.0625 -4 1 C-2 0 -2 0 0 0 Z " fill="#A72EF6" transform="translate(70,281)"/>
<path d="M0 0 C0.99 0.99 1.98 1.98 3 3 C2 4 2 4 -1.0625 4.0625 C-2.5165625 4.0315625 -2.5165625 4.0315625 -4 4 C-4 3.34 -4 2.68 -4 2 C-2.68 1.34 -1.36 0.68 0 0 Z " fill="#8220EF" transform="translate(292,138)"/>
<path d="M0 0 C0.99 0.33 1.98 0.66 3 1 C2.34 2.65 1.68 4.3 1 6 C0.01 6 -0.98 6 -2 6 C-2.33 5.01 -2.66 4.02 -3 3 C-2.01 2.67 -1.02 2.34 0 2 C0 1.34 0 0.68 0 0 Z " fill="#8F20E3" transform="translate(358,130)"/>
<path d="M0 0 C0.66 1.32 1.32 2.64 2 4 C0.35 4 -1.3 4 -3 4 C-3 4.66 -3 5.32 -3 6 C-3.99 6.33 -4.98 6.66 -6 7 C-6 6.01 -6 5.02 -6 4 C-4.7934375 3.566875 -4.7934375 3.566875 -3.5625 3.125 C-0.8673532 2.26737432 -0.8673532 2.26737432 0 0 Z " fill="#881CDB" transform="translate(460,80)"/>
<path d="M0 0 C1.32 0.33 2.64 0.66 4 1 C4 1.99 4 2.98 4 4 C2.02 4.99 2.02 4.99 0 6 C0 4.02 0 2.04 0 0 Z " fill="#E93489" transform="translate(954,754)"/>
<path d="M0 0 C2.89932357 2.39509338 3.50168276 4.31245243 4 8 C3.01 8.33 2.02 8.66 1 9 C0.67 8.34 0.34 7.68 0 7 C0.66 7 1.32 7 2 7 C1.505 5.824375 1.505 5.824375 1 4.625 C0 2 0 2 0 0 Z " fill="#DB38C4" transform="translate(123,391)"/>
<path d="M0 0 C0.99 0.66 1.98 1.32 3 2 C1.35 3.65 -0.3 5.3 -2 7 C-2.33 6.01 -2.66 5.02 -3 4 C-1.5625 1.8125 -1.5625 1.8125 0 0 Z " fill="#941FDB" transform="translate(408,116)"/>
<path d="M0 0 C-4.625 3 -4.625 3 -8 3 C-7.67 2.01 -7.34 1.02 -7 0 C-4.05610218 -1.17755913 -3.10046087 -1.03348696 0 0 Z " fill="#A121DB" transform="translate(586,77)"/>
<path d="M0 0 C1.32 0 2.64 0 4 0 C3.67 1.65 3.34 3.3 3 5 C1.68 3.68 0.36 2.36 -1 1 C-0.67 0.67 -0.34 0.34 0 0 Z " fill="#A522DE" transform="translate(660,53)"/>
</svg>
