<?xml version="1.0" encoding="UTF-8"?>
<svg version="1.1" xmlns="http://www.w3.org/2000/svg" width="1024" height="1024">
<path d="M0 0 C1.90716545 -0.01058945 1.90716545 -0.01058945 3.8528595 -0.02139282 C7.93706841 -0.04092884 12.02121749 -0.04608509 16.10546875 -0.046875 C16.80170097 -0.04716957 17.4979332 -0.04746414 18.21526337 -0.04776764 C39.05367791 -0.04919242 59.63433834 0.15646578 80.29296875 3.203125 C80.98406738 3.30258423 81.67516602 3.40204346 82.38720703 3.5045166 C132.56876526 10.73420479 181.05360986 24.26246239 227.29296875 45.203125 C228.31116699 45.66332031 229.32936523 46.12351563 230.37841797 46.59765625 C264.92623256 62.3481462 297.54485094 82.62836311 327.29296875 106.203125 C328.13601563 106.86441406 328.9790625 107.52570313 329.84765625 108.20703125 C343.49988465 119.00232368 356.70839627 130.3850693 368.88671875 142.83203125 C370.41167373 144.37060914 370.41167373 144.37060914 372.79296875 146.140625 C375.6706089 148.51467812 377.92323294 151.1644563 380.33984375 153.99609375 C382.40586524 156.33069803 384.57183039 158.51598365 386.79296875 160.703125 C390.84117016 164.71043549 394.60603177 168.86422965 398.29296875 173.203125 C399.0921875 174.12480469 399.89140625 175.04648438 400.71484375 175.99609375 C459.04431055 243.60451536 497.28930275 326.9664336 519.29296875 454.203125 C519.42118263 455.32859741 519.42118263 455.32859741 519.55198669 456.47680664 C520.43672249 464.94099292 520.49377845 473.3907576 520.53125 481.890625 C520.53532553 482.68635925 520.53940105 483.48209351 520.54360008 484.30194092 C520.56437332 488.53739141 520.57869655 492.77281062 520.58813477 497.00830078 C520.59687243 500.42873629 520.61746233 503.84874917 520.6496582 507.26904297 C521.15256237 561.96141593 512.0652571 615.4478789 494.29296875 667.203125 C493.98955566 668.10047363 493.68614258 668.99782227 493.37353516 669.92236328 C472.03085176 732.66040779 437.19372793 789.7777759 393.29296875 839.203125 C392.58527344 840.00363281 391.87757813 840.80414062 391.1484375 841.62890625 C386.9003362 846.39806937 382.54799308 850.99349894 377.9921875 855.46875 C376.16280821 857.27110311 376.16280821 857.27110311 374.29296875 859.765625 C371.94726068 862.62445671 369.3071798 864.85426214 366.5 867.25 C363.4401435 869.95783761 360.6058137 872.86526944 357.76171875 875.796875 C327.91433603 904.88862778 291.92256292 928.1226932 255.48242188 948.00195312 C253.47839631 949.10139623 251.48646443 950.21984983 249.49609375 951.34375 C226.3968009 964.19394485 201.33455804 973.9170086 176.29296875 982.203125 C175.2138623 982.56100098 174.13475586 982.91887695 173.02294922 983.28759766 C128.76388015 997.79559086 81.30835356 1007.23309909 34.5859375 1007.40625 C33.31449387 1007.41330963 32.04305023 1007.42036926 30.733078 1007.42764282 C26.64886909 1007.44717884 22.56472001 1007.45233509 18.48046875 1007.453125 C17.78423653 1007.45341957 17.0880043 1007.45371414 16.37067413 1007.45401764 C-4.46774041 1007.45544242 -25.04840084 1007.24978422 -45.70703125 1004.203125 C-46.39812988 1004.10366577 -47.08922852 1004.00420654 -47.80126953 1003.9017334 C-97.98282776 996.67204521 -146.46767236 983.14378761 -192.70703125 962.203125 C-193.72522949 961.74292969 -194.74342773 961.28273438 -195.79248047 960.80859375 C-230.28660601 945.08258086 -263.08500791 924.86604731 -292.70703125 901.203125 C-293.66585205 900.43935547 -293.66585205 900.43935547 -294.64404297 899.66015625 C-302.12042932 893.6889755 -309.49622451 887.65357359 -316.546875 881.1796875 C-318.58818541 879.31187002 -320.66891748 877.50365109 -322.76953125 875.703125 C-326.59473853 872.38123446 -330.12622756 868.80344106 -333.6796875 865.1953125 C-335.73138638 863.10583068 -335.73138638 863.10583068 -338.33203125 861.140625 C-341.17223032 858.8236205 -343.37913096 856.19277338 -345.75390625 853.41015625 C-347.81992774 851.07555197 -349.98589289 848.89026635 -352.20703125 846.703125 C-356.25507975 842.69596588 -360.02189933 838.54339149 -363.70703125 834.203125 C-364.54105469 833.23503906 -365.37507813 832.26695312 -366.234375 831.26953125 C-385.1775984 809.19946168 -402.04411085 785.31229165 -416.70703125 760.203125 C-417.15804199 759.43790527 -417.60905273 758.67268555 -418.07373047 757.88427734 C-432.01506659 734.18919912 -443.51048189 709.6962546 -453.70703125 684.203125 C-454.09874512 683.22698242 -454.49045898 682.25083984 -454.89404297 681.24511719 C-467.8983691 648.40154939 -476.00041238 613.34105945 -481.51953125 578.515625 C-481.71458252 577.28884033 -481.90963379 576.06205566 -482.1105957 574.7980957 C-482.69273831 570.93880092 -483.21456366 567.07460741 -483.70703125 563.203125 C-483.79992432 562.50791748 -483.89281738 561.81270996 -483.98852539 561.09643555 C-486.20258416 544.01574053 -486.08194299 526.83485465 -486.07763672 509.64355469 C-486.0774754 506.29144423 -486.09119515 502.93988753 -486.11865234 499.58789062 C-486.37014701 468.38860546 -483.96732272 437.8294042 -477.70703125 407.203125 C-477.47677246 406.07116699 -477.24651367 404.93920898 -477.00927734 403.77294922 C-458.81522338 315.89157344 -418.29076783 235.28503966 -358.70703125 168.203125 C-357.99933594 167.40261719 -357.29164063 166.60210937 -356.5625 165.77734375 C-352.3143987 161.00818063 -347.96205558 156.41275106 -343.40625 151.9375 C-341.57687071 150.13514689 -341.57687071 150.13514689 -339.70703125 147.640625 C-337.36132318 144.78179329 -334.7212423 142.55198786 -331.9140625 140.15625 C-329.57945822 138.09022851 -327.3941726 135.92426336 -325.20703125 133.703125 C-321.19966208 129.65486431 -317.04539695 125.89073584 -312.70703125 122.203125 C-311.77375 121.39230469 -310.84046875 120.58148438 -309.87890625 119.74609375 C-302.13062902 113.0506843 -294.09235921 106.82264539 -285.83691406 100.76660156 C-284.40400761 99.7147523 -282.97370693 98.65934497 -281.54589844 97.60058594 C-270.26626613 89.2376664 -258.70015022 81.50507549 -246.70703125 74.203125 C-246.01319336 73.77966797 -245.31935547 73.35621094 -244.60449219 72.91992188 C-172.01090801 28.85397516 -85.56914232 0.31711492 0 0 Z " fill="#F96854" transform="translate(494.70703125,8.796875)"/>
<path d="M0 0 C2.58450041 0.00314799 5.16783828 -0.02034394 7.75219727 -0.0456543 C23.5655111 -0.10799931 38.49428945 2.06723944 53.60571289 6.81567383 C54.69730713 7.15679199 55.78890137 7.49791016 56.91357422 7.84936523 C78.98777474 15.0283041 98.41853619 26.1546636 115.91821289 41.31567383 C116.74708008 42.02208008 117.57594727 42.72848633 118.42993164 43.45629883 C134.60840837 57.57754382 147.07951701 74.29196845 156.91821289 93.31567383 C157.23242188 93.91814941 157.54663086 94.520625 157.87036133 95.14135742 C170.28779587 119.29373144 175.24903567 144.17354673 175.35571289 171.12817383 C175.36206757 171.95130066 175.36842224 172.77442749 175.37496948 173.62249756 C175.43042606 185.17964823 174.26003232 196.00720793 171.91821289 207.31567383 C171.64472847 208.73380896 171.37291503 210.15226736 171.1027832 211.57104492 C165.27234954 241.28339217 148.70790843 268.67533608 127.91821289 290.31567383 C127.45366699 290.81131836 126.98912109 291.30696289 126.51049805 291.81762695 C110.41306945 308.95074527 91.1157584 320.99788015 69.73071289 330.50805664 C68.25504127 331.1655892 66.78832149 331.84318337 65.32446289 332.52661133 C56.63194155 336.35254501 47.1554487 338.27270547 37.91821289 340.31567383 C37.16427246 340.48518555 36.41033203 340.65469727 35.63354492 340.8293457 C-6.92808346 350.01846323 -52.90286514 339.81433518 -89.24487305 316.52563477 C-99.18360881 309.97906719 -108.20497204 302.21538784 -117.08178711 294.31567383 C-118.09885742 293.41075195 -118.09885742 293.41075195 -119.13647461 292.48754883 C-148.55045465 264.621673 -166.7461068 220.66418468 -168.36303711 180.60473633 C-168.79980418 161.9846663 -167.47786991 142.22378925 -162.08178711 124.31567383 C-161.87634277 123.62328613 -161.67089844 122.93089844 -161.45922852 122.2175293 C-155.4353359 102.36844682 -146.01684904 83.56585383 -133.08178711 67.31567383 C-132.65575195 66.7782959 -132.2297168 66.24091797 -131.79077148 65.68725586 C-111.22008471 39.95865984 -84.61135475 19.53722942 -53.08178711 9.31567383 C-52.29545898 9.04239258 -51.50913086 8.76911133 -50.69897461 8.48754883 C-46.28174448 6.95537306 -41.81013554 5.59470552 -37.33178711 4.25317383 C-36.26444336 3.93219727 -35.19709961 3.6112207 -34.09741211 3.28051758 C-22.7971064 0.38655501 -11.59199642 -0.02939644 0 0 Z " fill="#FEFEFE" transform="translate(595.081787109375,283.684326171875)"/>
<path d="M0 0 C27.72 0 55.44 0 84 0 C84 151.47 84 302.94 84 459 C56.28 459 28.56 459 0 459 C0 307.53 0 156.06 0 0 Z " fill="#FEFEFE" transform="translate(293,283)"/>
</svg>
