<?xml version="1.0" encoding="UTF-8"?>
<svg version="1.1" xmlns="http://www.w3.org/2000/svg" width="1024" height="1024">
<path d="M0 0 C2.3038977 -0.00528267 4.60775057 -0.01475841 6.91163254 -0.02463913 C33.31179872 -0.11303868 59.29618496 1.63513085 85.34745407 6.18211746 C86.08617752 6.30839523 86.82490097 6.434673 87.58600998 6.56477737 C176.28985874 21.7839377 261.47627825 61.06986486 329.34745407 120.43211746 C330.07706345 121.06246902 330.80667282 121.69282059 331.55839157 122.34227371 C333.49952652 124.02638091 335.42356382 125.72834881 337.34745407 127.43211746 C338.02179489 128.02162186 338.69613571 128.61112625 339.3909111 129.21849442 C346.56620156 135.56669531 353.34626228 142.27813509 360.10746384 149.06175613 C362.03854954 150.99822295 363.97495289 152.92925703 365.9119072 154.85985184 C371.93467992 160.87904456 377.88193728 166.8941001 383.34745407 173.43211746 C384.25931154 174.48888685 385.17204032 175.54490517 386.08573532 176.60008621 C414.12252447 209.48694208 437.05901363 245.81158346 456.34745407 284.43211746 C456.77751755 285.28434891 457.20758102 286.13658035 457.65067673 287.01463699 C483.60056961 338.66850288 498.15532258 396.15135068 504.34745407 453.43211746 C504.43325729 454.19384262 504.51906052 454.95556778 504.60746384 455.74037552 C506.3663939 471.61971368 506.74839649 487.40153758 506.72245407 503.36961746 C506.72163834 505.27023437 506.72163834 505.27023437 506.72080612 507.20924759 C506.67769727 529.17320619 505.55735808 550.70399408 502.34745407 572.43211746 C502.23619186 573.1884346 502.12492966 573.94475174 502.01029587 574.72398758 C490.68179582 650.90433678 463.68788652 725.1103355 419.34745407 788.43211746 C418.95429001 788.99576004 418.56112595 789.55940262 418.15604782 790.14012527 C415.26673174 794.27203308 412.32169505 798.36101642 409.34745407 802.43211746 C408.88081345 803.07294266 408.41417282 803.71376785 407.93339157 804.37401199 C400.81871149 814.11151699 393.31051796 823.37847329 385.34745407 832.43211746 C384.6900322 833.19008621 384.03261032 833.94805496 383.35526657 834.72899246 C381.69670035 836.63978304 380.02315597 838.53634386 378.34745407 840.43211746 C377.75778854 841.10589432 377.16812302 841.77967117 376.56058884 842.47386551 C370.25182117 849.59627451 363.60928629 856.35645126 356.88261032 863.08226395 C354.97735903 864.98970686 353.08027795 866.90503213 351.18339157 868.82078934 C344.92008516 875.11220561 338.62746157 881.11099518 331.64237595 886.60472488 C329.41179418 888.38088494 327.3127776 890.24410123 325.22245407 892.18211746 C318.30794505 898.39282825 310.77443062 903.85723791 303.34745407 909.43211746 C302.71533005 909.91084305 302.08320602 910.38956863 301.43192673 910.88280106 C228.0747926 966.39897493 140.18879563 997.42407124 49.34745407 1007.43211746 C48.31604294 1007.55216141 47.28463181 1007.67220535 46.22196579 1007.79588699 C12.56010831 1011.6274572 -22.05709692 1010.34877282 -55.65254593 1006.43211746 C-56.86039749 1006.29289871 -58.06824905 1006.15367996 -59.31270218 1006.01024246 C-149.08257739 995.27364609 -236.66432943 959.63531266 -312.65254593 899.43211746 C-313.58711624 898.68188309 -314.52168655 897.93164871 -315.48457718 897.15867996 C-335.1893097 881.17563191 -335.1893097 881.17563191 -343.86738968 872.22117996 C-345.70403591 870.38051481 -347.61610538 868.6865665 -349.59004593 866.99461746 C-356.10502087 861.37385477 -362.05337119 855.24725063 -367.64863968 848.71727371 C-369.70894404 846.36780383 -371.82627012 844.0826093 -373.95943069 841.7995491 C-379.79683803 835.54589818 -385.34779236 829.14923014 -390.65254593 822.43211746 C-391.42187454 821.46362869 -391.42187454 821.46362869 -392.20674515 820.47557449 C-430.78495032 771.83252157 -460.29115235 717.42172399 -479.35860062 658.29246902 C-480.47466722 654.84721993 -481.59822112 651.55098948 -483.10567093 648.25242996 C-485.68804388 642.39865771 -486.99152251 636.05958702 -488.52754593 629.86961746 C-488.70240524 629.16848831 -488.87726456 628.46735916 -489.05742264 627.74498367 C-497.62787089 593.13876344 -501.73664835 557.47855116 -501.89082718 521.84617996 C-501.89490271 521.02955257 -501.89897823 520.21292519 -501.90317726 519.37155151 C-501.92387446 515.0346466 -501.93823618 510.69777162 -501.94771194 506.3608284 C-501.95648644 502.85706614 -501.97717973 499.35371155 -502.00923538 495.85008621 C-502.2997723 463.34662146 -499.28634732 432.32782337 -492.65254593 400.43211746 C-492.33229446 398.87098221 -492.33229446 398.87098221 -492.00557327 397.27830887 C-473.99581235 310.80724617 -430.40547931 221.21480187 -366.43379593 159.20946121 C-364.63627023 157.41587746 -362.98778133 155.55104316 -361.34004593 153.61961746 C-355.05015773 146.32449599 -348.12659389 139.54849919 -340.80098343 133.29930496 C-338.6206503 131.40439726 -336.49898115 129.45301884 -334.38228226 127.48753738 C-328.33372635 121.87751854 -322.11912115 116.56022449 -315.65254593 111.43211746 C-315.03734085 110.93905106 -314.42213577 110.44598465 -313.78828812 109.93797684 C-283.91389336 86.03267982 -251.8440255 66.42258791 -217.65254593 49.43211746 C-216.7734053 48.98932449 -215.89426468 48.54653152 -214.98848343 48.09032059 C-170.98811437 25.9826433 -122.47725558 12.38968399 -73.94935989 4.79210281 C-72.46576586 4.55957544 -70.98268699 4.3237258 -69.50026321 4.08385086 C-46.43727422 0.36128973 -23.30871733 0.0475643 0 0 Z " fill="#0E345F" transform="translate(509.6525459289551,7.567882537841797)"/>
<path d="M0 0 C0.75877441 0.30663574 1.51754883 0.61327148 2.29931641 0.92919922 C24.48918109 9.96153705 44.29920542 22.904011 61.51708984 39.56835938 C63.06736285 41.06503388 64.63716113 42.53954178 66.20703125 44.015625 C92.49971402 69.10838899 109.57542854 102.95839079 117.3125 138.1875 C117.56733154 139.33919678 117.82216309 140.49089355 118.0847168 141.67749023 C128.00484209 189.16759568 117.31473024 241.39181303 91.57714844 282.25927734 C78.66826648 301.89891079 62.895407 319.01909348 44 333 C43.46117187 333.39960937 42.92234375 333.79921875 42.3671875 334.2109375 C28.86619801 344.12053077 14.41940399 351.57940675 -1 358 C-2.1240625 358.50660156 -3.248125 359.01320313 -4.40625 359.53515625 C-8.52338904 361.21333792 -12.64846874 362.41513889 -16.9375 363.5625 C-18.07735352 363.87477539 -18.07735352 363.87477539 -19.24023438 364.19335938 C-21.49075231 364.80643813 -23.74435284 365.40609357 -26 366 C-27.04160278 366.27710815 -27.04160278 366.27710815 -28.10424805 366.55981445 C-32.36517558 367.66491721 -36.5743711 368.48878471 -40.9375 369.0625 C-41.60007812 369.15354004 -42.26265625 369.24458008 -42.9453125 369.33837891 C-47.34129153 369.87801098 -51.60617938 370.01806606 -56.03515625 369.92578125 C-70.53625713 369.72684838 -78.43903412 371.45993396 -89.10644531 381.32714844 C-92.31643784 384.16300052 -95.84525394 386.52107453 -99.375 388.9375 C-100.80087335 389.93420638 -102.22534494 390.93292098 -103.6484375 391.93359375 C-104.36225586 392.43487793 -105.07607422 392.93616211 -105.81152344 393.45263672 C-109.56278139 396.10496525 -113.28060676 398.8032595 -117 401.5 C-123.50043428 406.21061167 -130.03864183 410.86297821 -136.60546875 415.48046875 C-141.7656672 419.11454566 -146.8892894 422.79671401 -152 426.5 C-158.50058483 431.21040657 -165.0386388 435.86297608 -171.60546875 440.48046875 C-176.7656672 444.11454566 -181.8892894 447.79671401 -187 451.5 C-192.8056643 455.7068583 -198.6351578 459.87603835 -204.5 464 C-211.18751469 468.70311897 -217.82793666 473.46800993 -224.44970703 478.26318359 C-229.81232644 482.1460541 -235.19119779 486.00519715 -240.58666992 489.84228516 C-242.8435508 491.44925352 -245.07864802 493.06177543 -247.2578125 494.7734375 C-249 496 -249 496 -251 496 C-250.96519531 496.92296875 -250.93039062 497.8459375 -250.89453125 498.796875 C-250.10851361 536.6754393 -265.03500691 571.72738478 -291.0390625 598.96875 C-314.3974113 623.03219989 -348.74800342 639.69645245 -382.55078125 640.23828125 C-413.42790367 640.6772584 -413.42790367 640.6772584 -428 636 C-428.77794922 635.75330566 -429.55589844 635.50661133 -430.35742188 635.25244141 C-447.41112076 629.69189788 -462.89397801 622.10609876 -477 611 C-477.58523438 610.54109375 -478.17046875 610.0821875 -478.7734375 609.609375 C-497.75424497 594.52419177 -510.47476407 575.94015053 -520.17919922 553.85888672 C-520.9174102 552.18704304 -521.69278866 550.53172907 -522.47265625 548.87890625 C-523.61212936 546.41453025 -524.07926067 544.44944195 -524.47167969 541.72363281 C-525.5543664 535.02464252 -525.5543664 535.02464252 -529.51165771 529.73284912 C-534.39659482 526.78706447 -539.82441584 525.05173705 -545.1875 523.1875 C-546.94875873 522.52845962 -548.70776465 521.8633709 -550.46459961 521.19262695 C-554.13450424 519.79575961 -557.81223641 518.42337098 -561.49707031 517.06640625 C-569.27376218 514.17707216 -576.90983838 510.95877415 -584.55490112 507.74084473 C-588.81047988 505.95324166 -593.07566503 504.18884038 -597.33984375 502.421875 C-599.09229826 501.69469305 -600.84473953 500.96747917 -602.59716797 500.24023438 C-612.1029492 496.29753868 -621.6136862 492.36682622 -631.125 488.4375 C-632.08661041 488.0401767 -633.04822083 487.64285339 -634.03897095 487.23348999 C-645.09959221 482.66414109 -656.16471424 478.10609079 -667.24093628 473.57467651 C-671.35121882 471.89303348 -675.46032438 470.2086879 -679.56591797 468.515625 C-681.11684415 467.87625882 -682.66778783 467.23693511 -684.21875 466.59765625 C-684.96456329 466.29014435 -685.71037659 465.98263245 -686.47879028 465.665802 C-690.68931735 463.93448354 -694.91104825 462.23670314 -699.14910889 460.57394409 C-702.18902407 459.37752789 -705.21808994 458.15403356 -708.25 456.9375 C-709.31573242 456.53273438 -710.38146484 456.12796875 -711.47949219 455.7109375 C-718.40363537 452.89575416 -718.40363537 452.89575416 -720.9296875 449.1015625 C-721.33144299 447.7469114 -721.67988458 446.37623152 -722 445 C-722.28875 443.98526611 -722.5775 442.97053223 -722.875 441.92504883 C-723.93977683 438.1110832 -724.92140686 434.28035322 -725.875 430.4375 C-726.13728897 429.38580627 -726.13728897 429.38580627 -726.40487671 428.31286621 C-734.85895982 394.17651146 -739.22907847 358.82905851 -739.09765625 323.66015625 C-739.09578447 322.15701851 -739.09436418 320.65388015 -739.09336853 319.15074158 C-739.08960305 315.24974801 -739.079826 311.34879341 -739.06866455 307.44781494 C-739.05831986 303.44503303 -739.05384333 299.44224464 -739.04882812 295.43945312 C-739.03819651 287.62628458 -739.02119468 279.81314781 -739 272 C-733.30629617 273.83561702 -727.73171357 275.831982 -722.20703125 278.125 C-721.47989426 278.42394165 -720.75275726 278.7228833 -720.00358582 279.03088379 C-717.60536203 280.01771558 -715.20893622 281.00883606 -712.8125 282 C-711.09450452 282.70793347 -709.37640297 283.41560956 -707.65820312 284.12304688 C-703.05490743 286.01940439 -698.4532405 287.91968053 -693.85211182 289.82128906 C-691.00364327 290.99849432 -688.15493616 292.17512041 -685.30615234 293.3515625 C-677.58141015 296.54169746 -669.85683068 299.73222391 -662.13330078 302.92529297 C-649.82640142 308.01240334 -637.51069981 313.07751796 -625.1875 318.125 C-611.07929639 323.90374325 -596.99059791 329.72825329 -582.9105835 335.57531738 C-569.77037242 341.03131235 -556.61563233 346.45068605 -543.4491272 351.84289551 C-527.36859828 358.42892749 -511.30760645 365.0618869 -495.2512207 371.70654297 C-494.30920807 372.0961319 -493.36719543 372.48572083 -492.39663696 372.88711548 C-490.64779434 373.61039343 -488.89914007 374.33412709 -487.15072632 375.05844116 C-485.56632734 375.71357682 -483.98018679 376.36451936 -482.3921814 377.01086426 C-480.7029925 377.70932179 -479.02373544 378.43203502 -477.35220337 379.17175293 C-476.4796994 379.5478772 -475.60719543 379.92400146 -474.70825195 380.31152344 C-473.92537308 380.65842224 -473.1424942 381.00532104 -472.33589172 381.36273193 C-467.96950111 382.55395209 -464.52565095 380.95494717 -460.70703125 378.85546875 C-459.52270508 378.21387817 -459.52270508 378.21387817 -458.31445312 377.55932617 C-457.48880859 377.10662354 -456.66316406 376.6539209 -455.8125 376.1875 C-454.09151851 375.26769293 -452.3688801 374.35097872 -450.64453125 373.4375 C-449.87471924 373.02628906 -449.10490723 372.61507813 -448.31176758 372.19140625 C-428.47766419 361.96958509 -405.9858436 359.51021636 -384 360 C-383.75636719 359.29746094 -383.51273437 358.59492187 -383.26171875 357.87109375 C-381.80533327 354.55702771 -379.96328199 351.97704376 -377.8125 349.0625 C-373.37727374 342.97663119 -369.10114911 336.79517515 -364.875 330.5625 C-359.63211765 322.84031684 -354.34184202 315.15406025 -349 307.5 C-342.42360668 298.07338293 -335.92902051 288.59366132 -329.46484375 279.08984375 C-325.09659201 272.66763788 -320.69447286 266.26896454 -316.28857422 259.87255859 C-315.00426266 258.0061945 -313.72244649 256.13814195 -312.44140625 254.26953125 C-307.74915588 247.42813173 -303.03247195 240.60461862 -298.28833008 233.79907227 C-288.18568039 219.31482636 -288.18568039 219.31482636 -278.25439453 204.71289062 C-275.56605929 200.71037054 -272.87091458 196.77173784 -269.875 192.9921875 C-263.29998501 184.50472825 -262.12134573 178.1321724 -262.109375 167.4921875 C-261.98318095 142.64097269 -253.98867186 117.08387471 -243 95 C-242.51877686 94.02111816 -242.51877686 94.02111816 -242.02783203 93.02246094 C-219.92446222 48.50140219 -180.08468522 13.0846409 -133 -3 C-129.34287934 -4.17744714 -125.66146442 -5.2339639 -121.9453125 -6.2109375 C-118.99058162 -6.96308119 -118.99058162 -6.96308119 -116.1328125 -8.00390625 C-112.37140726 -9.19986427 -108.63514979 -9.9009745 -104.75 -10.5625 C-103.70005859 -10.75102539 -103.70005859 -10.75102539 -102.62890625 -10.94335938 C-68.37851632 -16.90130516 -32.11163667 -13.35342363 0 0 Z " fill="#FEFEFE" transform="translate(747,207)"/>
<path d="M0 0 C1.06089844 0.53625 2.12179687 1.0725 3.21484375 1.625 C24.20228481 13.09776673 40.87517935 33.06801913 48 56 C48.55494141 57.77117187 48.55494141 57.77117187 49.12109375 59.578125 C51.53702584 68.03440242 52.36081638 76.14720206 52.375 84.9375 C52.37741699 86.35712036 52.37741699 86.35712036 52.37988281 87.80541992 C52.05071711 108.66172436 43.86802576 131.32310131 30 147 C28.92685547 148.30324219 28.92685547 148.30324219 27.83203125 149.6328125 C13.57383203 166.33328076 -7.30041011 177.60911602 -29 181 C-58.24165413 183.29248588 -82.91587807 177.75796145 -106 159 C-106.70511719 158.45988281 -107.41023437 157.91976562 -108.13671875 157.36328125 C-125.01445797 143.77207949 -136.25048437 121.25994303 -139 100 C-139.26747374 95.34999305 -139.28028676 90.71908934 -139.25 86.0625 C-139.25773438 84.87720703 -139.26546875 83.69191406 -139.2734375 82.47070312 C-139.21621235 56.39034118 -129.07156426 35.29364185 -111 17 C-110.41863281 16.34644531 -109.83726562 15.69289063 -109.23828125 15.01953125 C-100.33815057 5.22266197 -87.14120721 -1.15774004 -75 -6 C-73.36804688 -6.65355469 -73.36804688 -6.65355469 -71.703125 -7.3203125 C-48.5697349 -14.94260463 -21.31652268 -10.77525966 0 0 Z " fill="#FEFEFE" transform="translate(721,300)"/>
<path d="M0 0 C26.9495594 21.21070525 46.50246652 50.38449118 51.19970703 84.89306641 C51.81894711 90.82093025 51.94046674 96.7274074 51.92114258 102.68139648 C51.91797527 104.7106681 51.9415953 106.738484 51.96679688 108.76757812 C52.02666836 120.99381563 50.16992943 132.71312647 45.91796875 144.21484375 C45.66450684 144.91311279 45.41104492 145.61138184 45.14990234 146.33081055 C39.29211382 161.96973546 31.16605655 176.31815779 19.68359375 188.5234375 C17.55888819 190.76339685 17.55888819 190.76339685 15.65625 193.29296875 C11.92832903 197.80907872 7.20021379 201.18355366 2.60546875 204.77734375 C1.74695313 205.463125 0.8884375 206.14890625 0.00390625 206.85546875 C-7.579436 212.67471023 -15.73810222 216.82262998 -24.39453125 220.77734375 C-25.01344238 221.06383789 -25.63235352 221.35033203 -26.27001953 221.64550781 C-42.05624683 228.83611524 -57.45508244 231.13888416 -74.70703125 231.15234375 C-75.71695633 231.15533478 -75.71695633 231.15533478 -76.74728394 231.15838623 C-89.78691747 231.15401432 -102.33700519 229.98763814 -114.70703125 225.71484375 C-115.59656494 225.41102783 -116.48609863 225.10721191 -117.40258789 224.79418945 C-149.49648037 213.40843762 -175.1998284 190.09252032 -190.39453125 159.77734375 C-190.87962158 158.82504883 -190.87962158 158.82504883 -191.37451172 157.85351562 C-205.72277103 129.20107767 -207.44506923 95.03533299 -197.70703125 64.71484375 C-186.18763291 30.86132191 -162.36915977 3.59536474 -130.42578125 -12.29296875 C-88.90146448 -32.33718334 -37.0106816 -27.98084166 0 0 Z M-100.39453125 9.77734375 C-101.12567139 9.98689697 -101.85681152 10.1964502 -102.61010742 10.41235352 C-115.52622635 14.40105222 -128.53459447 21.54924103 -138.39453125 30.77734375 C-139.35488281 31.64746094 -140.31523438 32.51757812 -141.3046875 33.4140625 C-157.76198881 48.76549591 -169.57969159 70.03836511 -170.52075195 92.83496094 C-170.60110927 96.3788462 -170.62942314 99.92010247 -170.64453125 103.46484375 C-170.66515625 104.65529297 -170.68578125 105.84574219 -170.70703125 107.07226562 C-170.81523377 131.94532069 -159.86383943 154.31656359 -143.00634766 172.16992188 C-123.23013051 191.89222023 -98.27543955 199.11202383 -71.0534668 199.23046875 C-45.6130821 198.87473093 -22.55222625 187.39028809 -4.91601562 169.39013672 C13.82306556 149.42580791 21.34642385 123.67936745 20.94140625 96.8828125 C20.3574221 81.56167473 15.17859571 67.93579222 7.60546875 54.77734375 C7.04988281 53.78347656 6.49429688 52.78960937 5.921875 51.765625 C-6.11791183 31.52607927 -26.57797618 17.01693553 -49.07421875 10.53125 C-50.16992188 10.28246094 -51.265625 10.03367187 -52.39453125 9.77734375 C-53.1642627 9.60219238 -53.93399414 9.42704102 -54.72705078 9.24658203 C-62.34935174 7.67133441 -69.75453962 7.47740811 -77.51953125 7.52734375 C-79.33517578 7.51574219 -79.33517578 7.51574219 -81.1875 7.50390625 C-87.86711691 7.51844296 -93.9815395 7.87086013 -100.39453125 9.77734375 Z " fill="#0B1D47" transform="translate(752.39453125,282.22265625)"/>
<path d="M0 0 C2.04521028 1.78793784 4.05457555 3.60707163 6.0625 5.4375 C7.06023437 6.31148437 7.06023437 6.31148437 8.078125 7.203125 C21.92451235 20.01426843 31.00838361 38.55664885 36.0625 56.4375 C36.3821875 57.49710938 36.701875 58.55671875 37.03125 59.6484375 C43.95435572 86.1229066 37.98817664 115.53388057 24.52319336 138.89501953 C21.17286846 144.4861325 17.36207275 149.53718855 13.0625 154.4375 C12.42699219 155.20449219 11.79148437 155.97148438 11.13671875 156.76171875 C0.38383953 169.45399502 -13.73124376 178.01544032 -28.9375 184.4375 C-30.67 185.241875 -30.67 185.241875 -32.4375 186.0625 C-52.63665593 193.99788269 -80.37187092 194.90478199 -100.9375 187.4375 C-102.0409375 187.07527344 -103.144375 186.71304688 -104.28125 186.33984375 C-129.58516029 177.45335144 -151.98555976 158.58030227 -164.0625 134.5625 C-164.7007361 133.19359362 -165.33177649 131.82110002 -165.9375 130.4375 C-160.70013128 132.0811142 -155.69778807 134.1526764 -150.6484375 136.2890625 C-149.74993073 136.66678802 -148.85142395 137.04451355 -147.9256897 137.4336853 C-145.05374145 138.64120018 -142.18300227 139.85155217 -139.3125 141.0625 C-128.20681343 145.74555144 -117.09723767 150.41244077 -105.91015625 154.8984375 C-105.09247772 155.22703766 -104.27479919 155.55563782 -103.43234253 155.89419556 C-83.01763746 164.03313968 -61.03583578 163.86535798 -40.6875 155.25 C-33.78337827 152.16617004 -27.81086264 148.20899226 -21.9375 143.4375 C-20.71740234 142.52484375 -20.71740234 142.52484375 -19.47265625 141.59375 C-5.94123447 130.08474411 2.84250836 111.90143421 5.0625 94.4375 C6.76789564 72.94307945 3.56109923 51.80905733 -10.3125 34.625 C-10.95960938 33.89667969 -11.60671875 33.16835938 -12.2734375 32.41796875 C-13.9375 30.4375 -13.9375 30.4375 -14.9140625 28.30078125 C-16.22052879 25.92221475 -17.49644333 25.52395515 -19.9375 24.4375 C-20.96493895 23.57327401 -21.96438438 22.67496667 -22.9375 21.75 C-32.92257358 13.06780485 -45.38414149 8.53120904 -57.5 3.6875 C-59.22569433 2.98980362 -60.95103302 2.29122698 -62.67602539 1.59179688 C-66.12365601 0.195276 -69.57313139 -1.19651415 -73.02441406 -2.58398438 C-77.51905546 -4.39184804 -82.00725986 -6.21506195 -86.4921875 -8.046875 C-87.4540522 -8.43972687 -87.4540522 -8.43972687 -88.43534851 -8.84051514 C-89.36345085 -9.21965057 -89.36345085 -9.21965057 -90.31030273 -9.60644531 C-95.18386892 -11.59712737 -100.06051754 -13.58020544 -104.9375 -15.5625 C-104.9375 -16.5525 -104.9375 -17.5425 -104.9375 -18.5625 C-68.71120058 -30.06114049 -29.62289724 -25.01885147 0 0 Z " fill="#144679" transform="translate(424.9375,623.5625)"/>
<path d="M0 0 C8.76255883 3.73486114 16.07684283 12.7552459 22 20 C22.42361816 20.50063965 22.84723633 21.0012793 23.28369141 21.51708984 C34.73711284 35.05295153 45.39290234 50.43294916 52 67 C51.67 67.66 51.34 68.32 51 69 C50.69932617 68.42258057 50.39865234 67.84516113 50.08886719 67.25024414 C43.22138425 54.14726318 35.94204618 41.79156511 27 30 C26.30003906 29.05640625 25.60007812 28.1128125 24.87890625 27.140625 C19.18614955 19.81661053 12.55558403 13.41449464 5.94287109 6.92797852 C5.17668457 6.17572998 4.41049805 5.42348145 3.62109375 4.6484375 C2.9242749 3.96958496 2.22745605 3.29073242 1.50952148 2.59130859 C0 1 0 1 0 0 Z " fill="#0F1637" transform="translate(801,239)"/>
<path d="M0 0 C2.65662907 3.98494361 3.12259472 5.70700303 3.09765625 10.4453125 C3.09443359 11.52167969 3.09121094 12.59804688 3.08789062 13.70703125 C3.07951172 14.83496094 3.07113281 15.96289062 3.0625 17.125 C3.05798828 18.26066406 3.05347656 19.39632812 3.04882812 20.56640625 C3.03701615 23.37765638 3.02054507 26.1888023 3 29 C2.34 29.33 1.68 29.66 1 30 C0.67 20.1 0.34 10.2 0 0 Z " fill="#285080" transform="translate(461,689)"/>
<path d="M0 0 C-1.32120828 2.93230193 -2.74638197 4.98664899 -5.0390625 7.234375 C-5.90917969 8.09482422 -5.90917969 8.09482422 -6.796875 8.97265625 C-7.40015625 9.55917969 -8.0034375 10.14570313 -8.625 10.75 C-9.23601563 11.35199219 -9.84703125 11.95398438 -10.4765625 12.57421875 C-11.97988624 14.05405305 -13.48934856 15.52764676 -15 17 C-15.99 16.67 -16.98 16.34 -18 16 C-15.38308836 13.32529045 -12.75518292 10.66165519 -10.125 8 C-9.00544922 6.8553125 -9.00544922 6.8553125 -7.86328125 5.6875 C-7.14785156 4.965625 -6.43242188 4.24375 -5.6953125 3.5 C-5.03547363 2.8296875 -4.37563477 2.159375 -3.69580078 1.46875 C-2 0 -2 0 0 0 Z " fill="#10193B" transform="translate(596,288)"/>
<path d="M0 0 C8.30337655 1.33617554 15.44981514 10.11900942 21 16 C20.34 16.66 19.68 17.32 19 18 C18.63390625 17.52691406 18.2678125 17.05382812 17.890625 16.56640625 C13.30810263 10.96918249 8.21995651 6.96347809 2.37890625 2.78515625 C1.59386719 2.19605469 0.80882812 1.60695313 0 1 C0 0.67 0 0.34 0 0 Z " fill="#172F64" transform="translate(416,619)"/>
<path d="M0 0 C3.83223246 1.61261791 6.51553966 4.08091664 9.5625 6.875 C10.51253906 7.73867187 11.46257813 8.60234375 12.44140625 9.4921875 C14.5620981 11.57078928 16.31842707 13.56539946 18 16 C17.67 16.66 17.34 17.32 17 18 C14.16266225 15.19151503 11.33081251 12.37756077 8.5 9.5625 C7.68917969 8.76005859 6.87835937 7.95761719 6.04296875 7.13085938 C5.27597656 6.36708984 4.50898437 5.60332031 3.71875 4.81640625 C3.00654297 4.10943604 2.29433594 3.40246582 1.56054688 2.67407227 C0 1 0 1 0 0 Z " fill="#1B213C" transform="translate(801,239)"/>
<path d="M0 0 C3.33333333 3.33333333 6.66666667 6.66666667 10 10 C7 10 7 10 5.17578125 8.57421875 C4.56089844 7.95160156 3.94601563 7.32898438 3.3125 6.6875 C2.37857422 5.76517578 2.37857422 5.76517578 1.42578125 4.82421875 C0 3 0 3 0 0 Z " fill="#1B5588" transform="translate(252,801)"/>
<path d="M0 0 C0.66 0.66 1.32 1.32 2 2 C1.34 2.66 0.68 3.32 0 4 C-0.46006346 6.20250992 -0.46006346 6.20250992 -0.625 8.625 C-0.69976562 9.44226563 -0.77453125 10.25953125 -0.8515625 11.1015625 C-0.92503906 12.04128906 -0.92503906 12.04128906 -1 13 C-1.33 13 -1.66 13 -2 13 C-2.05391993 11.20866022 -2.09275571 9.41686101 -2.125 7.625 C-2.14820313 6.62726562 -2.17140625 5.62953125 -2.1953125 4.6015625 C-2 2 -2 2 0 0 Z " fill="#09386F" transform="translate(499,701)"/>
</svg>
