<?xml version="1.0" encoding="UTF-8"?>
<svg version="1.1" xmlns="http://www.w3.org/2000/svg" width="1024" height="1024">
<path d="M0 0 C0.87479004 -0.00563965 1.74958008 -0.0112793 2.65087891 -0.01708984 C4.07859619 -0.01101715 4.07859619 -0.01101715 5.53515625 -0.00482178 C6.54368652 -0.00832642 7.5522168 -0.01183105 8.59130859 -0.01544189 C11.92682772 -0.02424825 15.26213495 -0.01841383 18.59765625 -0.01165771 C20.91406291 -0.01300468 23.2304693 -0.01494547 25.546875 -0.01745605 C30.40237112 -0.02040584 35.25779368 -0.0161143 40.11328125 -0.0067749 C46.34112402 0.00461948 52.56879441 -0.00194076 58.79663086 -0.01391983 C63.58009137 -0.02114232 68.36351092 -0.01884869 73.14697266 -0.01366425 C75.44352234 -0.01232883 77.74007573 -0.01397169 80.03662109 -0.01862335 C83.24456654 -0.02369487 86.45223171 -0.0159693 89.66015625 -0.00482178 C90.61196777 -0.00887024 91.5637793 -0.0129187 92.54443359 -0.01708984 C93.41922363 -0.0114502 94.29401367 -0.00581055 95.1953125 0 C95.95336182 0.00075405 96.71141113 0.0015081 97.49243164 0.002285 C99.89388737 0.28938209 101.48216642 1.11379111 103.59765625 2.25396729 C105.9745609 2.68842633 105.9745609 2.68842633 108.51171875 2.85162354 C109.43726563 2.93090088 110.3628125 3.01017822 111.31640625 3.09185791 C112.27546875 3.165979 113.23453125 3.2401001 114.22265625 3.31646729 C116.13179993 3.47047154 118.04067481 3.6278569 119.94921875 3.78912354 C120.79307129 3.85494629 121.63692383 3.92076904 122.50634766 3.98858643 C124.59765625 4.25396729 124.59765625 4.25396729 126.59765625 5.25396729 C129.82984218 5.69404752 133.06187855 6.06624267 136.3046875 6.41607666 C140.46952635 6.89663499 144.44107923 7.62821761 148.49414062 8.69854736 C150.78015032 9.30215368 153.07468206 9.85591915 155.375 10.40240479 C156.20999023 10.60108154 157.04498047 10.7997583 157.90527344 11.00445557 C158.77313477 11.21054443 159.64099609 11.4166333 160.53515625 11.62896729 C161.90462402 11.95550293 161.90462402 11.95550293 163.30175781 12.28863525 C167.67415917 13.32964699 172.04812636 14.36153034 176.4296875 15.36334229 C189.35111951 18.32526308 189.35111951 18.32526308 195.1640625 20.41021729 C197.90776681 21.36148555 200.68075903 22.19996935 203.4597168 23.04156494 C209.27460619 24.80920632 214.90434241 26.67991128 220.40234375 29.29302979 C223.04346244 30.44910665 225.72679815 31.31363541 228.47265625 32.19146729 C233.39735826 33.78950821 238.0219597 35.71082828 242.703125 37.91412354 C245.86665137 39.3784819 249.06878042 40.72236459 252.28515625 42.06646729 C259.584163 45.17633982 266.64449283 48.69251198 273.7109375 52.29449463 C276.54067318 53.73352947 279.38179491 55.14955254 282.22265625 56.56646729 C286.01432292 58.46230062 289.80598958 60.35813395 293.59765625 62.25396729 C293.59765625 62.91396729 293.59765625 63.57396729 293.59765625 64.25396729 C294.26539063 64.32357666 294.933125 64.39318604 295.62109375 64.46490479 C299.6732649 65.53910239 302.7310498 67.60751466 306.22265625 69.87896729 C307.28226563 70.55512085 307.28226563 70.55512085 308.36328125 71.24493408 C310.44553178 72.57497161 312.52162833 73.91424684 314.59765625 75.25396729 C316.596899 76.52599157 318.59678463 77.79700672 320.59765625 79.06646729 C321.44972656 79.61302979 322.30179688 80.15959229 323.1796875 80.72271729 C324.78980385 81.74237094 326.41241373 82.74256188 328.046875 83.72271729 C329.92701653 84.85145845 331.76772487 86.04552203 333.59765625 87.25396729 C333.59765625 87.91396729 333.59765625 88.57396729 333.59765625 89.25396729 C334.31179688 89.50275635 335.0259375 89.75154541 335.76171875 90.00787354 C338.90846341 91.39053407 341.25591996 93.0873284 343.97265625 95.19146729 C347.52221765 97.91781369 351.07667775 100.6155625 354.71484375 103.22271729 C355.40143066 103.71650879 356.08801758 104.21030029 356.79541016 104.71905518 C358.15108951 105.69170592 359.51009323 106.6597417 360.87255859 107.62286377 C362.48350046 108.78501013 364.04593139 110.0138593 365.59765625 111.25396729 C365.59765625 111.91396729 365.59765625 112.57396729 365.59765625 113.25396729 C366.1596875 113.51177979 366.72171875 113.76959229 367.30078125 114.03521729 C369.86470204 115.39566505 372.0499199 116.9818569 374.34765625 118.75396729 C375.146875 119.36240479 375.94609375 119.97084229 376.76953125 120.59771729 C377.3728125 121.14427979 377.97609375 121.69084229 378.59765625 122.25396729 C378.59765625 122.91396729 378.59765625 123.57396729 378.59765625 124.25396729 C379.49484375 124.68709229 379.49484375 124.68709229 380.41015625 125.12896729 C382.59765625 126.25396729 382.59765625 126.25396729 385.59765625 128.25396729 C385.59765625 128.91396729 385.59765625 129.57396729 385.59765625 130.25396729 C386.58765625 130.58396729 387.57765625 130.91396729 388.59765625 131.25396729 C388.59765625 131.91396729 388.59765625 132.57396729 388.59765625 133.25396729 C389.39961426 133.56914307 389.39961426 133.56914307 390.21777344 133.89068604 C393.52219775 135.78357743 396.01360128 138.38462254 398.67578125 141.06646729 C399.53293732 141.92075317 399.53293732 141.92075317 400.40740967 142.79229736 C401.61000414 143.99353409 402.81008959 145.19728726 404.0078125 146.40338135 C405.84806342 148.25437684 407.69878258 150.09442175 409.55078125 151.93365479 C410.71809009 153.10228452 411.88477876 154.27153413 413.05078125 155.44146729 C413.60695129 155.99358887 414.16312134 156.54571045 414.73614502 157.11456299 C418.59765625 161.02403093 418.59765625 161.02403093 418.59765625 163.25396729 C419.58765625 163.58396729 420.57765625 163.91396729 421.59765625 164.25396729 C426.59765625 169.71908356 426.59765625 169.71908356 426.59765625 172.25396729 C427.25765625 172.25396729 427.91765625 172.25396729 428.59765625 172.25396729 C430.2039964 173.9878868 431.73518495 175.79205828 433.22265625 177.62896729 C434.03992188 178.62670166 434.8571875 179.62443604 435.69921875 180.65240479 C437.59765625 183.25396729 437.59765625 183.25396729 437.59765625 185.25396729 C438.25765625 185.25396729 438.91765625 185.25396729 439.59765625 185.25396729 C441.25390625 187.04693604 441.25390625 187.04693604 443.09765625 189.44146729 C443.70609375 190.21877197 444.31453125 190.99607666 444.94140625 191.79693604 C446.57578985 194.22152868 447.62171915 196.50670434 448.59765625 199.25396729 C449.25765625 199.25396729 449.91765625 199.25396729 450.59765625 199.25396729 C451.90698242 200.8394165 451.90698242 200.8394165 453.390625 203.05865479 C454.20781006 204.26884277 454.20781006 204.26884277 455.04150391 205.503479 C455.61690918 206.36989014 456.19231445 207.23630127 456.78515625 208.12896729 C457.96313269 209.8792426 459.14151449 211.62924518 460.3203125 213.37896729 C460.88637207 214.22330322 461.45243164 215.06763916 462.03564453 215.93756104 C464.37938198 219.41323796 466.79868687 222.83158022 469.23046875 226.24615479 C473.59765625 232.65968157 473.59765625 232.65968157 473.59765625 235.25396729 C474.25765625 235.25396729 474.91765625 235.25396729 475.59765625 235.25396729 C477.6393511 238.15945611 478.59765625 239.65538774 478.59765625 243.25396729 C479.25765625 243.25396729 479.91765625 243.25396729 480.59765625 243.25396729 C481.09265625 244.28521729 481.58765625 245.31646729 482.09765625 246.37896729 C483.51818158 249.2457521 485.03320309 252.03434473 486.64453125 254.79693604 C487.1869043 255.72771973 487.1869043 255.72771973 487.74023438 256.67730713 C488.47284246 257.92706934 489.2110509 259.17356708 489.95507812 260.41656494 C492.59765625 264.92618196 492.59765625 264.92618196 492.59765625 268.25396729 C493.25765625 268.25396729 493.91765625 268.25396729 494.59765625 268.25396729 C496.10711505 271.35362131 497.60356292 274.45938131 499.09765625 277.56646729 C499.52691406 278.4475415 499.95617187 279.32861572 500.3984375 280.23638916 C500.80449219 281.08394775 501.21054687 281.93150635 501.62890625 282.80474854 C502.19448242 283.975177 502.19448242 283.975177 502.77148438 285.16925049 C503.59765625 287.25396729 503.59765625 287.25396729 503.59765625 290.25396729 C504.25765625 290.25396729 504.91765625 290.25396729 505.59765625 290.25396729 C508.59765625 296.75396729 508.59765625 296.75396729 508.59765625 301.25396729 C509.25765625 301.25396729 509.91765625 301.25396729 510.59765625 301.25396729 C510.9121875 302.16017822 511.22671875 303.06638916 511.55078125 304.00006104 C513.75022501 310.26052594 515.96321992 316.42353142 518.8984375 322.38677979 C519.59765625 324.25396729 519.59765625 324.25396729 519.59765625 328.25396729 C520.25765625 328.25396729 520.91765625 328.25396729 521.59765625 328.25396729 C521.9121875 329.3535376 522.22671875 330.45310791 522.55078125 331.58599854 C525.32836261 341.29158229 525.32836261 341.29158229 528.66015625 350.81646729 C530.61574708 355.9785937 531.93419151 361.23441289 533.20336914 366.59796143 C533.88839511 369.48313385 534.61518941 372.30599889 535.5625 375.11724854 C536.97505795 379.39756564 537.99980291 383.74422202 539.03515625 388.12896729 C539.25397461 389.05354736 539.47279297 389.97812744 539.69824219 390.9307251 C541.99314311 400.75778237 544.18138375 410.64160995 545.22265625 420.69146729 C545.20016644 424.06621022 545.20016644 424.06621022 546.59765625 425.25396729 C546.80082327 426.83837101 546.94481216 428.4304632 547.0625 430.02349854 C547.17948242 431.48046143 547.17948242 431.48046143 547.29882812 432.96685791 C547.45546947 435.02131922 547.60915067 437.07600851 547.75976562 439.13092041 C547.83904297 440.10609619 547.91832031 441.08127197 548 442.08599854 C548.06695068 442.98036621 548.13390137 443.87473389 548.20288086 444.79620361 C548.45772525 447.23933224 548.45772525 447.23933224 549.60645676 449.13243103 C550.71537033 451.50591927 550.84903127 453.05029892 550.85162354 455.65631104 C550.85726318 456.53110107 550.86290283 457.40589111 550.86871338 458.30718994 C550.86264069 459.73490723 550.86264069 459.73490723 550.85644531 461.19146729 C550.86170227 462.7042627 550.86170227 462.7042627 550.86706543 464.24761963 C550.87587179 467.58313875 550.87003736 470.91844598 550.86328125 474.25396729 C550.86462821 476.57037395 550.86656901 478.88678034 550.86907959 481.20318604 C550.87202937 486.05868216 550.86773783 490.91410471 550.85839844 495.76959229 C550.84700406 501.99743506 550.8535643 508.22510545 550.86554337 514.45294189 C550.87276585 519.2364024 550.87047223 524.01982196 550.86528778 528.80328369 C550.86395236 531.09983338 550.86559523 533.39638677 550.87024689 535.69293213 C550.87531841 538.90087757 550.86759284 542.10854274 550.85644531 545.31646729 C550.86049377 546.26827881 550.86454224 547.22009033 550.86871338 548.20074463 C550.86025391 549.51292969 550.86025391 549.51292969 550.85162354 550.85162354 C550.85086948 551.60967285 550.85011543 552.36772217 550.84933853 553.14874268 C550.56222207 555.55036043 549.73473041 557.13664818 548.59765625 559.25396729 C548.16201505 561.74524283 548.16201505 561.74524283 548 564.42193604 C547.92072266 565.39711182 547.84144531 566.3722876 547.75976562 567.37701416 C547.64858398 568.89391846 547.64858398 568.89391846 547.53515625 570.44146729 C547.38155199 572.45609509 547.22420751 574.47044245 547.0625 576.48443604 C546.99667725 577.37541992 546.93085449 578.26640381 546.86303711 579.18438721 C546.59765625 581.25396729 546.59765625 581.25396729 545.59765625 582.25396729 C545.14629241 585.44006498 544.78256657 588.62566348 544.43554688 591.82427979 C543.83179838 597.06658378 542.82045838 602.12303581 541.59765625 607.25396729 C541.41114502 608.05270264 541.22463379 608.85143799 541.0324707 609.67437744 C538.88069194 618.85974362 536.67541275 628.03342115 534.41015625 637.19146729 C534.10722656 638.41736572 533.80429687 639.64326416 533.4921875 640.90631104 C532.64478619 644.07759018 531.66809158 647.15172452 530.59765625 650.25396729 C527.46635023 659.55202903 524.43305879 668.86070636 521.59765625 678.25396729 C520.93765625 678.25396729 520.27765625 678.25396729 519.59765625 678.25396729 C519.47648438 678.94877197 519.3553125 679.64357666 519.23046875 680.35943604 C516.9847988 690.63129673 512.33521107 700.3955194 508.05078125 709.95318604 C506.57537713 713.16610333 506.57537713 713.16610333 505.59765625 716.25396729 C504.93765625 716.25396729 504.27765625 716.25396729 503.59765625 716.25396729 C503.51644531 717.07123291 503.43523438 717.88849854 503.3515625 718.73052979 C502.41051938 723.1285655 500.60958503 726.66641421 498.53515625 730.62896729 C498.15810547 731.36502197 497.78105469 732.10107666 497.39257812 732.85943604 C496.46821261 734.66136375 495.53393011 736.45819828 494.59765625 738.25396729 C493.93765625 738.25396729 493.27765625 738.25396729 492.59765625 738.25396729 C492.26765625 740.23396729 491.93765625 742.21396729 491.59765625 744.25396729 C490.93765625 744.25396729 490.27765625 744.25396729 489.59765625 744.25396729 C489.46617187 745.03707275 489.46617187 745.03707275 489.33203125 745.83599854 C488.32514034 749.15124042 486.59810176 751.97641064 484.84765625 754.94146729 C484.12327352 756.18731437 483.3993156 757.43340856 482.67578125 758.67974854 C482.32193359 759.28641357 481.96808594 759.89307861 481.60351562 760.51812744 C479.5474535 764.06633175 477.57458814 767.66127376 475.59765625 771.25396729 C474.93765625 771.25396729 474.27765625 771.25396729 473.59765625 771.25396729 C473.30890625 771.99646729 473.02015625 772.73896729 472.72265625 773.50396729 C471.77462981 775.82136525 470.74919714 778.03313843 469.59765625 780.25396729 C468.93765625 780.25396729 468.27765625 780.25396729 467.59765625 780.25396729 C467.49453125 780.82244385 467.39140625 781.39092041 467.28515625 781.97662354 C466.47133301 784.67241301 465.25559917 786.41563361 463.59765625 788.69146729 C461.42470574 791.70120619 459.27271125 794.71540436 457.203125 797.79693604 C456.80158203 798.39127441 456.40003906 798.98561279 455.98632812 799.59796143 C455.19252417 800.77495326 454.40336455 801.95509224 453.61914062 803.13848877 C452.6623664 804.54592059 451.63559678 805.90527877 450.59765625 807.25396729 C449.93765625 807.25396729 449.27765625 807.25396729 448.59765625 807.25396729 C448.33984375 807.97970947 448.08203125 808.70545166 447.81640625 809.45318604 C446.54523126 812.37444395 445.05749223 814.56269377 443.09765625 817.06646729 C442.48921875 817.8566626 441.88078125 818.64685791 441.25390625 819.46099854 C440.70734375 820.05267822 440.16078125 820.64435791 439.59765625 821.25396729 C438.93765625 821.25396729 438.27765625 821.25396729 437.59765625 821.25396729 C437.33984375 821.81599854 437.08203125 822.37802979 436.81640625 822.95709229 C435.45595848 825.52101307 433.86976663 827.70623094 432.09765625 830.00396729 C431.48921875 830.80318604 430.88078125 831.60240479 430.25390625 832.42584229 C429.70734375 833.02912354 429.16078125 833.63240479 428.59765625 834.25396729 C427.93765625 834.25396729 427.27765625 834.25396729 426.59765625 834.25396729 C426.35015625 834.81084229 426.10265625 835.36771729 425.84765625 835.94146729 C424.36840807 838.67807642 422.66298186 840.93047598 420.59765625 843.25396729 C419.93765625 843.25396729 419.27765625 843.25396729 418.59765625 843.25396729 C418.38753906 843.78860596 418.17742188 844.32324463 417.9609375 844.87408447 C416.0680461 848.17850878 413.46700099 850.66991232 410.78515625 853.33209229 C409.93087036 854.18924835 409.93087036 854.18924835 409.05932617 855.0637207 C407.85808945 856.26631517 406.65433628 857.46640063 405.44824219 858.66412354 C403.5972467 860.50437446 401.75720179 862.35509361 399.91796875 864.20709229 C398.74933901 865.37440113 397.58008941 866.5410898 396.41015625 867.70709229 C395.85803467 868.26326233 395.30591309 868.81943237 394.73706055 869.39245605 C390.8275926 873.25396729 390.8275926 873.25396729 388.59765625 873.25396729 C388.26765625 874.24396729 387.93765625 875.23396729 387.59765625 876.25396729 C386.93765625 876.25396729 386.27765625 876.25396729 385.59765625 876.25396729 C385.59765625 876.91396729 385.59765625 877.57396729 385.59765625 878.25396729 C384.15001363 879.54438642 382.63676476 880.76163862 381.09765625 881.94146729 C376.9721914 885.1469066 373.03916553 888.47159811 369.19140625 892.00396729 C367.59765625 893.25396729 367.59765625 893.25396729 365.59765625 893.25396729 C365.59765625 893.91396729 365.59765625 894.57396729 365.59765625 895.25396729 C364.23999023 896.50323486 364.23999023 896.50323486 362.34375 897.89849854 C361.65345703 898.41090088 360.96316406 898.92330322 360.25195312 899.45123291 C359.52041016 899.98426025 358.78886719 900.5172876 358.03515625 901.06646729 C357.33068359 901.58789307 356.62621094 902.10931885 355.90039062 902.64654541 C353.80657726 904.19230072 351.70242597 905.72318053 349.59765625 907.25396729 C348.59822998 907.99719238 348.59822998 907.99719238 347.57861328 908.75543213 C342.82223327 912.25396729 342.82223327 912.25396729 340.59765625 912.25396729 C340.59765625 912.91396729 340.59765625 913.57396729 340.59765625 914.25396729 C336.21304087 917.25396729 336.21304087 917.25396729 333.59765625 917.25396729 C333.59765625 917.91396729 333.59765625 918.57396729 333.59765625 919.25396729 C326.84765625 923.25396729 326.84765625 923.25396729 324.59765625 923.25396729 C324.59765625 923.91396729 324.59765625 924.57396729 324.59765625 925.25396729 C322.3503418 926.82623291 322.3503418 926.82623291 319.234375 928.66021729 C318.11998047 929.32150635 317.00558594 929.98279541 315.85742188 930.66412354 C314.66680834 931.36098023 313.47605154 932.0575922 312.28515625 932.75396729 C311.10571127 933.44988997 309.92666935 934.14649625 308.74804688 934.84381104 C306.57856279 936.12674514 304.40711005 937.40635956 302.2331543 938.68170166 C300.32311499 939.82117856 298.44822622 941.02025397 296.59765625 942.25396729 C295.60765625 942.25396729 294.61765625 942.25396729 293.59765625 942.25396729 C293.59765625 942.91396729 293.59765625 943.57396729 293.59765625 944.25396729 C287.59765625 947.25396729 287.59765625 947.25396729 285.70581055 948.1987915 C282.29814244 949.90114855 278.89292321 951.60811151 275.4921875 953.32427979 C264.45550515 958.8868099 253.32803359 964.02057107 241.87329102 968.66827393 C238.40752692 970.07761089 234.99059383 971.53594316 231.6015625 973.12115479 C225.36524662 975.91232243 218.85247792 977.9602043 212.36889648 980.09063721 C210.16688834 980.814255 207.96707741 981.54424754 205.76757812 982.27545166 C195.75267302 985.59596084 185.77198856 988.8670995 175.47265625 991.19146729 C170.4700064 992.34035592 165.48309002 993.52590916 160.51269531 994.80743408 C153.22165041 996.68420305 145.92261192 998.21686995 138.51171875 999.54302979 C136.42992667 999.92115968 134.34895946 1000.30709106 132.27978516 1000.74908447 C125.185284 1002.26105025 118.1503168 1002.92003758 110.92578125 1003.46490479 C110.03632812 1003.53967041 109.146875 1003.61443604 108.23046875 1003.69146729 C107.43527832 1003.75205322 106.64008789 1003.81263916 105.82080078 1003.87506104 C103.58016529 1004.13452028 103.58016529 1004.13452028 101.7338562 1005.26177597 C99.35312894 1006.3675418 97.80624057 1006.50533741 95.1953125 1006.50793457 C94.32052246 1006.51357422 93.44573242 1006.51921387 92.54443359 1006.52502441 C91.11671631 1006.51895172 91.11671631 1006.51895172 89.66015625 1006.51275635 C88.65162598 1006.51626099 87.6430957 1006.51976562 86.60400391 1006.52337646 C83.26848478 1006.53218282 79.93317755 1006.5263484 76.59765625 1006.51959229 C74.28124959 1006.52093925 71.9648432 1006.52288004 69.6484375 1006.52539062 C64.79294138 1006.52834041 59.93751882 1006.52404887 55.08203125 1006.51470947 C48.85418848 1006.50331509 42.62651809 1006.50987533 36.39868164 1006.5218544 C31.61522113 1006.52907689 26.83180158 1006.52678326 22.04833984 1006.52159882 C19.75179016 1006.5202634 17.45523677 1006.52190626 15.15869141 1006.52655792 C11.95074596 1006.53162944 8.74308079 1006.52390387 5.53515625 1006.51275635 C4.58334473 1006.51680481 3.6315332 1006.52085327 2.65087891 1006.52502441 C1.33869385 1006.51656494 1.33869385 1006.51656494 0 1006.50793457 C-0.75804932 1006.50718052 -1.51609863 1006.50642647 -2.29711914 1006.50564957 C-4.69813745 1006.21860477 -6.28882037 1005.39680834 -8.40234375 1004.25396729 C-10.64775699 1003.83594379 -10.64775699 1003.83594379 -13.03515625 1003.69146729 C-13.92460937 1003.61670166 -14.8140625 1003.54193604 -15.73046875 1003.46490479 C-17.11492187 1003.36049072 -17.11492187 1003.36049072 -18.52734375 1003.25396729 C-24.84473663 1002.76522915 -30.95583324 1002.06731189 -37.15161133 1000.71124268 C-39.42036727 1000.25030549 -41.66491187 999.94955804 -43.96484375 999.69146729 C-47.40234375 999.25396729 -47.40234375 999.25396729 -48.40234375 998.25396729 C-50.27199872 997.94840879 -52.14873356 997.68600657 -54.02734375 997.44146729 C-60.31840484 996.51631124 -66.30559338 995.03246195 -72.42578125 993.32818604 C-77.35485286 991.96805876 -82.33763691 990.84279215 -87.32910156 989.73687744 C-91.62618764 988.75950511 -95.76589813 987.52835167 -99.93408203 986.09942627 C-102.68598997 985.15680934 -105.44920907 984.25314743 -108.21484375 983.35162354 C-110.2773644 982.6733009 -112.33986409 981.99491454 -114.40234375 981.31646729 C-115.43101562 980.98195557 -116.4596875 980.64744385 -117.51953125 980.30279541 C-122.98496667 978.4983673 -128.25721909 976.52988224 -133.48535156 974.12237549 C-135.87078864 973.04175913 -138.30054166 972.16420554 -140.77734375 971.31646729 C-148.26464786 968.643176 -155.38600162 965.29725249 -162.46484375 961.69146729 C-165.6861968 960.05288928 -168.89397116 958.64705749 -172.27734375 957.37896729 C-177.25120562 955.44985264 -181.65254557 952.844407 -186.21484375 950.09771729 C-189.46603283 948.21712753 -192.76929765 946.5714804 -196.15234375 944.94146729 C-207.88636107 939.15836524 -218.72592422 931.81975646 -229.53100586 924.47735596 C-232.40907478 922.53006338 -235.23549205 920.69629578 -238.40234375 919.25396729 C-238.40234375 918.59396729 -238.40234375 917.93396729 -238.40234375 917.25396729 C-239.18609375 916.94459229 -239.96984375 916.63521729 -240.77734375 916.31646729 C-243.40234375 915.25396729 -243.40234375 915.25396729 -245.40234375 914.25396729 C-245.40234375 913.59396729 -245.40234375 912.93396729 -245.40234375 912.25396729 C-246.05203125 912.05674072 -246.70171875 911.85951416 -247.37109375 911.65631104 C-251.70371588 909.65191497 -255.17640797 906.77453698 -258.90234375 903.81646729 C-260.08860352 902.88507935 -260.08860352 902.88507935 -261.29882812 901.93487549 C-266.80504146 897.58765997 -272.2133518 893.13476488 -277.51757812 888.54327393 C-280.28109976 886.14085444 -280.28109976 886.14085444 -283.40234375 884.25396729 C-283.40234375 883.59396729 -283.40234375 882.93396729 -283.40234375 882.25396729 C-283.93859375 882.02709229 -284.47484375 881.80021729 -285.02734375 881.56646729 C-288.22694536 879.79826639 -290.69271598 877.71726526 -293.40234375 875.25396729 C-293.40234375 874.59396729 -293.40234375 873.93396729 -293.40234375 873.25396729 C-294.06234375 873.25396729 -294.72234375 873.25396729 -295.40234375 873.25396729 C-295.40234375 872.59396729 -295.40234375 871.93396729 -295.40234375 871.25396729 C-296.23813965 870.90495361 -296.23813965 870.90495361 -297.09082031 870.54888916 C-300.0015802 868.91827336 -302.02415508 866.89157535 -304.38671875 864.53521729 C-305.32128906 863.6032251 -306.25585938 862.67123291 -307.21875 861.71099854 C-307.69973145 861.22582764 -308.18071289 860.74065674 -308.67626953 860.24078369 C-310.15439223 858.7519039 -311.64294286 857.27405078 -313.1328125 855.79693604 C-314.06222656 854.86494385 -314.99164063 853.93295166 -315.94921875 852.97271729 C-316.80354492 852.11613525 -317.65787109 851.25955322 -318.53808594 850.37701416 C-320.40234375 848.25396729 -320.40234375 848.25396729 -320.40234375 846.25396729 C-321.39234375 845.92396729 -322.38234375 845.59396729 -323.40234375 845.25396729 C-323.40234375 844.59396729 -323.40234375 843.93396729 -323.40234375 843.25396729 C-324.39234375 842.92396729 -325.38234375 842.59396729 -326.40234375 842.25396729 C-331.40234375 836.78885101 -331.40234375 836.78885101 -331.40234375 834.25396729 C-332.06234375 834.25396729 -332.72234375 834.25396729 -333.40234375 834.25396729 C-335.0086839 832.52004777 -336.53987245 830.71587629 -338.02734375 828.87896729 C-338.84460938 827.88123291 -339.661875 826.88349854 -340.50390625 825.85552979 C-342.40234375 823.25396729 -342.40234375 823.25396729 -342.40234375 821.25396729 C-343.06234375 821.25396729 -343.72234375 821.25396729 -344.40234375 821.25396729 C-346.05859375 819.46099854 -346.05859375 819.46099854 -347.90234375 817.06646729 C-348.51078125 816.2891626 -349.11921875 815.51185791 -349.74609375 814.71099854 C-351.38047735 812.28640589 -352.42640665 810.00123023 -353.40234375 807.25396729 C-354.06234375 807.25396729 -354.72234375 807.25396729 -355.40234375 807.25396729 C-356.91015625 805.35552979 -356.91015625 805.35552979 -358.52734375 802.87896729 C-359.33558594 801.66080322 -359.33558594 801.66080322 -360.16015625 800.41802979 C-361.40234375 798.25396729 -361.40234375 798.25396729 -361.40234375 796.25396729 C-362.06234375 796.25396729 -362.72234375 796.25396729 -363.40234375 796.25396729 C-365.09607249 793.95169529 -366.66990799 791.65339791 -368.21484375 789.25396729 C-368.88652588 788.22589966 -368.88652588 788.22589966 -369.57177734 787.17706299 C-370.8555317 785.20706745 -372.12953241 783.23104312 -373.40234375 781.25396729 C-373.98628906 780.36064697 -374.57023437 779.46732666 -375.171875 778.54693604 C-378.40234375 773.52900331 -378.40234375 773.52900331 -378.40234375 771.25396729 C-379.06234375 771.25396729 -379.72234375 771.25396729 -380.40234375 771.25396729 C-382.4440386 768.34847846 -383.40234375 766.85254683 -383.40234375 763.25396729 C-384.06234375 763.25396729 -384.72234375 763.25396729 -385.40234375 763.25396729 C-385.716875 762.61330322 -386.03140625 761.97263916 -386.35546875 761.31256104 C-388.3762494 757.22839292 -390.39901086 753.18009258 -392.71484375 749.25396729 C-394.40234375 746.25396729 -394.40234375 746.25396729 -394.40234375 744.25396729 C-395.06234375 744.25396729 -395.72234375 744.25396729 -396.40234375 744.25396729 C-396.89734375 741.28396729 -396.89734375 741.28396729 -397.40234375 738.25396729 C-398.06234375 738.25396729 -398.72234375 738.25396729 -399.40234375 738.25396729 C-400.91180255 735.15431326 -402.40825042 732.04855326 -403.90234375 728.94146729 C-404.54623047 727.61985596 -404.54623047 727.61985596 -405.203125 726.27154541 C-405.81220703 725.00020752 -405.81220703 725.00020752 -406.43359375 723.70318604 C-406.81064453 722.92290039 -407.18769531 722.14261475 -407.57617188 721.33868408 C-408.40234375 719.25396729 -408.40234375 719.25396729 -408.40234375 716.25396729 C-409.06234375 716.25396729 -409.72234375 716.25396729 -410.40234375 716.25396729 C-413.40234375 709.75396729 -413.40234375 709.75396729 -413.40234375 705.25396729 C-414.06234375 705.25396729 -414.72234375 705.25396729 -415.40234375 705.25396729 C-415.716875 704.34775635 -416.03140625 703.44154541 -416.35546875 702.50787354 C-418.55491251 696.24740863 -420.76790742 690.08440315 -423.703125 684.12115479 C-424.40234375 682.25396729 -424.40234375 682.25396729 -424.40234375 678.25396729 C-425.06234375 678.25396729 -425.72234375 678.25396729 -426.40234375 678.25396729 C-426.716875 677.15439697 -427.03140625 676.05482666 -427.35546875 674.92193604 C-430.13305011 665.21635229 -430.13305011 665.21635229 -433.46484375 655.69146729 C-435.42043458 650.52934087 -436.73887901 645.27352168 -438.00805664 639.90997314 C-438.95048185 635.9406941 -440.1084695 632.12006355 -441.40234375 628.25396729 C-441.92809458 626.13519144 -442.4276853 624.00977097 -442.90234375 621.87896729 C-443.68911451 618.38177127 -444.49276852 614.90922284 -445.40234375 611.44146729 C-447.51969079 603.07883613 -449.16098256 594.39756863 -450.02734375 585.81646729 C-450.00485394 582.44172435 -450.00485394 582.44172435 -451.40234375 581.25396729 C-451.60551077 579.66956356 -451.74949966 578.07747137 -451.8671875 576.48443604 C-451.94517578 575.51312744 -452.02316406 574.54181885 -452.10351562 573.54107666 C-452.26015697 571.48661536 -452.41383817 569.43192606 -452.56445312 567.37701416 C-452.64373047 566.40183838 -452.72300781 565.4266626 -452.8046875 564.42193604 C-452.90511353 563.08038452 -452.90511353 563.08038452 -453.00756836 561.71173096 C-453.26245665 559.26855967 -453.26245665 559.26855967 -454.41114426 557.37508297 C-455.51930961 555.0036664 -455.65371661 553.46206394 -455.65631104 550.85835266 C-455.66195068 549.98500778 -455.66759033 549.1116629 -455.67340088 548.21185303 C-455.66935242 547.26161255 -455.66530396 546.31137207 -455.66113281 545.33233643 C-455.66463745 544.32541245 -455.66814209 543.31848846 -455.67175293 542.28105164 C-455.68056006 538.95033894 -455.67472414 535.61983842 -455.66796875 532.28912354 C-455.6693158 529.9751125 -455.67125666 527.66110174 -455.67376709 525.34709167 C-455.67671706 520.4957917 -455.6724251 515.64456535 -455.66308594 510.79327393 C-455.65169791 504.5744976 -455.65824765 498.35589403 -455.67023087 492.13712406 C-455.67745826 487.35791218 -455.67515736 482.57874124 -455.66997528 477.79952812 C-455.66864089 475.50659604 -455.67027912 473.21366024 -455.67493439 470.9207325 C-455.68001326 467.71538577 -455.67226969 464.51031859 -455.66113281 461.30499268 C-455.66518127 460.35677643 -455.66922974 459.40856018 -455.67340088 458.43161011 C-455.64417769 453.89155365 -455.46471791 450.39871745 -453.40234375 446.25396729 C-452.97304237 443.76773656 -452.97304237 443.76773656 -452.8046875 441.20709229 C-452.72541016 440.28025635 -452.64613281 439.35342041 -452.56445312 438.39849854 C-452.45327148 436.96570557 -452.45327148 436.96570557 -452.33984375 435.50396729 C-452.18624126 433.59218751 -452.0288969 431.6807034 -451.8671875 429.76959229 C-451.80136475 428.92686768 -451.73554199 428.08414307 -451.66772461 427.21588135 C-451.40234375 425.25396729 -451.40234375 425.25396729 -450.40234375 424.25396729 C-450.04808062 421.75328636 -449.741512 419.26336232 -449.46484375 416.75396729 C-448.86145885 411.63110017 -448.19411372 406.61495455 -446.96875 401.59771729 C-445.93423299 397.31695725 -445.08291228 392.99451862 -444.18359375 388.68365479 C-443.3814222 385.16212167 -442.40346145 381.72375021 -441.40234375 378.25396729 C-440.53725926 374.88619674 -439.72080782 371.50637556 -438.90234375 368.12701416 C-437.9108484 364.09519128 -436.74931357 360.17989151 -435.40234375 356.25396729 C-434.93806736 354.67236641 -434.47947409 353.08908307 -434.02734375 351.50396729 C-432.97671804 347.95210574 -431.75606875 344.5510723 -430.33984375 341.12896729 C-428.58676225 336.88395767 -427.39806387 332.73470783 -426.40234375 328.25396729 C-425.74234375 328.25396729 -425.08234375 328.25396729 -424.40234375 328.25396729 C-424.31984375 327.28459229 -424.23734375 326.31521729 -424.15234375 325.31646729 C-423.59781567 321.41915023 -422.1783011 318.25098702 -420.5078125 314.71099854 C-419.3228573 312.07729952 -418.35607614 309.41695551 -417.40234375 306.69146729 C-415.73355677 301.98852216 -413.69542263 297.68198167 -411.40234375 293.25396729 C-411.07234375 292.26396729 -410.74234375 291.27396729 -410.40234375 290.25396729 C-409.74234375 290.25396729 -409.08234375 290.25396729 -408.40234375 290.25396729 C-408.32113281 289.43670166 -408.23992187 288.61943604 -408.15625 287.77740479 C-407.21520688 283.37936907 -405.41427253 279.84152037 -403.33984375 275.87896729 C-402.96279297 275.1429126 -402.58574219 274.40685791 -402.19726562 273.64849854 C-401.27290011 271.84657082 -400.33861761 270.04973629 -399.40234375 268.25396729 C-398.74234375 268.25396729 -398.08234375 268.25396729 -397.40234375 268.25396729 C-397.07234375 266.27396729 -396.74234375 264.29396729 -396.40234375 262.25396729 C-395.74234375 262.25396729 -395.08234375 262.25396729 -394.40234375 262.25396729 C-394.263125 261.45152588 -394.263125 261.45152588 -394.12109375 260.63287354 C-393.1732065 257.4955728 -391.59662608 254.99328253 -389.90234375 252.19146729 C-387.30091934 247.88531993 -387.30091934 247.88531993 -385.40234375 243.25396729 C-384.74234375 243.25396729 -384.08234375 243.25396729 -383.40234375 243.25396729 C-383.27859375 242.67646729 -383.15484375 242.09896729 -383.02734375 241.50396729 C-382.39585551 239.23060962 -381.51376184 237.32861439 -380.40234375 235.25396729 C-379.74234375 235.25396729 -379.08234375 235.25396729 -378.40234375 235.25396729 C-378.13421875 234.53080322 -377.86609375 233.80763916 -377.58984375 233.06256104 C-373.57751615 223.57287832 -366.58315335 215.19049793 -360.54931641 206.88433838 C-359.38713377 205.23234697 -358.30764412 203.54183838 -357.2265625 201.83599854 C-356.62457031 200.98392822 -356.02257812 200.13185791 -355.40234375 199.25396729 C-354.74234375 199.25396729 -354.08234375 199.25396729 -353.40234375 199.25396729 C-353.14453125 198.5282251 -352.88671875 197.80248291 -352.62109375 197.05474854 C-351.34991876 194.13349062 -349.86217973 191.9452408 -347.90234375 189.44146729 C-347.29390625 188.65127197 -346.68546875 187.86107666 -346.05859375 187.04693604 C-345.51203125 186.45525635 -344.96546875 185.86357666 -344.40234375 185.25396729 C-343.74234375 185.25396729 -343.08234375 185.25396729 -342.40234375 185.25396729 C-342.14453125 184.69193604 -341.88671875 184.12990479 -341.62109375 183.55084229 C-340.26064598 180.9869215 -338.67445413 178.80170363 -336.90234375 176.50396729 C-336.29390625 175.70474854 -335.68546875 174.90552979 -335.05859375 174.08209229 C-334.51203125 173.47881104 -333.96546875 172.87552979 -333.40234375 172.25396729 C-332.74234375 172.25396729 -332.08234375 172.25396729 -331.40234375 172.25396729 C-331.15484375 171.69709229 -330.90734375 171.14021729 -330.65234375 170.56646729 C-329.17309557 167.82985815 -327.46766936 165.57745859 -325.40234375 163.25396729 C-324.74234375 163.25396729 -324.08234375 163.25396729 -323.40234375 163.25396729 C-323.07234375 162.26396729 -322.74234375 161.27396729 -322.40234375 160.25396729 C-321.74234375 160.25396729 -321.08234375 160.25396729 -320.40234375 160.25396729 C-320.16966797 159.69677002 -319.93699219 159.13957275 -319.69726562 158.56549072 C-318.06664982 155.65473084 -316.03995181 153.63215596 -313.68359375 151.26959229 C-312.75160156 150.33502197 -311.81960938 149.40045166 -310.859375 148.43756104 C-310.13161865 147.71608887 -310.13161865 147.71608887 -309.38916016 146.9800415 C-307.90028036 145.50191881 -306.42242724 144.01336817 -304.9453125 142.52349854 C-304.01332031 141.59408447 -303.08132813 140.66467041 -302.12109375 139.70709229 C-301.26451172 138.85276611 -300.40792969 137.99843994 -299.52539062 137.1182251 C-297.40234375 135.25396729 -297.40234375 135.25396729 -295.40234375 135.25396729 C-295.40234375 134.59396729 -295.40234375 133.93396729 -295.40234375 133.25396729 C-294.74234375 133.25396729 -294.08234375 133.25396729 -293.40234375 133.25396729 C-293.07234375 132.26396729 -292.74234375 131.27396729 -292.40234375 130.25396729 C-290.84375 128.64849854 -290.84375 128.64849854 -288.96484375 127.06646729 C-288.34738281 126.5366626 -287.72992188 126.00685791 -287.09375 125.46099854 C-285.40234375 124.25396729 -285.40234375 124.25396729 -283.40234375 124.25396729 C-283.40234375 123.59396729 -283.40234375 122.93396729 -283.40234375 122.25396729 C-281.24990591 120.42693267 -279.08872205 118.70478771 -276.83984375 117.00396729 C-275.55107747 116.01439046 -274.26330605 115.02351657 -272.9765625 114.03131104 C-272.35700684 113.55419678 -271.73745117 113.07708252 -271.09912109 112.58551025 C-269.05408234 110.98066977 -267.09480424 109.29355902 -265.15234375 107.56646729 C-262.40234375 105.25396729 -262.40234375 105.25396729 -260.40234375 105.25396729 C-260.40234375 104.59396729 -260.40234375 103.93396729 -260.40234375 103.25396729 C-259.01983017 102.27609182 -257.62843204 101.30839341 -256.1953125 100.40631104 C-254.286097 99.17925532 -252.47638123 97.8538315 -250.65234375 96.50396729 C-247.40234375 94.25396729 -247.40234375 94.25396729 -245.40234375 94.25396729 C-245.40234375 93.59396729 -245.40234375 92.93396729 -245.40234375 92.25396729 C-241.01772837 89.25396729 -241.01772837 89.25396729 -238.40234375 89.25396729 C-238.40234375 88.59396729 -238.40234375 87.93396729 -238.40234375 87.25396729 C-231.65234375 83.25396729 -231.65234375 83.25396729 -229.40234375 83.25396729 C-229.40234375 82.59396729 -229.40234375 81.93396729 -229.40234375 81.25396729 C-227.29785156 79.76104736 -227.29785156 79.76104736 -224.35546875 78.02349854 C-222.74478516 77.06540283 -222.74478516 77.06540283 -221.1015625 76.08795166 C-219.96332031 75.42086182 -218.82507813 74.75377197 -217.65234375 74.06646729 C-216.56050781 73.41871338 -215.46867188 72.77095947 -214.34375 72.10357666 C-211.03551099 70.14408125 -207.7200912 68.19731351 -204.40234375 66.25396729 C-203.29109131 65.600896 -202.17983887 64.94782471 -201.03491211 64.27496338 C-199.97409424 63.65315186 -198.91327637 63.03134033 -197.8203125 62.39068604 C-196.8718042 61.83469727 -195.9232959 61.2787085 -194.94604492 60.70587158 C-192.20541579 59.14156393 -189.42688004 57.71798479 -186.5859375 56.34771729 C-183.68821891 54.89626611 -180.86608967 53.31743062 -178.02734375 51.75396729 C-173.38779395 49.24176866 -168.78709446 47.08178056 -163.859375 45.21099854 C-158.35603081 43.0674066 -153.01846044 40.49436744 -147.68359375 37.96490479 C-141.97928772 35.29306029 -136.27550312 33.13132762 -130.27734375 31.21099854 C-127.7376959 30.36559945 -125.30433808 29.41867583 -122.83984375 28.37896729 C-114.89465806 25.12105484 -106.60293644 22.77577676 -98.40234375 20.25396729 C-97.40332031 19.94201416 -96.40429688 19.63006104 -95.375 19.30865479 C-89.10913798 17.37913488 -82.77409239 15.79290657 -76.40234375 14.25396729 C-75.58636719 14.05480713 -74.77039063 13.85564697 -73.9296875 13.65045166 C-71.15067772 12.97269316 -68.37042823 12.30023411 -65.58984375 11.62896729 C-64.69418701 11.41063232 -63.79853027 11.19229736 -62.87573242 10.96734619 C-59.03541598 10.04693089 -55.24600016 9.18109675 -51.328125 8.66802979 C-48.51720948 8.56918182 -48.51720948 8.56918182 -47.40234375 7.25396729 C-44.75578351 6.8788181 -42.1205465 6.54777018 -39.46484375 6.25396729 C-34.27721069 5.84818051 -34.27721069 5.84818051 -29.40234375 4.25396729 C-27.85752479 4.05793434 -26.3063977 3.91022202 -24.75390625 3.78912354 C-23.8309375 3.71113525 -22.90796875 3.63314697 -21.95703125 3.55279541 C-20.01197859 3.3958945 -18.06666273 3.2422211 -16.12109375 3.09185791 C-14.73277344 2.97294189 -14.73277344 2.97294189 -13.31640625 2.85162354 C-12.47029785 2.78467285 -11.62418945 2.71772217 -10.75244141 2.64874268 C-8.40248405 2.38369535 -8.40248405 2.38369535 -6.53060913 1.24516678 C-4.15390159 0.13826003 -2.60796184 0.00259421 0 0 Z " fill="#2AA1DA" transform="translate(464.40234375,8.74603271484375)"/>
<path d="M0 0 C3.16284066 5.79347256 3.50657528 10.78348245 3.4375 17.3125 C3.43210205 18.30072754 3.4267041 19.28895508 3.42114258 20.30712891 C3.1393378 34.57112884 1.46650482 49.52906255 -3.34204102 63.01611328 C-4.26780359 65.80748496 -4.68391773 68.58895963 -5.0625 71.5 C-7.12192623 86.12192623 -7.12192623 86.12192623 -9 88 C-9.33156564 90.39631531 -9.61628185 92.78313858 -9.875 95.1875 C-10.76416399 102.92515585 -12.22168281 110.41251332 -14 118 C-14.66 118 -15.32 118 -16 118 C-15.97164062 119.01449219 -15.94328125 120.02898437 -15.9140625 121.07421875 C-15.9972639 124.87500995 -16.52190973 128.11718324 -17.375 131.8125 C-18.27367754 135.75669588 -19.14334016 139.69707322 -19.9140625 143.66796875 C-21.31422445 150.73912158 -23.07507532 157.72246108 -24.7890625 164.72265625 C-26.15449413 170.34299351 -27.42286246 175.96024347 -28.52636719 181.63769531 C-29.2985327 185.48897033 -30.21073571 189.30540697 -31.125 193.125 C-31.39763672 194.27355469 -31.39763672 194.27355469 -31.67578125 195.4453125 C-32.11561615 197.2972489 -32.55757343 199.14868104 -33 201 C-33.66 201 -34.32 201 -35 201 C-35.33 205.29 -35.66 209.58 -36 214 C-36.66 214 -37.32 214 -38 214 C-38.04898437 215.09699219 -38.09796875 216.19398438 -38.1484375 217.32421875 C-38.22350591 218.77866925 -38.29905197 220.23309516 -38.375 221.6875 C-38.4059375 222.40873047 -38.436875 223.12996094 -38.46875 223.87304688 C-38.69631753 228.02615428 -39.30395478 231.15895642 -41 235 C-41.57805624 237.26184389 -42.11856671 239.53355021 -42.625 241.8125 C-43.01558594 243.55466797 -43.01558594 243.55466797 -43.4140625 245.33203125 C-43.70410156 246.65267578 -43.70410156 246.65267578 -44 248 C-44.66 248 -45.32 248 -46 248 C-46.33 252.29 -46.66 256.58 -47 261 C-47.66 261 -48.32 261 -49 261 C-49.03158203 261.62221436 -49.06316406 262.24442871 -49.09570312 262.88549805 C-49.66331692 271.11067007 -51.47462601 278.83708155 -53.5 286.8125 C-54.1388299 289.35984221 -54.77272656 291.90835849 -55.40625 294.45703125 C-55.68791016 295.57053955 -55.96957031 296.68404785 -56.25976562 297.83129883 C-56.97118044 300.87663291 -57.52254027 303.91019508 -58 307 C-58.66 307 -59.32 307 -60 307 C-60.03738281 307.6084375 -60.07476563 308.216875 -60.11328125 308.84375 C-60.7525246 317.36699471 -62.33055563 325.63177885 -64 334 C-64.66 334 -65.32 334 -66 334 C-66.0825 335.155 -66.165 336.31 -66.25 337.5 C-66.82197896 342.76386438 -68.14789539 347.79630192 -69.48510742 352.90429688 C-70.790028 357.9559078 -71.73243675 362.97816844 -72.41015625 368.15625 C-72.90721233 370.55265281 -73.54015486 372.52278846 -74.42578125 374.78515625 C-76.10425724 379.08844511 -77.14292449 383.43173755 -78.125 387.9375 C-79.87378641 395.87378641 -79.87378641 395.87378641 -81 397 C-81.37920033 398.72986684 -81.708312 400.47077068 -82.015625 402.21484375 C-82.21542969 403.29443359 -82.41523437 404.37402344 -82.62109375 405.48632812 C-83.03366499 407.75034482 -83.43761191 410.01595369 -83.83203125 412.28320312 C-85.66033691 422.01691846 -88.69952657 430.12483867 -95.5 437.5 C-96.59828125 438.72203125 -96.59828125 438.72203125 -97.71875 439.96875 C-103.44663086 445.06891789 -110.43864308 444.64655286 -117.7109375 444.42578125 C-128.0004528 443.70044004 -135.08577154 436.45918902 -142.50390625 429.98046875 C-148.01511604 425.21262418 -153.91858568 420.95125421 -159.78320312 416.6328125 C-162.15599418 414.88510032 -164.52348889 413.13036252 -166.890625 411.375 C-175.98170663 404.642974 -185.09539867 397.96935331 -194.484375 391.65625 C-195.08717285 391.24737549 -195.6899707 390.83850098 -196.31103516 390.41723633 C-197.49938886 389.61161889 -198.69165881 388.81174134 -199.88818359 388.01831055 C-201.29456009 387.06284795 -202.65258745 386.03695856 -204 385 C-204 384.34 -204 383.68 -204 383 C-204.66128906 382.78085937 -205.32257813 382.56171875 -206.00390625 382.3359375 C-209.9965658 380.5556382 -213.37460608 378.13920555 -216.9375 375.625 C-218.32136237 374.65849295 -219.70547313 373.69234143 -221.08984375 372.7265625 C-221.74839355 372.26282227 -222.40694336 371.79908203 -223.08544922 371.32128906 C-224.86601845 370.0924647 -226.67656054 368.9308816 -228.50390625 367.7734375 C-229.32761719 367.18820312 -230.15132812 366.60296875 -231 366 C-231 365.34 -231 364.68 -231 364 C-231.721875 363.731875 -232.44375 363.46375 -233.1875 363.1875 C-236 362 -236 362 -238.5 360.3125 C-240.86517693 358.80213853 -240.86517693 358.80213853 -243.26953125 359.10546875 C-246.91727202 360.30050829 -249.37388651 362.48864082 -252.1875 365 C-253.04178589 365.7432251 -253.04178589 365.7432251 -253.91333008 366.50146484 C-255.61850685 367.99047899 -257.31099566 369.49268543 -259 371 C-259.8971875 371.79664063 -260.794375 372.59328125 -261.71875 373.4140625 C-264.15682813 375.5975312 -266.57934748 377.79724582 -269 380 C-270.62436435 381.45904132 -272.24937427 382.91736421 -273.875 384.375 C-275.58342973 385.91655985 -277.29175988 387.45823005 -279 389 C-279.89074219 389.79664063 -280.78148437 390.59328125 -281.69921875 391.4140625 C-288.64815583 397.68991018 -295.29788771 404.22015977 -301.86157227 410.8984375 C-308.16468608 417.27997612 -314.50040754 423.05708679 -322 428 C-322.556875 428.7425 -323.11375 429.485 -323.6875 430.25 C-327.08169433 432.8185795 -330.04489525 432.78738245 -334.2265625 432.6640625 C-338.44311999 431.65446423 -340.28763348 429.30093798 -342.85546875 425.9453125 C-344 424 -344 424 -344 422 C-344.66 422 -345.32 422 -346 422 C-346.33773437 420.97519531 -346.67546875 419.95039062 -347.0234375 418.89453125 C-347.4738774 417.53382737 -347.92440276 416.17315178 -348.375 414.8125 C-348.59671875 414.13896484 -348.8184375 413.46542969 -349.046875 412.77148438 C-350.00787131 409.87436315 -350.99226464 407.01861158 -352.1640625 404.19921875 C-353 402 -353 402 -353 399 C-353.66 399 -354.32 399 -355 399 C-355.50833591 397.75336669 -356.00631145 396.50250613 -356.5 395.25 C-356.7784375 394.55390625 -357.056875 393.8578125 -357.34375 393.140625 C-358 391 -358 391 -358 387 C-358.66 387 -359.32 387 -360 387 C-360.33 383.7 -360.66 380.4 -361 377 C-361.66 377 -362.32 377 -363 377 C-369 359.26213592 -369 359.26213592 -369 355 C-369.66 355 -370.32 355 -371 355 C-371.19335938 354.22914063 -371.38671875 353.45828125 -371.5859375 352.6640625 C-371.84632813 351.66117188 -372.10671875 350.65828125 -372.375 349.625 C-372.63023437 348.62726563 -372.88546875 347.62953125 -373.1484375 346.6015625 C-373.82404319 343.87458985 -373.82404319 343.87458985 -376 342 C-376.80615234 340.00390625 -376.80615234 340.00390625 -377.5859375 337.5625 C-378.02292969 336.21865234 -378.02292969 336.21865234 -378.46875 334.84765625 C-378.7678125 333.90792969 -379.066875 332.96820312 -379.375 332 C-381.09855042 326.62343783 -382.83608443 321.29362946 -384.9765625 316.06640625 C-387.68231045 309.4452357 -389.80753473 302.63833461 -392 295.83398438 C-393.50865841 291.2225578 -395.05120614 286.73889011 -397.10546875 282.33984375 C-399.49479068 277.17035762 -400.66782165 271.78418077 -401.80273438 266.22265625 C-402.35067674 263.96597377 -402.90589534 262.04951207 -404 260 C-406.56679448 258.48731094 -408.2273011 257.76634269 -411 257 C-412.35267463 256.51844717 -413.70289841 256.0299629 -415.05078125 255.53515625 C-416.47068271 255.04233198 -417.89127607 254.55149739 -419.3125 254.0625 C-424.04956907 252.41741546 -428.74538751 250.74460152 -433.375 248.8125 C-436.56291447 247.50083055 -439.70987569 246.49363079 -443.046875 245.6328125 C-449.07748966 244.01870958 -454.96650847 242.07241419 -460.875 240.0625 C-469.21737669 237.25294095 -477.56175162 234.50933334 -486 232 C-487.75011621 231.47955728 -489.50012123 230.95874049 -491.25 230.4375 C-491.95640625 230.22996094 -492.6628125 230.02242187 -493.390625 229.80859375 C-495.58478771 229.12866608 -497.76022985 228.41502827 -499.9375 227.68359375 C-503.81457344 226.38202769 -507.70827636 225.14168289 -511.609375 223.9140625 C-513.98967115 223.15131567 -516.3698778 222.38828946 -518.75 221.625 C-519.95527344 221.25117187 -521.16054688 220.87734375 -522.40234375 220.4921875 C-533.49494567 216.89724881 -533.49494567 216.89724881 -537 212 C-537 211.34 -537 210.68 -537 210 C-537.66 210 -538.32 210 -539 210 C-540.41992028 205.74023917 -540.37932292 201.89661461 -539.5 197.5 C-536.31785304 192.19642173 -530.56891109 187.62976357 -525 185 C-523.68 185 -522.36 185 -521 185 C-521 184.34 -521 183.68 -521 183 C-516.20953353 181.02980815 -511.42980523 179.09623389 -506.5 177.5 C-498.40795174 174.86406134 -490.60503773 171.43655788 -482.76171875 168.1484375 C-481.85035156 167.76945313 -480.93898438 167.39046875 -480 167 C-479.11957031 166.62101563 -478.23914063 166.24203125 -477.33203125 165.8515625 C-475 165 -475 165 -472 165 C-472 164.34 -472 163.68 -472 163 C-471.2265625 162.74605469 -470.453125 162.49210938 -469.65625 162.23046875 C-462.75238795 159.9491183 -455.88968729 157.64231241 -449.1875 154.8125 C-447 154 -447 154 -444 154 C-444 153.34 -444 152.68 -444 152 C-441.03 151.67 -438.06 151.34 -435 151 C-435 150.34 -435 149.68 -435 149 C-433.865625 148.5875 -432.73125 148.175 -431.5625 147.75 C-428.5934492 146.63920128 -425.69698908 145.43904503 -422.8125 144.125 C-414.73118456 140.48350604 -406.51850838 137.43385954 -398 135 C-390.38402141 132.2747074 -390.38402141 132.2747074 -383 129 C-381.00039988 128.960008 -378.99952758 128.95653201 -377 129 C-377 128.34 -377 127.68 -377 127 C-376.09378906 126.61328125 -375.18757812 126.2265625 -374.25390625 125.828125 C-373.66859131 125.57780518 -373.08327637 125.32748535 -372.48022461 125.06958008 C-371.19120618 124.51869085 -369.90164558 123.96906865 -368.61157227 123.4206543 C-365.18079105 121.95707796 -361.79779444 120.42972036 -358.4375 118.8125 C-353.80288638 116.71692424 -348.98174484 115.73055148 -344.015625 114.7109375 C-341.00660005 114.08108861 -341.00660005 114.08108861 -338.296875 112.9140625 C-336 112 -336 112 -333 112 C-333 111.34 -333 110.68 -333 110 C-330.20897915 109.06053873 -327.41736281 108.1229594 -324.625 107.1875 C-323.80314209 106.91196289 -322.98128418 106.63642578 -322.13452148 106.35253906 C-317.06962414 104.66340704 -311.99671146 103.05729627 -306.84765625 101.640625 C-304.70342207 100.98393449 -304.70342207 100.98393449 -302 99 C-300.70133548 98.52299584 -299.38635314 98.08933997 -298.0625 97.6875 C-294.34284375 96.49576547 -290.77852777 95.09881897 -287.1875 93.5625 C-283.16806486 91.85080139 -279.1677541 90.3700307 -275 89.0625 C-270.76041462 87.70627373 -266.98852775 86.03206934 -263.0625 83.9375 C-257.82875204 81.20774126 -252.8667204 79.88108419 -247.10546875 78.7109375 C-242.50516418 77.65778601 -238.32297949 75.85700162 -234 74 C-231.34786148 72.9598389 -228.67461881 71.98069357 -226 71 C-224.8553125 70.57203125 -223.710625 70.1440625 -222.53125 69.703125 C-221.2710079 69.23910895 -220.01058984 68.77557051 -218.75 68.3125 C-217.56921875 67.87550781 -216.3884375 67.43851562 -215.171875 66.98828125 C-212 66 -212 66 -208 66 C-208 65.34 -208 64.68 -208 64 C-206.99582031 63.70867187 -205.99164062 63.41734375 -204.95703125 63.1171875 C-196.93539896 60.73288426 -189.43977617 57.98038928 -181.87890625 54.34375 C-178.00541664 52.53577113 -174.09009687 51.21961702 -170 50 C-160.98523162 47.29898849 -152.26561315 44.38442859 -143.6875 40.5 C-140.40914904 39.16643351 -137.20106381 38.13110564 -133.8125 37.125 C-126.50853713 34.92794114 -119.54726926 32.11955361 -112.63671875 28.8984375 C-107.61810153 26.56295311 -102.65643826 24.96554493 -97.28515625 23.61328125 C-94.99276465 23.07975324 -94.99276465 23.07975324 -93 22 C-91.00039988 21.960008 -88.99952758 21.95653201 -87 22 C-87 21.34 -87 20.68 -87 20 C-86.39003174 19.79842285 -85.78006348 19.5968457 -85.15161133 19.38916016 C-82.37137604 18.46937115 -79.59193366 17.5472084 -76.8125 16.625 C-75.85279297 16.30789063 -74.89308594 15.99078125 -73.90429688 15.6640625 C-72.50727539 15.2 -72.50727539 15.2 -71.08203125 14.7265625 C-70.22843018 14.44377441 -69.3748291 14.16098633 -68.49536133 13.86962891 C-65.96427035 13.02110976 -65.96427035 13.02110976 -63.43237305 11.89208984 C-61 11 -61 11 -57 11 C-57 10.34 -57 9.68 -57 9 C-56.27296875 8.84144531 -55.5459375 8.68289063 -54.796875 8.51953125 C-46.41981471 6.57562367 -38.74815698 3.70240906 -30.97265625 0.046875 C-22.69777737 -3.78096013 -7.55856726 -6.00809192 0 0 Z " fill="#FEFEFE" transform="translate(757,297)"/>
<path d="M0 0 C-0.422813 4.93281831 -2.52251785 6.64427843 -6 10 C-7.82251973 11.95017759 -9.63476313 13.90679895 -11.4375 15.875 C-12.50366048 17.03277845 -13.57007695 18.19032121 -14.63671875 19.34765625 C-16.31257829 21.16728664 -17.98818128 22.98714692 -19.66259766 24.80810547 C-26.43910785 32.16732815 -33.31436116 39.41207766 -40.375 46.5 C-41.01663086 47.14622314 -41.65826172 47.79244629 -42.31933594 48.45825195 C-45.41818041 51.54709757 -48.56369715 54.52343549 -51.8828125 57.375 C-56.66715236 61.50740528 -61.0677216 65.99657749 -65.5 70.5 C-70.54128847 75.62220803 -75.59840434 80.62309489 -81.05224609 85.30615234 C-84.48339753 88.29002408 -87.76353842 91.43414762 -91.0625 94.5625 C-92.55835778 95.97551027 -94.05445617 97.38826585 -95.55078125 98.80078125 C-96.29537598 99.50412598 -97.0399707 100.2074707 -97.80712891 100.93212891 C-103.51405366 106.31374243 -109.25518878 111.65888674 -115 117 C-115.5882959 117.5470459 -116.1765918 118.0940918 -116.78271484 118.65771484 C-118.49949557 120.25258271 -120.21809686 121.84546006 -121.9375 123.4375 C-122.43282227 123.89737305 -122.92814453 124.35724609 -123.43847656 124.83105469 C-126.20553302 127.38767457 -129.0127894 129.88756857 -131.859375 132.35546875 C-136.86899651 136.71972647 -141.65300772 141.31563553 -146.43945312 145.921875 C-147.11556641 146.56382812 -147.79167969 147.20578125 -148.48828125 147.8671875 C-149.09196533 148.44581543 -149.69564941 149.02444336 -150.31762695 149.62060547 C-152 151 -152 151 -155 152 C-155 152.66 -155 153.32 -155 154 C-156.3984375 155.41015625 -156.3984375 155.41015625 -158.375 157.0625 C-165.40094994 163.04072056 -172.20570995 169.26105422 -179 175.5 C-185.58526469 181.54700551 -192.19267545 187.56827133 -198.9375 193.4375 C-202.16559512 196.24822525 -205.33738443 199.115799 -208.5 202 C-210.33275732 203.66730006 -212.16606371 205.33399683 -214 207 C-214.78375 207.71285156 -215.5675 208.42570313 -216.375 209.16015625 C-217.426875 210.10181641 -217.426875 210.10181641 -218.5 211.0625 C-219.1084375 211.61035156 -219.716875 212.15820312 -220.34375 212.72265625 C-222 214 -222 214 -225 215 C-225.62882275 217.85388786 -226.09712324 220.11867731 -226 223 C-224.33521215 225.35366557 -223.27557408 226.36676521 -221 228 C-220.23558594 228.5671875 -219.47117187 229.134375 -218.68359375 229.71875 C-213.34895244 233.56294954 -207.88984788 236.88120552 -202.12109375 240.0234375 C-198.97182078 241.77230308 -196.5248152 243.4751848 -194 246 C-189.36649075 249.59318313 -184.66629457 253.20368037 -179.5 256 C-175.45517536 258.19412657 -171.87125523 260.98150029 -168.17578125 263.7109375 C-162.79529883 267.5891204 -157.25058182 271.22162378 -151.71118164 274.86767578 C-150.05236501 275.96534899 -148.40487171 277.08007482 -146.7578125 278.1953125 C-143.97860406 280.09479298 -143.97860406 280.09479298 -140.6875 281.625 C-138 283 -138 283 -137 285 C-138.01449219 284.72414063 -139.02898437 284.44828125 -140.07421875 284.1640625 C-144.73273769 283.96937813 -145.76426805 284.75420173 -149.08496094 287.72143555 C-149.65504883 288.26711182 -150.22513672 288.81278809 -150.8125 289.375 C-151.4199707 289.92647705 -152.02744141 290.4779541 -152.65332031 291.04614258 C-153.87956389 292.16221836 -155.09830271 293.28660003 -156.30908203 294.41943359 C-158.58722559 296.54890246 -160.91995498 298.61512189 -163.25 300.6875 C-164.83390755 302.12436727 -166.41725216 303.56185537 -168 305 C-169.62449734 306.45889324 -171.2495068 307.91721642 -172.875 309.375 C-174.58342973 310.91655985 -176.29175988 312.45823005 -178 314 C-178.89074219 314.79664063 -179.78148437 315.59328125 -180.69921875 316.4140625 C-187.64815583 322.68991018 -194.29788771 329.22015977 -200.86157227 335.8984375 C-207.16468608 342.27997612 -213.50040754 348.05708679 -221 353 C-221.8353125 354.11375 -221.8353125 354.11375 -222.6875 355.25 C-226.08169433 357.8185795 -229.04489525 357.78738245 -233.2265625 357.6640625 C-237.44311999 356.65446423 -239.28763348 354.30093798 -241.85546875 350.9453125 C-243 349 -243 349 -243 347 C-243.66 347 -244.32 347 -245 347 C-245.33773437 345.97519531 -245.67546875 344.95039062 -246.0234375 343.89453125 C-246.4738774 342.53382737 -246.92440276 341.17315178 -247.375 339.8125 C-247.70757812 338.80219727 -247.70757812 338.80219727 -248.046875 337.77148438 C-249.00787131 334.87436315 -249.99226464 332.01861158 -251.1640625 329.19921875 C-252 327 -252 327 -252 324 C-252.66 324 -253.32 324 -254 324 C-254.50833591 322.75336669 -255.00631145 321.50250613 -255.5 320.25 C-255.7784375 319.55390625 -256.056875 318.8578125 -256.34375 318.140625 C-257 316 -257 316 -257 312 C-257.66 312 -258.32 312 -259 312 C-259.495 307.05 -259.495 307.05 -260 302 C-260.66 302 -261.32 302 -262 302 C-268 284.26213592 -268 284.26213592 -268 280 C-268.66 280 -269.32 280 -270 280 C-270.19335938 279.22914063 -270.38671875 278.45828125 -270.5859375 277.6640625 C-270.84632813 276.66117188 -271.10671875 275.65828125 -271.375 274.625 C-271.63023437 273.62726563 -271.88546875 272.62953125 -272.1484375 271.6015625 C-272.82404319 268.87458985 -272.82404319 268.87458985 -275 267 C-275.80615234 265.00390625 -275.80615234 265.00390625 -276.5859375 262.5625 C-276.87726563 261.66660156 -277.16859375 260.77070312 -277.46875 259.84765625 C-277.7678125 258.90792969 -278.066875 257.96820312 -278.375 257 C-280.09855042 251.62343783 -281.83608443 246.29362946 -283.9765625 241.06640625 C-286.68231045 234.4452357 -288.80753473 227.63833461 -291 220.83398438 C-292.50865841 216.2225578 -294.05120614 211.73889011 -296.10546875 207.33984375 C-298.49479068 202.17035762 -299.66782165 196.78418077 -300.80273438 191.22265625 C-301.76770028 186.88550076 -301.76770028 186.88550076 -304.72802734 183.79589844 C-306.86063959 182.82998052 -306.86063959 182.82998052 -310 182 C-307.50910213 180.75455107 -306.0764255 181.06376306 -303.3125 181.25 C-298.51858834 181.32609384 -296.13112351 180.33171948 -292.5703125 177.19140625 C-291 176 -291 176 -289.0546875 175.58984375 C-286.85369167 175.13760502 -286.85369167 175.13760502 -285.2421875 173.2421875 C-282.21872848 170.21872848 -278.7916168 168.29054813 -275.125 166.125 C-267.97426434 161.83087645 -260.90196599 157.43134086 -253.875 152.9375 C-246.91084612 148.48879634 -239.93413766 144.06380715 -232.91894531 139.69604492 C-228.47779482 136.92913767 -224.05237235 134.13824023 -219.63208008 131.33813477 C-211.65359482 126.28408407 -203.64313228 121.31016807 -195.49609375 116.53125 C-193.21694187 115.13308484 -191.09106931 113.64446774 -188.9375 112.0625 C-183.73551885 108.3905133 -178.33104153 105.09251033 -172.875 101.8125 C-172.02800537 101.30146729 -171.18101074 100.79043457 -170.30834961 100.26391602 C-166.43952051 97.95469096 -162.57530334 95.7466595 -158.5234375 93.7734375 C-155.24207031 92.12184027 -153.50189648 90.59124993 -151 88 C-149.66666667 87.66666667 -148.33333333 87.33333333 -147 87 C-146.48566406 86.443125 -145.97132813 85.88625 -145.44140625 85.3125 C-141.98670721 82.04020907 -138.03724908 79.8838834 -133.9375 77.5 C-127.08069417 73.45139131 -120.28044344 69.33781282 -113.5625 65.0625 C-103.42718259 58.62304958 -93.22084031 52.30261913 -83 46 C-81.50919922 45.07960938 -81.50919922 45.07960938 -79.98828125 44.140625 C-66.14006958 35.59191717 -52.25979055 27.09852914 -38.33764648 18.67089844 C-37.23364502 18.00219727 -36.12964355 17.33349609 -34.9921875 16.64453125 C-33.95416992 16.01627441 -32.91615234 15.38801758 -31.84667969 14.74072266 C-29.38147298 13.23326778 -26.94185924 11.69366738 -24.5078125 10.13671875 C-21.75645128 8.40041934 -19.04322647 7.16648374 -16 6 C-14.41161317 5.01993153 -12.84799018 3.99852632 -11.3125 2.9375 C-5.23529693 -1.23993875 -5.23529693 -1.23993875 0 0 Z " fill="#C8DAEA" transform="translate(656,372)"/>
<path d="M0 0 C3.3780593 1.57377822 6.3598778 3.52870916 9.4375 5.625 C14.893369 9.30236268 20.4479394 12.75688063 26.08984375 16.140625 C28.90268496 17.93782288 31.4214272 19.88466842 34 22 C41.00535386 27.36898 41.00535386 27.36898 48.5 32 C52.54482464 34.19412657 56.12874477 36.98150029 59.82421875 39.7109375 C65.20470117 43.5891204 70.74941818 47.22162378 76.28881836 50.86767578 C77.94763499 51.96534899 79.59512829 53.08007482 81.2421875 54.1953125 C84.02139594 56.09479298 84.02139594 56.09479298 87.3125 57.625 C90 59 90 59 91 61 C89.98550781 60.72414063 88.97101563 60.44828125 87.92578125 60.1640625 C83.26726231 59.96937813 82.23573195 60.75420173 78.91503906 63.72143555 C78.34495117 64.26711182 77.77486328 64.81278809 77.1875 65.375 C76.5800293 65.92647705 75.97255859 66.4779541 75.34667969 67.04614258 C74.12043611 68.16221836 72.90169729 69.28660003 71.69091797 70.41943359 C69.41277441 72.54890246 67.08004502 74.61512189 64.75 76.6875 C63.16609245 78.12436727 61.58274784 79.56185537 60 81 C58.37550266 82.45889324 56.7504932 83.91721642 55.125 85.375 C53.41657027 86.91655985 51.70824012 88.45823005 50 90 C49.10925781 90.79664063 48.21851563 91.59328125 47.30078125 92.4140625 C40.35184417 98.68991018 33.70211229 105.22015977 27.13842773 111.8984375 C20.83531392 118.27997612 14.49959246 124.05708679 7 129 C6.1646875 130.11375 6.1646875 130.11375 5.3125 131.25 C1.88809788 133.84143944 -1.22438766 133.60167101 -5.42578125 133.47265625 C-8 133 -8 133 -10.6875 130.5 C-11.120625 129.675 -11.55375 128.85 -12 128 C-11.34 128 -10.68 128 -10 128 C-10.00523682 127.43079834 -10.01047363 126.86159668 -10.01586914 126.27514648 C-10.03682887 123.66260917 -10.04972004 121.05008963 -10.0625 118.4375 C-10.07506836 117.09461914 -10.07506836 117.09461914 -10.08789062 115.72460938 C-10.09111328 114.84482422 -10.09433594 113.96503906 -10.09765625 113.05859375 C-10.10289307 112.25736084 -10.10812988 111.45612793 -10.11352539 110.63061523 C-10 108 -10 108 -9.53881836 104.90356445 C-8.8307129 99.77356977 -8.56391788 94.65294628 -8.28125 89.484375 C-8.15239276 87.24218468 -8.02348503 84.99999727 -7.89453125 82.7578125 C-7.69580871 79.2399798 -7.49844269 75.72207604 -7.30224609 72.20410156 C-7.11118947 68.79732019 -6.91520584 65.39084862 -6.71875 61.984375 C-6.661427 60.92812927 -6.604104 59.87188354 -6.54504395 58.78363037 C-6.48828491 57.80541321 -6.43152588 56.82719604 -6.37304688 55.81933594 C-6.32498901 54.95886658 -6.27693115 54.09839722 -6.22741699 53.21185303 C-6 51 -6 51 -5 48 C-4.80434453 45.90574845 -4.65647676 43.80690075 -4.53515625 41.70703125 C-4.45837646 40.44342773 -4.38159668 39.17982422 -4.30249023 37.87792969 C-4.26340546 37.21289429 -4.22432068 36.54785889 -4.18405151 35.8626709 C-2.3346432 4.6692864 -2.3346432 4.6692864 0 0 Z " fill="#A8C6D8" transform="translate(428,596)"/>
<path d="M0 0 C0.33 0 0.66 0 1 0 C1.61827869 7.45369312 0.15578079 13.54947535 -2.0546875 20.65234375 C-2.87460316 23.55592936 -3.33559095 26.13078708 -3.5625 29.125 C-4.00898787 33.07960686 -4.55947178 34.08690265 -7 37 C-6.688288 34.47906702 -6.37565098 31.9582543 -6.0625 29.4375 C-5.97548828 28.73302734 -5.88847656 28.02855469 -5.79882812 27.30273438 C-4.17832708 14.27870747 -4.17832708 14.27870747 -2 8 C-1.29094651 5.34225528 -0.64550647 2.67424109 0 0 Z " fill="#7AC5E9" transform="translate(751,371)"/>
<path d="M0 0 C0.33 0 0.66 0 1 0 C1.30006965 18.00417907 1.30006965 18.00417907 -2 26 C-2.33322534 28.06972528 -2.33322534 28.06972528 -2.4375 30.0625 C-2.97660217 33.83621521 -3.42666011 35.31477576 -6 38 C-6.24372741 33.53166419 -6.19728785 30.09920452 -4.59375 25.90625 C-2.76467559 20.6613886 -2.01211168 15.43117207 -1.3125 9.9375 C-1.18294922 8.97650391 -1.05339844 8.01550781 -0.91992188 7.02539062 C-0.60547553 4.68451226 -0.29899053 2.34289368 0 0 Z " fill="#61BBE5" transform="translate(758,332)"/>
<path d="M0 0 C-1.28519565 2.86697492 -2.57129254 4.97607712 -5 7 C-5.66 7 -6.32 7 -7 7 C-7 11.29 -7 15.58 -7 20 C-9.47717167 16.28424249 -9.30345742 14.40013262 -9 10 C-7.89542243 5.78252199 -4.87519149 0 0 0 Z " fill="#BDE2F3" transform="translate(226,487)"/>
<path d="M0 0 C0.7974855 2.31995782 1.11434828 3.61982909 0.3984375 6 C-1.82693347 10.34881655 -3.83175254 13.22116836 -8 16 C-8.66 15.67 -9.32 15.34 -10 15 C-9.61328125 14.5875 -9.2265625 14.175 -8.828125 13.75 C-4.94262217 9.4413236 -2.40726392 5.2774632 0 0 Z " fill="#69BAE3" transform="translate(669,721)"/>
<path d="M0 0 C0.33 0 0.66 0 1 0 C1.34548714 6.33393082 0.29342747 11.10261508 -2 17 C-3.1700097 13.08263419 -2.69584017 10.02040985 -2 6 C-1.34 6 -0.68 6 0 6 C0 4.02 0 2.04 0 0 Z " fill="#71C1E7" transform="translate(743,409)"/>
<path d="M0 0 C0.33 0 0.66 0 1 0 C1 2.64 1 5.28 1 8 C0.34 8 -0.32 8 -1 8 C-1 9.65 -1 11.3 -1 13 C-1.99 13.495 -1.99 13.495 -3 14 C-2.58846263 9.02906176 -2.20399168 4.55491614 0 0 Z " fill="#6FBDE4" transform="translate(677,689)"/>
<path d="M0 0 C2 3.75 2 3.75 2 6 C1.34 6 0.68 6 0 6 C0.04125 6.94875 0.0825 7.8975 0.125 8.875 C0 12 0 12 -2 14 C-1.85795259 12.41632253 -1.71119847 10.83306682 -1.5625 9.25 C-1.48128906 8.36828125 -1.40007813 7.4865625 -1.31640625 6.578125 C-1.03761535 4.30649548 -0.61209423 2.20148177 0 0 Z " fill="#6EC0E6" transform="translate(739,426)"/>
<path d="M0 0 C-1.39332574 3.36720387 -2.9789286 4.9859524 -6 7 C-5.37162381 3.35541809 -4.14650034 0 0 0 Z " fill="#D1EBF7" transform="translate(226,487)"/>
</svg>
