<?xml version="1.0" encoding="UTF-8"?>
<svg version="1.1" xmlns="http://www.w3.org/2000/svg" width="798" height="798">
<path d="M0 0 C0.9885498 -0.00067474 1.97709961 -0.00134949 2.99560547 -0.00204468 C59.11057837 0.05839483 115.1878869 11.42262469 166.1953125 35.12402344 C168.4540733 36.17078839 170.72368458 37.18743841 173 38.1953125 C198.50233749 49.63111012 222.71752768 64.93433388 244.625 82.25 C245.44097656 82.88679688 246.25695312 83.52359375 247.09765625 84.1796875 C266.57507844 99.55172593 285.5473311 116.29773749 301.625 135.25 C302.48222656 136.21808594 303.33945312 137.18617188 304.22265625 138.18359375 C327.07109335 164.10363678 345.07594937 193.5178854 360.625 224.25 C361.03250488 225.04889648 361.44000977 225.84779297 361.85986328 226.67089844 C408.08294282 317.9333679 412.0997162 429.19385425 380.828125 525.6484375 C360.35050221 586.9483343 325.2905654 640.50160569 279.875 686.125 C279.17810059 686.82657227 278.48120117 687.52814453 277.76318359 688.25097656 C273.21293597 692.78720352 268.50103978 697.06796219 263.625 701.25 C262.64917969 702.10722656 261.67335938 702.96445312 260.66796875 703.84765625 C246.86800344 715.7598014 232.02563489 726.50066295 216.625 736.25 C215.55838135 736.92530762 215.55838135 736.92530762 214.47021484 737.61425781 C166.203422 767.89645552 112.96078728 787.09371758 56.625 795.25 C54.9553418 795.4977417 54.9553418 795.4977417 53.25195312 795.75048828 C18.19555594 800.72109474 -19.37083853 800.49933255 -54.375 795.25 C-55.50663574 795.08371094 -56.63827148 794.91742187 -57.80419922 794.74609375 C-94.52857923 789.17005967 -130.09937874 778.88046242 -163.88085938 763.39208984 C-166.16860104 762.34451198 -168.46506198 761.31979782 -170.765625 760.30078125 C-203.28832129 745.69312953 -233.82070824 724.97380805 -260.375 701.25 C-261.69177734 700.08210937 -261.69177734 700.08210937 -263.03515625 698.890625 C-264.66560468 697.43329867 -266.2894446 695.96854152 -267.90625 694.49609375 C-269.62365148 692.93358449 -271.35384734 691.38507024 -273.09375 689.84765625 C-285.58327363 678.68430516 -297.00970606 666.40523936 -307.375 653.25 C-308.30158766 652.11311575 -309.23009894 650.97779757 -310.16015625 649.84375 C-363.0092633 585.14394492 -397.02086113 500.01291798 -397.61328125 415.97265625 C-397.62312042 414.82043579 -397.63295959 413.66821533 -397.64309692 412.4810791 C-397.96773713 364.53731308 -393.26493611 319.98012931 -378.375 274.25 C-378.08657227 273.3518457 -377.79814453 272.45369141 -377.50097656 271.52832031 C-373.02408867 257.71108754 -367.34287469 244.48066559 -361.375 231.25 C-361.03887695 230.49122559 -360.70275391 229.73245117 -360.35644531 228.95068359 C-343.63811082 191.22615162 -318.9842644 156.6682378 -290.734375 126.7109375 C-288.65195392 124.47293323 -286.64378902 122.17033546 -284.625 119.875 C-281.39798364 116.27004478 -278.0250102 113.06782356 -274.328125 109.953125 C-272.29707045 108.18204543 -270.43693232 106.31038946 -268.5625 104.375 C-263.82688488 99.58431958 -258.63412398 95.44801447 -253.375 91.25 C-252.22694811 90.31231888 -251.07985124 89.37346756 -249.93359375 88.43359375 C-179.51563701 30.96269106 -90.67792918 0.05598106 0 0 Z " fill="#000000" transform="translate(397.375,-0.24999999999999997)"/>
<path d="M0 0 C30.69 0 61.38 0 93 0 C93.66 7.59 94.32 15.18 95 23 C96.15544273 28.24075809 97.31016044 32.96939211 99 38 C99.21140625 38.63953613 99.4228125 39.27907227 99.640625 39.93798828 C108.54959033 66.50302079 126.1552621 92.87334263 151 107 C152.09570312 107.66515625 153.19140625 108.3303125 154.3203125 109.015625 C175.07084918 121.33823446 196.01939358 126.15533797 220 128 C220 158.36 220 188.72 220 220 C198.7877208 220 198.7877208 220 188.4375 218.4375 C187.2505957 218.26041504 186.06369141 218.08333008 184.84082031 217.90087891 C154.4748749 213.06864856 125.89214613 201.41916172 99.9375 185.0625 C99.33470215 184.68472412 98.7319043 184.30694824 98.11083984 183.91772461 C96.70202973 183.00185176 95.34453396 182.00786777 94 181 C94 180.34 94 179.68 94 179 C93.34 179 92.68 179 92 179 C92.00460896 180.04377776 92.00921793 181.08755552 92.01396656 182.16296291 C92.12540964 207.66626875 92.20733869 233.16954268 92.25906086 258.67304134 C92.28474391 271.00680684 92.31970321 283.34041063 92.37719727 295.67407227 C92.42733736 306.43537136 92.45936275 317.19655323 92.47044247 327.95796591 C92.47690983 333.64585595 92.49189883 339.33341089 92.52865028 345.02119255 C92.70903003 374.07692285 92.10873862 400.71129106 81 428 C80.74524902 428.65194336 80.49049805 429.30388672 80.22802734 429.97558594 C69.83608845 456.46688597 51.61954756 480.73096865 29 498 C28.08992188 498.72574219 27.17984375 499.45148438 26.2421875 500.19921875 C8.93217627 513.71234741 -10.78836473 523.32830376 -32 529 C-32.97694824 529.26272705 -32.97694824 529.26272705 -33.97363281 529.53076172 C-44.49747538 532.33695635 -54.49347959 534.1317513 -65.37890625 534.2734375 C-66.70094055 534.29222961 -66.70094055 534.29222961 -68.04968262 534.31140137 C-86.57520058 534.52396391 -104.16132552 534.62147809 -122 529 C-123.56611467 528.54846663 -125.13251868 528.0979355 -126.69921875 527.6484375 C-140.71791309 523.44804061 -155.0330429 517.54096058 -166.75 508.671875 C-169.24562749 506.81748513 -171.84095755 505.23519793 -174.5 503.625 C-179.35139916 500.57320307 -183.48804823 497.08972338 -187.66796875 493.1796875 C-189.72851736 491.2537476 -191.83873989 489.43543432 -194 487.625 C-213.31158844 470.63080217 -227.40340927 447.06530638 -236 423 C-236.22526367 422.37496582 -236.45052734 421.74993164 -236.68261719 421.10595703 C-246.11973629 394.712987 -248.69870508 366.68164216 -244 339 C-243.87641113 338.23896973 -243.75282227 337.47793945 -243.62548828 336.69384766 C-239.26214526 310.43445604 -229.12905679 286.25557856 -213 265 C-212.36835938 264.15824219 -211.73671875 263.31648438 -211.0859375 262.44921875 C-183.72357972 227.14839915 -143.9020478 203.26720522 -99.43359375 197.37109375 C-91.27459569 196.3619702 -83.22731525 195.6357699 -75 196 C-74.28714844 196.0299707 -73.57429687 196.05994141 -72.83984375 196.09082031 C-70.39269903 196.19726116 -67.94637425 196.31465031 -65.5 196.4375 C-64.70916016 196.47657471 -63.91832031 196.51564941 -63.10351562 196.5559082 C-59.87120664 196.73854623 -57.08615766 196.97128078 -54 198 C-54 205.26 -54 212.52 -54 220 C-48.10737288 219.96077135 -48.10737288 219.96077135 -42.21484375 219.90991211 C-41.46332031 219.90741455 -40.71179688 219.90491699 -39.9375 219.90234375 C-39.18339844 219.89710693 -38.42929687 219.89187012 -37.65234375 219.88647461 C-34.08548087 220.03914317 -30.54255966 220.55718004 -27 221 C-27 252.02 -27 283.04 -27 315 C-31.29 314.34 -35.58 313.68 -40 313 C-61.87969832 311.6133721 -81.9858456 315.35147013 -99.046875 330.04931641 C-101.47587033 332.27406954 -103.74117246 334.60063842 -106 337 C-106.73605469 337.77859375 -107.47210938 338.5571875 -108.23046875 339.359375 C-122.80550727 356.16154706 -127.48135501 377.2720076 -126 399 C-124.65146294 410.59062379 -119.76381257 425.90499726 -110.90625 433.88671875 C-100.27700356 440.09437292 -88.60978752 441.498991 -76.5 441.375 C-75.36691406 441.38660156 -74.23382813 441.39820313 -73.06640625 441.41015625 C-62.25678451 441.37300978 -52.47728502 439.32713696 -42.875 434.3125 C-41.85889648 433.79139648 -41.85889648 433.79139648 -40.82226562 433.25976562 C-34.96522748 430.16095136 -29.88817427 426.48302829 -25 422 C-23.94232422 421.06220703 -23.94232422 421.06220703 -22.86328125 420.10546875 C-8.79067906 406.94423508 -1.15951343 387.22117284 -0.49219131 368.15910339 C-0.45424245 365.37268981 -0.46507204 362.58806176 -0.48101807 359.80151367 C-0.47512569 358.2367726 -0.46748981 356.67203731 -0.458287 355.1073122 C-0.43822465 350.85636603 -0.44252817 346.60575734 -0.45119452 342.35478592 C-0.45617414 337.75239657 -0.4380116 333.15008827 -0.42277527 328.54772949 C-0.3995442 320.59001752 -0.39071112 312.63239648 -0.39188385 304.6746521 C-0.39355822 293.16935929 -0.3731663 281.66418713 -0.34752855 270.15892661 C-0.30651786 251.48876945 -0.28315252 232.81863411 -0.27099609 214.1484375 C-0.2591549 196.02081203 -0.23893366 177.89322757 -0.20751953 159.765625 C-0.20558343 158.64671824 -0.20364733 157.52781148 -0.20165256 156.37499845 C-0.19188747 150.76131756 -0.18195846 145.14763698 -0.17194796 139.53395653 C-0.08921923 93.0226442 -0.03844573 46.51137415 0 0 Z " fill="#FEFEFE" transform="translate(397,112)"/>
<path d="M0 0 C4.62 0.66 9.24 1.32 14 2 C18.29 2.33 22.58 2.66 27 3 C27 33.36 27 63.72 27 95 C4.51927408 95 4.51927408 95 -3.5625 93.9375 C-5.04169922 93.74667847 -5.04169922 93.74667847 -6.55078125 93.55200195 C-24.10689879 91.05284672 -41.71510485 86.0518152 -58 79 C-58.73202637 78.68337402 -59.46405273 78.36674805 -60.21826172 78.04052734 C-74.66066032 71.69165736 -87.89753684 63.74455545 -101 55 C-100.99723462 56.54360592 -100.99723462 56.54360592 -100.99441338 58.11839581 C-100.94995627 83.19193196 -100.91712096 108.26546298 -100.89637566 133.33903027 C-100.88607598 145.46455984 -100.8720407 157.59006334 -100.84912109 169.71557617 C-100.82914712 180.28778184 -100.81627405 190.85996861 -100.81182301 201.43219262 C-100.80922242 207.0267965 -100.80313721 212.62134634 -100.78853989 218.21593285 C-100.77489263 223.48947807 -100.77079173 228.76294735 -100.77378464 234.03650856 C-100.77323766 235.96450845 -100.76930302 237.89251107 -100.76158905 239.82049561 C-100.72245713 250.11193428 -101.02909803 259.86698084 -103 270 C-103.19980469 271.258125 -103.39960937 272.51625 -103.60546875 273.8125 C-111.47870506 316.9303579 -137.4067324 355.30974259 -173.1171875 380.40234375 C-209.92185453 405.46262107 -255.96409657 415.62596071 -299.875 408.0390625 C-332.39027066 401.76790409 -372.33641927 385.22148463 -392 357 C-389.24940416 358.2997321 -386.88696158 359.76759183 -384.4375 361.5625 C-373.77935116 368.69111505 -361.65152446 373.67900287 -349.5625 377.8125 C-348.80291992 378.07796631 -348.04333984 378.34343262 -347.26074219 378.61694336 C-331.76421766 383.67602809 -316.30032314 385.65373184 -300.0534668 385.46655273 C-297.30261339 385.43739521 -294.55367953 385.4460531 -291.80273438 385.45898438 C-280.56308559 385.44512182 -269.98029529 384.38096875 -259 382 C-257.7531543 381.73082764 -256.50630859 381.46165527 -255.22167969 381.18432617 C-229.05921324 375.23495174 -203.7817985 361.34976842 -184.23046875 343.07421875 C-182.18839681 341.17519913 -180.08548418 339.40162345 -177.9375 337.625 C-172.97587405 333.29104962 -169.03453353 328.18330295 -165 323 C-164.27941406 322.10667969 -163.55882812 321.21335937 -162.81640625 320.29296875 C-152.91376302 307.67195287 -145.47776798 293.92431121 -139.5 279.0625 C-139.09080322 278.04518799 -138.68160645 277.02787598 -138.26000977 275.97973633 C-130.81135856 256.77416026 -128.5491137 237.48934449 -128.56762695 217.06811523 C-128.55858788 215.02621883 -128.54825549 212.98432781 -128.53674316 210.94244385 C-128.50939887 205.45394142 -128.49991964 199.96554258 -128.49388909 194.47698092 C-128.48444609 188.72078345 -128.45823834 182.96466157 -128.43388367 177.20851135 C-128.39037697 166.3328491 -128.36173308 155.45720165 -128.33856028 144.58147913 C-128.31142332 132.18949922 -128.26751735 119.79759596 -128.22227156 107.405671 C-128.12965223 81.93715568 -128.05786799 56.46861633 -128 31 C-127.34 31 -126.68 31 -126 31 C-126 31.66 -126 32.32 -126 33 C-125.29617188 33.24878906 -124.59234375 33.49757813 -123.8671875 33.75390625 C-120.63927394 35.15677331 -118.02319048 36.93912177 -115.125 38.9375 C-90.37522746 55.32910827 -61.12671112 64.975298 -31.9375 69.25 C-30.82705322 69.41330811 -29.71660645 69.57661621 -28.57250977 69.74487305 C-18.99870961 71.05149872 -9.73715444 71.45904698 0 72 C0 48.24 0 24.48 0 0 Z " fill="#FC2D56" transform="translate(617,260)"/>
<path d="M0 0 C30.69 0 61.38 0 93 0 C93.33 7.59 93.66 15.18 94 23 C71.89 23 49.78 23 27 23 C27.00444122 27.67360184 27.00888245 32.34720367 27.01345825 37.16242981 C27.05326218 80.02716003 27.08311693 122.89188807 27.10213066 165.75663273 C27.10463205 171.37543423 27.1072207 176.99423568 27.10986328 182.61303711 C27.1103879 183.73163223 27.11091252 184.85022736 27.11145304 186.00271931 C27.12015399 204.1112687 27.13592227 222.21980539 27.15430559 240.32834724 C27.17301324 258.91145349 27.18411856 277.49455309 27.18817699 296.07766837 C27.19092025 307.54303097 27.19958253 319.00835765 27.21583293 330.47370919 C27.22641048 338.33752896 27.22959887 346.20133019 27.22700275 354.06515656 C27.22572267 358.60111577 27.22767549 363.13701224 27.23841095 367.67296028 C27.2481781 371.83023581 27.2486125 375.98740669 27.24179779 380.14468714 C27.24095613 381.64420209 27.24346374 383.1437237 27.24976636 384.64322565 C27.33708264 406.7104273 21.42836022 426.15548249 5.7734375 442.21484375 C4.85820312 443.13394531 3.94296875 444.05304688 3 445 C2.29101562 445.74378906 1.58203125 446.48757813 0.8515625 447.25390625 C-12.22057073 460.05057307 -32.17141364 466.41518852 -50.125 466.5625 C-70.06994722 466.26165061 -88.55223487 458.86985452 -103 445 C-104.96338247 442.89434344 -106.84627846 440.76644415 -108.66015625 438.53125 C-109.94209854 436.87118705 -109.94209854 436.87118705 -112 436 C-111.67 435.34 -111.34 434.68 -111 434 C-110.48953125 434.25394531 -109.9790625 434.50789063 -109.453125 434.76953125 C-98.68374323 439.86780241 -88.35535631 441.4963859 -76.5 441.375 C-75.36691406 441.38660156 -74.23382813 441.39820313 -73.06640625 441.41015625 C-62.25678451 441.37300978 -52.47728502 439.32713696 -42.875 434.3125 C-41.85889648 433.79139648 -41.85889648 433.79139648 -40.82226562 433.25976562 C-34.96522748 430.16095136 -29.88817427 426.48302829 -25 422 C-24.29488281 421.37480469 -23.58976562 420.74960937 -22.86328125 420.10546875 C-8.79067906 406.94423508 -1.15951343 387.22117284 -0.49219131 368.15910339 C-0.45424245 365.37268981 -0.46507204 362.58806176 -0.48101807 359.80151367 C-0.47512569 358.2367726 -0.46748981 356.67203731 -0.458287 355.1073122 C-0.43822465 350.85636603 -0.44252817 346.60575734 -0.45119452 342.35478592 C-0.45617414 337.75239657 -0.4380116 333.15008827 -0.42277527 328.54772949 C-0.3995442 320.59001752 -0.39071112 312.63239648 -0.39188385 304.6746521 C-0.39355822 293.16935929 -0.3731663 281.66418713 -0.34752855 270.15892661 C-0.30651786 251.48876945 -0.28315252 232.81863411 -0.27099609 214.1484375 C-0.2591549 196.02081203 -0.23893366 177.89322757 -0.20751953 159.765625 C-0.20558343 158.64671824 -0.20364733 157.52781148 -0.20165256 156.37499845 C-0.19188747 150.76131756 -0.18195846 145.14763698 -0.17194796 139.53395653 C-0.08921923 93.0226442 -0.03844573 46.51137415 0 0 Z " fill="#24F0EA" transform="translate(397,112)"/>
<path d="M0 0 C0.71285156 0.0299707 1.42570313 0.05994141 2.16015625 0.09082031 C4.60730097 0.19726116 7.05362575 0.31465031 9.5 0.4375 C10.68625977 0.49611206 10.68625977 0.49611206 11.89648438 0.5559082 C15.12879336 0.73854623 17.91384234 0.97128078 21 2 C21 9.26 21 16.52 21 24 C17.926875 24.2475 14.85375 24.495 11.6875 24.75 C-25.30069807 28.14349202 -60.71625195 42.35240487 -87.94140625 68.0625 C-89.75588942 69.77024886 -91.6168947 71.3220452 -93.5625 72.875 C-98.37678929 76.97898432 -102.12400562 82.0324524 -106 87 C-107.10021484 88.37671875 -107.10021484 88.37671875 -108.22265625 89.78125 C-135.7817319 125.16574219 -147.55546472 170.4712237 -142.3125 214.9375 C-141.91796843 217.29924761 -141.4767937 219.65347604 -141 222 C-140.84934082 222.76763672 -140.69868164 223.53527344 -140.54345703 224.32617188 C-135.07803967 251.56400593 -122.8738424 283.65954412 -102 303 C-102.33 303.66 -102.66 304.32 -103 305 C-129.77391869 285.35195631 -149.82595975 258.28062166 -161 227 C-161.33789551 226.06244873 -161.33789551 226.06244873 -161.68261719 225.10595703 C-171.11973629 198.712987 -173.69870508 170.68164216 -169 143 C-168.87641113 142.23896973 -168.75282227 141.47793945 -168.62548828 140.69384766 C-164.26214526 114.43445604 -154.12905679 90.25557856 -138 69 C-137.36835938 68.15824219 -136.73671875 67.31648438 -136.0859375 66.44921875 C-108.72357972 31.14839915 -68.9020478 7.26720522 -24.43359375 1.37109375 C-16.27459569 0.3619702 -8.22731525 -0.3642301 0 0 Z " fill="#25F2EC" transform="translate(322,308)"/>
<path d="M0 0 C19 0 19 0 27 1 C27 32.02 27 63.04 27 95 C22.71 94.34 18.42 93.68 14 93 C-7.87969832 91.6133721 -27.9858456 95.35147013 -45.046875 110.04931641 C-47.47587033 112.27406954 -49.74117246 114.60063842 -52 117 C-53.10408203 118.16789062 -53.10408203 118.16789062 -54.23046875 119.359375 C-68.80550727 136.16154706 -73.48135501 157.2720076 -72 179 C-70.57492921 191.24842819 -65.09171418 201.48268151 -59 212 C-66.3053497 212 -73.06552369 204.32945316 -78.0625 199.5 C-94.10017615 183.38551505 -99.31304299 163.70218934 -99.38720703 141.46484375 C-99.12128239 119.16302919 -88.69351823 101.97544875 -73.01953125 86.64453125 C-59.34370309 74.22377746 -42.29516788 68.63555603 -24.1875 68.6875 C-22.51977539 68.66333008 -22.51977539 68.66333008 -20.81835938 68.63867188 C-19.16610352 68.63770508 -19.16610352 68.63770508 -17.48046875 68.63671875 C-16.49973389 68.63373779 -15.51899902 68.63075684 -14.50854492 68.62768555 C-9.57116163 69.1516233 -4.79015337 70.69359454 0 72 C0 48.24 0 24.48 0 0 Z " fill="#FD2D55" transform="translate(343,332)"/>
<path d="M0 0 C7.92 0 15.84 0 24 0 C25.13687944 2.27375888 25.19287123 3.73932181 25.32421875 6.26953125 C26.82035751 29.87431381 33.67306328 61.29784332 51.63964844 78.5769043 C53 80 53 80 53 82 C31.33542726 72.35446761 15.14626098 46.38894006 6.625 25.125 C3.39067382 16.60465597 1.13486136 9.07889091 0 0 Z " fill="#F82D54" transform="translate(492,135)"/>
<path d="M0 0 C1.74410156 0.87011719 1.74410156 0.87011719 3.5234375 1.7578125 C24.20838377 11.91937409 43.9536098 17.67549482 67 19 C67 25.6 67 32.2 67 39 C44.53886064 35.79126581 23.86174491 24.09041501 7.62109375 8.48046875 C5.04072734 5.95678242 5.04072734 5.95678242 2.16015625 3.80078125 C1.44730469 3.20652344 0.73445312 2.61226562 0 2 C0 1.34 0 0.68 0 0 Z " fill="#28F1EC" transform="translate(550,221)"/>
</svg>
