<?xml version="1.0" encoding="UTF-8"?>
<svg version="1.1" xmlns="http://www.w3.org/2000/svg" width="1024" height="1024">
<path d="M0 0 C18.11463439 -0.21026811 36.22092082 -0.18387687 54.33531189 0.02832031 C57.23134143 0.06173792 60.1273872 0.09343404 63.0234375 0.125 C253.12254659 2.21643724 253.12254659 2.21643724 460.9588623 52.05859375 C461.58147949 52.62964844 462.20409668 53.20070312 462.84558105 53.7890625 C470.74451491 61.26198644 476.70875002 70.5974539 481.9588623 80.05859375 C482.8251123 81.61320312 482.8251123 81.61320312 483.7088623 83.19921875 C501.30777164 116.42474585 503.00211359 158.08303442 506.73425293 194.85754395 C506.94439681 196.91683972 507.16039781 198.97553543 507.37683105 201.03417969 C515.57377689 280.58919113 515.10490162 361.85090407 494.9588623 572.05859375 C494.79563477 572.79255371 494.63240723 573.52651367 494.4642334 574.28271484 C491.29164156 588.26288988 486.08016887 602.17668217 477.9588623 614.05859375 C477.35300293 614.94804688 476.74714355 615.8375 476.1229248 616.75390625 C471.51492468 623.29253094 466.44331797 629.24351487 460.9588623 635.05859375 C460.02300293 636.09113281 460.02300293 636.09113281 459.0682373 637.14453125 C427.83147146 670.35000083 377.79335442 673.27478516 335.36334229 676.85284424 C332.87648476 677.06564273 330.39057533 677.2876736 327.90466309 677.51123047 C239.2264381 685.41158869 149.88536336 686.06569962 60.92261505 687.02636719 C58.22372807 687.05571371 55.52485727 687.08619587 52.82598877 687.1171875 C34.08984651 687.32973793 15.36140092 687.30401523 -3.37450409 687.08886719 C-6.30636013 687.05558276 -9.23823096 687.02384745 -12.17010498 686.9921875 C-224.17705865 684.67742939 -224.17705865 684.67742939 -409.6036377 634.99609375 C-415.02992713 629.43919673 -419.81615392 623.58992161 -424.0411377 617.05859375 C-424.55805176 616.26324219 -425.07496582 615.46789062 -425.60754395 614.6484375 C-427.16077899 612.15433945 -428.6154754 609.62775601 -430.0411377 607.05859375 C-430.9073877 605.50398437 -430.9073877 605.50398437 -431.7911377 603.91796875 C-443.97928765 580.9075822 -447.34106305 553.63966729 -450.75805664 528.16088867 C-450.96426 526.62952419 -451.17283247 525.09847815 -451.3828125 523.56762695 C-462.69180597 440.9811892 -463.41592516 355.97610797 -444.0411377 119.05859375 C-443.84552246 118.18380371 -443.64990723 117.30901367 -443.44836426 116.40771484 C-439.94074909 101.13120454 -434.95006406 86.09283576 -426.0411377 73.05859375 C-425.43527832 72.16914063 -424.82941895 71.2796875 -424.2052002 70.36328125 C-419.59720007 63.82465656 -414.52559336 57.87367263 -409.0411377 52.05859375 C-408.41723145 51.37023437 -407.7933252 50.681875 -407.1505127 49.97265625 C-372.2299732 12.85124242 -312.27890981 12.1450733 -265.2286377 8.62109375 C-264.53523914 8.56900631 -263.84184059 8.51691887 -263.12742996 8.46325302 C-178.24905495 2.12377122 -93.04796486 1.01814268 -7.96986389 0.09082031 C-5.31322921 0.06158774 -2.65661313 0.03112033 0 0 Z " fill="#FF0000" transform="translate(486.0411376953125,168.94140625)"/>
<path d="M0 0 C4.99064031 1.66354677 8.9029446 3.55304384 13.3125 6.25 C20.48773048 10.55625555 27.74817202 14.68485088 35.0625 18.75 C43.39009796 23.3861058 51.65868149 28.10701954 59.875 32.9375 C69.54426744 38.61769559 79.31232861 44.10068794 89.12646484 49.52612305 C103.41752489 57.43021503 117.56370886 65.57929071 131.6862793 73.77954102 C139.97710604 78.5837567 148.32560811 83.28519501 156.671875 87.9921875 C163.71879985 91.96693083 170.7431921 95.9804732 177.75878906 100.01025391 C179.56786157 101.04937345 181.37748394 102.08752492 183.1875 103.125 C183.77781006 103.46345947 184.36812012 103.80191895 184.97631836 104.15063477 C188.3333131 106.06871634 191.71400716 107.9300943 195.125 109.75 C201.37014229 113.12274747 207.42018032 116.82012161 213.48095703 120.51074219 C218.627876 123.63101706 223.83955796 126.58231521 229.13525391 129.44238281 C234.18825424 132.18979564 239.18438098 135.03808068 244.1875 137.875 C245.23486328 138.46796875 246.28222656 139.0609375 247.36132812 139.671875 C249.90798659 141.1138186 252.45420281 142.55653652 255 144 C250.63002517 147.76843984 245.86683509 150.53259037 240.875 153.375 C240.01970703 153.86613281 239.16441406 154.35726562 238.28320312 154.86328125 C233.22486628 157.75924631 228.13405833 160.58419365 223 163.34375 C217.94823587 166.13274478 212.97567309 169.05916644 207.98852539 171.96166992 C202.83753212 174.95364402 197.64902612 177.85437578 192.40234375 180.67578125 C189.09754528 182.49745065 185.88560961 184.46188585 182.66113281 186.42114258 C180.1084402 187.93566213 177.52900774 189.37011627 174.91796875 190.78125 C159.51341429 199.14673953 144.27631145 207.79756529 129.16333008 216.67773438 C120.54165784 221.72511465 111.8137378 226.56803502 103.06689453 231.39428711 C95.65083815 235.49727206 88.30491225 239.7025647 81 244 C71.37331952 249.66181108 61.64694494 255.12324977 51.87304688 260.52636719 C44.88901831 264.38914352 37.92722246 268.28620485 31 272.25 C30.16533203 272.72743652 29.33066406 273.20487305 28.47070312 273.69677734 C24.15214782 276.17359583 19.84643954 278.67117639 15.55078125 281.1875 C14.67099609 281.70151367 13.79121094 282.21552734 12.88476562 282.74511719 C11.20793421 283.72613359 9.53333567 284.71097969 7.86132812 285.70019531 C7.11947266 286.13428711 6.37761719 286.56837891 5.61328125 287.015625 C4.96141846 287.40008789 4.30955566 287.78455078 3.63793945 288.18066406 C2 289 2 289 0 289 C0 193.63 0 98.26 0 0 Z " fill="#FFFEFE" transform="translate(412,368)"/>
</svg>
